<?xml version="1.0" encoding="utf-8"?>
<svg version="1.1" id="레이어_1" xmlns="http://www.w3.org/2000/svg" xmlns:xlink="http://www.w3.org/1999/xlink" x="0px"
	 y="0px" viewBox="0 0 126 144" style="enable-background:new 0 0 126 144;" xml:space="preserve" fill="#333">
<path d="M77.3,79.4c-0.4,0.4-0.8,0.6-1.4,0.6c-0.5,0-1-0.2-1.4-0.6L63.4,68.6L52.1,79.5c-0.4,0.3-0.8,0.5-1.3,0.5
	c-0.5,0-1-0.2-1.4-0.6c-0.4-0.4-0.6-0.8-0.6-1.3s0.2-0.9,0.6-1.3l12.9-12.4c0.2-0.1,0.3-0.3,0.5-0.3C63,64,63.2,64,63.4,64
	c0.2,0,0.4,0,0.6,0.1c0.2,0.1,0.3,0.2,0.5,0.3l12.9,12.5c0.4,0.3,0.5,0.8,0.5,1.3C77.8,78.6,77.7,79.1,77.3,79.4z"/>
</svg>
