<?xml version="1.0" encoding="UTF-8"?>
<svg id="_레이어_2" data-name="레이어 2" xmlns="http://www.w3.org/2000/svg" viewBox="0 0 144.26 89.52">
  <defs>
    <style>
      .cls-1 {
        fill: #fff;
      }
    </style>
  </defs>
  <g id="_레이어_1-2" data-name="레이어 1">
    <g>
      <g>
        <path class="cls-1" d="m91.46,11.51c12.7,0,25.37,4.28,35.48,11.97,3.58,2.73,6.87,5.89,9.42,9.6,5.2,7.59,7.03,17.17,6.26,26.34s-3.98,18-8.13,26.21"/>
        <path d="m91.46,13.01c13.3.05,26.65,4.77,36.79,13.44,5.11,4.37,9.03,9.75,11.09,16.18s2.39,13.02,1.46,19.54c-1.14,7.96-4.03,15.56-7.62,22.71-.86,1.72,1.72,3.24,2.59,1.51,6.52-13,10.83-27.86,7.1-42.35-1.78-6.9-5.41-13.04-10.56-17.96s-11.26-8.71-17.79-11.43c-7.3-3.04-15.16-4.62-23.07-4.65-1.93,0-1.93,2.99,0,3h0Z"/>
      </g>
      <g>
        <path class="cls-1" d="m124.5,57.27c1.12-1.26,2.47-2.36,4.06-2.89s3.46-.43,4.83.55c1.36.97,2.05,2.62,2.38,4.25,1.03,5.12-1.25,10.75-5.54,13.72-.88.61-1.87,1.12-2.94,1.21s-2.23-.32-2.8-1.23c-.57-.89-.47-2.05-.77-3.06"/>
        <path d="m125.56,58.33c1.71-1.88,5.14-4.21,7.43-1.77,1.74,1.86,1.78,5.19,1.28,7.54-.56,2.65-1.92,5.06-3.96,6.85-.92.81-2.25,1.83-3.56,1.67-1.54-.19-1.3-2.05-1.59-3.19-.48-1.87-3.37-1.08-2.89.8.4,1.56.36,3.16,1.69,4.31,1.2,1.03,2.86,1.28,4.36.92,2.96-.7,5.5-3.39,7-5.91s2.32-5.55,2.17-8.5-1.2-6.51-4.17-7.87c-3.63-1.67-7.42.32-9.89,3.03-1.3,1.43.82,3.55,2.12,2.12h0Z"/>
      </g>
      <g>
        <path class="cls-1" d="m89.24,13.17c-2.45-4.29-6.71-7.34-11.33-9.08s-9.61-2.29-14.54-2.47c-5.55-.21-11.17.04-16.53,1.49-4.13,1.12-8.03,2.93-11.87,4.8-8.17,3.98-16.43,8.47-22.13,15.56-8.56,10.62-9.96,25.76-6.25,38.88"/>
        <path d="m90.54,12.41c-4.46-7.6-13.03-10.86-21.39-11.87-9.52-1.15-19.4-.62-28.33,3.05-7.94,3.26-16,7.29-22.75,12.64s-11.04,11.91-13.26,19.83c-2.43,8.68-2.08,18.04.33,26.68.52,1.86,3.41,1.07,2.89-.8-4.02-14.44-1.75-30.95,9.66-41.46,5.85-5.39,13.17-9.01,20.3-12.38,4-1.89,8.12-3.49,12.49-4.29s9.05-.88,13.58-.67c8.88.39,19.02,2.5,23.88,10.79.98,1.66,3.57.16,2.59-1.51h0Z"/>
      </g>
      <g>
        <path class="cls-1" d="m83.92,27.93c-4.98-.43-9.53-2.93-14.35-4.26-7.29-2.01-15.38-1.23-21.99,2.46-4.86,2.72-8.77,6.84-12.31,11.15-3.08,3.75-6,7.81-7.25,12.5-1.35,5.07-.61,10.53,1.3,15.42,1.47,3.75,3.68,7.3,6.89,9.73,2.37,1.8,5.19,2.91,8.02,3.82,4.4,1.4,8.94,2.33,13.53,2.79,3.21.32,6.48.41,9.57,1.34,3.94,1.2,7.4,3.72,11.4,4.71,7.29,1.8,14.74-1.78,22.23-2.3,3.38-.24,6.86.14,10.08-.91,3.05-1,5.58-3.21,7.59-5.71,5.99-7.45,7.87-17.46,7.81-27.02-.04-5.72-.96-11.99-5.22-15.8-4.81-4.31-12.01-3.98-18.3-5.44"/>
        <path d="m83.92,26.43c-4.43-.43-8.48-2.5-12.68-3.83s-8.3-1.77-12.5-1.38-8.11,1.53-11.73,3.52-6.98,4.94-9.85,8.07c-5.72,6.23-11.28,13.45-11.32,22.29-.04,8.11,3.68,17.33,10.66,21.86,3.68,2.39,8.16,3.64,12.4,4.63,4.53,1.05,9.09,1.37,13.7,1.89,2.26.25,4.46.77,6.55,1.66,1.96.84,3.84,1.87,5.8,2.71,4.16,1.77,8.34,2,12.78,1.33s8.75-2.08,13.23-2.4,8.95.18,13.03-2.08c7.04-3.9,10.97-12.44,12.64-19.96.88-3.96,1.27-8.03,1.3-12.08.03-3.78-.21-7.69-1.47-11.28s-3.46-6.59-6.76-8.46-7.03-2.44-10.69-2.98c-1.91-.28-3.82-.56-5.7-.99s-2.68,2.46-.8,2.89c6.34,1.44,14.78.9,19.12,6.65,2.09,2.77,2.87,6.35,3.15,9.74.3,3.65.17,7.38-.26,11.01-.85,7.32-3.38,14.99-8.72,20.29-1.33,1.32-2.86,2.48-4.61,3.17-2.01.79-4.17.9-6.31.94-4.25.09-8.26.62-12.41,1.53s-8.17,1.88-12.27,1.17-7.25-2.94-10.89-4.37c-4-1.57-8.31-1.58-12.52-2.06s-8.64-1.46-12.79-2.83c-3.71-1.23-7.1-2.96-9.64-6.01s-4.02-6.68-4.89-10.39c-.95-4.03-.91-8.24.48-12.16s3.82-7.13,6.35-10.21c5.01-6.09,10.78-11.59,18.66-13.49,3.74-.9,7.72-1.02,11.51-.34s7.63,2.41,11.45,3.64c1.95.63,3.92,1.07,5.96,1.27,1.92.19,1.91-2.81,0-3h0Z"/>
      </g>
      <g>
        <path d="m76.26,46.36c-1.83,1.59-3.06,8.03-.37,10.92.21.22.45.42.74.53,2.11.75,2.86-3.91,2.91-5.16.07-1.81-.23-3.68-.66-5.43-.04-.15-.08-.32-.19-.43-.24-.25-.7-.14-.92.13s-.27.64-.31.99"/>
        <path d="m75.2,45.3c-1.51,1.36-2.04,3.69-2.27,5.61-.27,2.18-.04,4.7,1.23,6.57.79,1.16,1.99,2.16,3.48,1.84.99-.21,1.74-1,2.2-1.87.84-1.59,1.21-3.54,1.21-5.33s-.22-3.76-.77-5.46c-.38-1.17-1.5-1.78-2.68-1.38s-1.51,1.51-1.64,2.62c-.1.81.76,1.5,1.5,1.5.89,0,1.4-.69,1.5-1.5-.02.15.09-.12.02-.1-.41.08-.43.75-1.05.28l-.54-.54c-.08-.12.01,0,.04.07.04.13.07.27.1.41.07.31.14.62.2.93.11.56.2,1.13.25,1.7.08.84.08,1.68.01,2.53-.03.34.06-.33-.01.1-.02.14-.04.27-.07.41-.06.33-.13.67-.22,1-.08.3-.17.6-.28.89-.03.07-.05.14-.08.21.13-.32.05-.11.02-.05-.09.15-.17.31-.25.47-.03.06-.08.11-.11.17.14-.28.14-.15.06-.08-.03.03-.1.09-.13.13-.14.18.04-.05.1-.07-.39.13.28-.01-.05.04-.19.03.35-.03.16-.02-.24.01-.02.02.1.03-.23-.01.11.11-.07-.02-.23-.17.09.09-.13-.11-.07-.06-.13-.14-.19-.21-.15-.16.13.18,0,0-.11-.16-.22-.32-.31-.49-.04-.08-.08-.15-.12-.23-.02-.03-.16-.36-.09-.18s-.03-.09-.05-.13c-.03-.09-.06-.17-.09-.26-.06-.2-.12-.4-.16-.6-.04-.18-.07-.36-.11-.55,0-.05-.03-.29,0-.02-.01-.14-.03-.28-.04-.42-.03-.38-.03-.76-.02-1.14,0-.19.02-.38.03-.57,0-.09.02-.19.03-.28,0-.03.07-.48.02-.16.13-.83.34-1.63.63-2.41.1-.26,0-.02-.01.03.05-.1.09-.21.14-.31.08-.16.16-.31.26-.46.03-.05.08-.11.11-.17.13-.25-.21.21-.01,0,.1-.1.19-.21.29-.3.6-.54.55-1.57,0-2.12-.6-.6-1.52-.54-2.12,0h0Z"/>
      </g>
      <g>
        <path d="m111.4,51.85c-.98,3.3-1.97,7.3.11,10.39.15.22.32.44.57.53.89.31,1.46-.54,1.76-1.25.67-1.62.92-3.59.84-5.34-.04-1.03-.24-2.05-.59-3.01-.07-.2-.16-.41-.31-.57-.16-.17-.46-.3-.65-.11"/>
        <path d="m109.95,51.45c-1.05,3.55-1.94,7.58-.06,11.02.56,1.02,1.38,1.91,2.64,1.87,1.09-.04,1.97-.81,2.46-1.74.92-1.75,1.21-3.91,1.21-5.87,0-1.2-.16-2.42-.52-3.57-.2-.63-.43-1.26-.94-1.71-.66-.59-1.59-.71-2.35-.25-.69.42-.95,1.35-.54,2.05s1.35.96,2.05.54l.12-.07-.76.2c-.22-.06-.42-.15-.59-.29-.05-.12-.04-.08.04.14.08.26.16.52.23.79.1.4.18.81.21,1.22.07.88.05,1.78-.06,2.65-.1.77-.31,1.75-.64,2.53.07-.17-.15.27-.17.32l-.08.12c.09-.11.08-.1-.04.03.13-.08.12-.08-.02,0,.14-.1.3-.12.48-.06.13,0,.16.22.12.04s-.23-.37-.32-.53c-.12-.22-.14-.26-.21-.43-.14-.37-.25-.76-.33-1.15-.02-.11-.04-.22-.06-.34.01.12,0,.08-.01-.11-.02-.17-.03-.34-.04-.51-.02-.43-.01-.87.02-1.3.1-1.51.56-3.2,1.04-4.79.23-.78-.28-1.63-1.05-1.85s-1.61.27-1.85,1.05h0Z"/>
      </g>
      <g>
        <path class="cls-1" d="m93.94,57.71c1.05,1.51,2.41,2.8,3.96,3.78.44.28.91.54,1.18.99.62,1.05-.27,2.37-1.28,3.05s-2.26,1.16-2.83,2.23"/>
        <path d="m92.64,58.46c.75,1.06,1.59,2.05,2.58,2.89.52.44,1.07.86,1.64,1.24.27.18.55.33.81.52-.15-.11.06.09.11.11.17.1-.11-.19-.01-.04.03.11.03.09,0-.07v.13c.03-.15.04-.17.01-.06-.01.07-.03.14-.05.2.06-.2,0,.01-.05.1-.03.06-.23.34-.18.28.08-.1-.16.17-.19.19,0,0-.35.31-.16.16-.21.17-.45.3-.68.44-1.08.64-2.16,1.29-2.81,2.42-.4.7-.16,1.64.54,2.05s1.65.17,2.05-.54c.03-.05.25-.36.09-.17.09-.11.2-.2.3-.31.22-.23-.09.04.15-.13.12-.08.24-.17.37-.24.5-.32,1.03-.59,1.52-.93,1.26-.9,2.28-2.33,2.06-3.94s-1.76-2.31-2.97-3.22c-.33-.24-.93-.79-1.33-1.19-.48-.5-.86-.95-1.2-1.43-.47-.66-1.31-.97-2.05-.54-.65.38-1.01,1.39-.54,2.05h0Z"/>
      </g>
      <g>
        <path class="cls-1" d="m32.73,46.74c-.67-2.47-1.37-5.01-2.89-7.07-1.52-2.06-4.06-3.58-6.58-3.15-2.47.42-4.31,2.56-5.34,4.84-1.52,3.36-1.73,7.17-1.5,10.85.16,2.59.55,5.22,1.68,7.55s3.11,4.37,5.61,5.06,5.5-.2,6.83-2.43"/>
        <path d="m34.17,46.34c-1.15-4.21-2.7-8.83-7.02-10.72-4.05-1.77-7.99.4-10.05,4.01-2.32,4.07-2.53,9.09-2.11,13.65s1.68,8.81,5.34,11.51,8.96,2.28,11.49-1.65c1.05-1.63-1.55-3.13-2.59-1.51-2.24,3.48-6.92,1.67-8.9-1.03-2.6-3.55-2.76-8.84-2.42-13.06.27-3.36,1.69-9.23,5.9-9.58,4.77-.4,6.51,5.68,7.46,9.18.51,1.86,3.4,1.07,2.89-.8h0Z"/>
      </g>
      <path d="m84.99,25.21c-1.65-2.15-3.42-4.35-5.85-5.65-2.64-1.42-5.64-1.44-8.44-.46s-5.47,2.71-8.13,4.19-5.39,2.88-8.16,4.16c-10.73,4.95-22.74,8.08-34.58,6.1-6.22-1.04-12.25-3.4-17.19-7.37-1.49-1.2-3.63.91-2.12,2.12,8.75,7.02,20.2,9.61,31.25,8.65,12.09-1.05,23.43-6.01,33.88-11.94,2.85-1.62,6.06-3.88,9.51-3.59,3.17.26,5.44,2.97,7.24,5.32,1.16,1.51,3.76.02,2.59-1.51h0Z"/>
      <g>
        <path class="cls-1" d="m4.94,21.95c8.25,5.48,18.6,6.52,28.49,6.85"/>
        <path d="m4.19,23.25c8.63,5.65,19.18,6.71,29.25,7.06,1.93.07,1.93-2.93,0-3-9.55-.33-19.53-1.28-27.73-6.65-1.62-1.06-3.13,1.54-1.51,2.59h0Z"/>
      </g>
      <g>
        <path class="cls-1" d="m29.58,23.05c8.02.36,16.11-.7,23.77-3.11"/>
        <path d="m29.58,24.55c8.17.34,16.36-.74,24.17-3.17,1.84-.57,1.05-3.47-.8-2.89-7.57,2.36-15.44,3.39-23.37,3.06-1.93-.08-1.93,2.92,0,3h0Z"/>
      </g>
      <g>
        <path class="cls-1" d="m10.75,58.95c.98,3.44,2.18,6.82,3.59,10.1"/>
        <path d="m9.31,59.35c1.02,3.57,2.28,7.05,3.75,10.46.32.74,1.41.91,2.05.54.77-.45.86-1.3.54-2.05-1.35-3.15-2.5-6.44-3.44-9.75-.22-.78-1.06-1.26-1.85-1.05s-1.27,1.06-1.05,1.85h0Z"/>
      </g>
      <g>
        <path class="cls-1" d="m18.35,66.63c.61,1.8,1.5,3.51,2.63,5.04"/>
        <path d="m16.91,67.03c.65,1.93,1.57,3.76,2.78,5.4.24.32.49.58.9.69.36.1.84.05,1.16-.15.62-.4,1.04-1.38.54-2.05-.86-1.17-1.59-2.44-2.15-3.79l.15.36c-.17-.41-.33-.83-.47-1.25-.25-.74-1.04-1.31-1.85-1.05-.74.24-1.32,1.05-1.05,1.85h0Z"/>
      </g>
      <g>
        <path class="cls-1" d="m24.53,67.48c.79,1.95,1.79,3.81,2.98,5.54"/>
        <path d="m23.08,67.88c.84,2.07,1.87,4.05,3.13,5.9.44.65,1.34,1,2.05.54.64-.41,1.01-1.36.54-2.05-.58-.85-1.13-1.73-1.62-2.64-.24-.45-.47-.9-.69-1.36-.11-.23-.21-.46-.32-.69-.05-.12-.12-.25-.16-.37.13.41,0-.02-.04-.11-.15-.38-.32-.68-.69-.9-.32-.19-.8-.27-1.16-.15s-.71.34-.9.69-.3.79-.15,1.16h0Z"/>
      </g>
      <g>
        <path class="cls-1" d="m130.92,78.63c-1.59,2.46-3.17,4.93-4.76,7.39"/>
        <path d="m129.62,77.87c-1.59,2.46-3.17,4.93-4.76,7.39-.43.66-.16,1.69.54,2.05.74.39,1.6.17,2.05-.54,1.59-2.46,3.17-4.93,4.76-7.39.43-.66.16-1.69-.54-2.05-.74-.39-1.6-.17-2.05.54h0Z"/>
      </g>
      <g>
        <path class="cls-1" d="m124.88,82.08c-1.79,1.79-3.67,3.49-5.63,5.09"/>
        <path d="m123.82,81.02c-1.79,1.79-3.67,3.49-5.63,5.09-.61.5-.56,1.61,0,2.12.65.59,1.47.53,2.12,0,1.96-1.61,3.84-3.31,5.63-5.09.56-.55.6-1.57,0-2.12s-1.53-.59-2.12,0h0Z"/>
      </g>
      <g>
        <path class="cls-1" d="m89.72,25.98c-.28-2.13-1.44-4.06-2.93-5.6s-3.31-2.73-5.15-3.82"/>
        <path d="m91.17,25.58c-.69-4.83-4.87-8-8.77-10.32-.67-.4-1.68-.17-2.05.54s-.18,1.62.54,2.05c1.87,1.12,3.49,2.15,4.95,3.7.16.17.31.34.46.51.08.1.17.2.24.3-.12-.15.05.07.09.13.29.39.55.8.78,1.23.12.22.24.45.34.69-.08-.18.03.07.05.14.04.12.09.24.13.36.16.48.27.98.34,1.48.11.78,1.14,1.28,1.85,1.05.85-.28,1.17-1.01,1.05-1.85h0Z"/>
      </g>
      <g>
        <path class="cls-1" d="m96.24,27.42c-.23-2.78-.65-5.54-1.24-8.27"/>
        <path d="m97.74,27.42c-.25-2.91-.67-5.81-1.29-8.67-.17-.77-1.1-1.29-1.85-1.05-.81.26-1.23,1.02-1.05,1.85.6,2.76.96,5.14,1.19,7.87.07.78.64,1.54,1.5,1.5.76-.03,1.57-.66,1.5-1.5h0Z"/>
      </g>
      <g>
        <path class="cls-1" d="m101.61,27.24c.56-1.22,1.6-2.16,2.76-2.83s2.44-1.1,3.71-1.53"/>
        <path d="m102.9,28c.12-.26.27-.52.43-.76.04-.06.09-.16.15-.21-.06.05-.17.21-.04.06.1-.12.2-.23.31-.34s.22-.22.34-.32c.09-.08.26-.17.32-.27-.04.06-.22.16-.06.05.07-.05.14-.1.21-.15.13-.09.26-.17.39-.25.28-.17.56-.32.85-.47.16-.08.32-.15.48-.22s.07-.05-.03.01c.07-.04.15-.06.22-.09.66-.26,1.33-.49,2.01-.71.74-.25,1.31-1.05,1.05-1.85-.24-.74-1.05-1.31-1.85-1.05-2.84.95-5.99,2.16-7.37,5.05-.34.71-.22,1.65.54,2.05.67.35,1.69.22,2.05-.54h0Z"/>
      </g>
      <g>
        <path class="cls-1" d="m117.22,27.85c2.41.37,4.89.76,6.98,2.02,1.33.8,2.44,1.92,3.46,3.09,2.81,3.2,5.17,7.09,5.25,11.35"/>
        <path d="m116.82,29.29c1.89.29,3.87.56,5.63,1.35s3.15,2.21,4.41,3.68c2.4,2.8,4.43,6.21,4.55,9.98.06,1.93,3.06,1.93,3,0-.14-4.52-2.4-8.51-5.25-11.89-1.4-1.66-2.98-3.27-4.94-4.24-2.08-1.02-4.33-1.42-6.6-1.77-.8-.12-1.61.2-1.85,1.05-.2.71.24,1.72,1.05,1.85h0Z"/>
      </g>
      <g>
        <path class="cls-1" d="m68.98,10.26c-9.27-1.81-19.15-.29-27.45,4.21"/>
        <path d="m69.38,8.81c-9.74-1.84-19.85-.32-28.6,4.36-1.7.91-.19,3.5,1.51,2.59,8-4.28,17.37-5.74,26.29-4.06,1.89.36,2.7-2.53.8-2.89h0Z"/>
      </g>
      <path d="m76.89,69.2c0,.36-.02.73-.06,1.09,0,.09-.02.18-.03.27.02-.17.02-.17,0,0-.03.18-.06.36-.1.54-.14.71-.35,1.41-.61,2.09-.03.08-.07.17-.1.25.06-.15.06-.14-.01.02-.08.16-.15.33-.24.49-.16.32-.34.64-.53.95s-.4.61-.61.9c.18-.25-.15.19-.19.23-.12.14-.24.27-.36.41-.53.58-.62,1.56,0,2.12.58.53,1.56.62,2.12,0,2.33-2.56,3.67-5.89,3.72-9.35.01-.78-.7-1.54-1.5-1.5s-1.49.66-1.5,1.5h0Z"/>
      <path d="m78.98,75.91c3.37-1.45,5.99,1.72,9.15,2.18,1.88.27,3.69-.19,5.56-.29,1.03-.06,2.77-.08,3.32.99.89,1.71,3.48.2,2.59-1.51-.83-1.6-2.63-2.22-4.32-2.42-2.15-.25-4.26.51-6.41.32-1.95-.17-3.54-1.57-5.35-2.21-2.01-.71-4.14-.48-6.07.35-.75.32-.9,1.41-.54,2.05.44.77,1.31.86,2.05.54h0Z"/>
      <path d="m98.95,72.99c-1.48,2.47-2.24,5.37-2.12,8.25.03.78.67,1.54,1.5,1.5.79-.04,1.53-.66,1.5-1.5-.03-.65,0-1.31.06-1.96,0-.04.07-.47.01-.12.03-.17.05-.34.09-.52.06-.3.12-.6.2-.89.15-.59.35-1.17.57-1.74-.13.32.09-.19.11-.24.06-.12.11-.24.17-.35.16-.31.33-.62.51-.92.4-.67.17-1.68-.54-2.05s-1.62-.18-2.05.54h0Z"/>
    </g>
  </g>
</svg>