<?xml version="1.0" encoding="UTF-8"?>
<svg id="_레이어_2" data-name="레이어 2" xmlns="http://www.w3.org/2000/svg" viewBox="0 0 152.91 79.51">
  <defs>
    <style>
      .cls-1 {
        fill: #fff;
      }
    </style>
  </defs>
  <g id="_레이어_1-2" data-name="레이어 1">
    <g>
      <g>
        <path class="cls-1" d="m131.88,27.98c.54-3.18,2.5-6.1,5.25-7.8,2.74-1.7,6.22-2.17,9.32-1.25,1.35.4,2.68,1.1,3.5,2.25.79,1.11,1.02,2.5,1.18,3.85.61,5.32.24,10.75-1.07,15.94-.67,2.63-1.65,5.31-3.64,7.14-2,1.83-5.25,2.54-7.45.94"/>
        <path d="m133.33,28.38c.6-3.18,2.51-5.93,5.44-7.39,2.73-1.36,7.07-1.64,9.48.55,1.31,1.19,1.38,3.27,1.51,4.91.17,2.04.19,4.09.08,6.13-.21,3.66-.77,7.55-2.17,10.97-1.21,2.96-4.57,6.47-7.95,4.21-1.61-1.07-3.12,1.52-1.51,2.59,3.58,2.38,8.16.55,10.54-2.62,2.71-3.6,3.47-8.67,3.93-13.04.27-2.58.31-5.19.13-7.78-.15-2.17-.28-4.64-1.56-6.49-2.5-3.62-8.08-4.08-11.95-2.86-4.54,1.42-7.97,5.35-8.85,10.02-.36,1.89,2.53,2.7,2.89.8h0Z"/>
      </g>
      <g>
        <path class="cls-1" d="m14.58,33.81c-.67-1.45-1.35-2.93-2.43-4.11s-2.63-2.04-4.22-1.89c-2.82.27-4.41,3.35-5.15,6.08-1.38,5.09-1.65,10.48-.78,15.68.31,1.88.8,3.79,1.88,5.36s2.88,2.76,4.79,2.69c2.23-.09,4.11-1.9,4.88-3.99"/>
        <path d="m15.88,33.05c-1.59-3.46-4.35-7.63-8.81-6.61-3.41.78-5.06,4.44-5.85,7.5C.06,38.42-.29,43.14.24,47.74c.44,3.88,1.32,8.32,4.97,10.46,4.01,2.36,8.22-.21,9.78-4.16.71-1.8-2.19-2.57-2.89-.8-.56,1.41-1.83,2.78-3.43,2.89-1.87.12-3.36-1.46-4.11-3-1.71-3.48-1.72-8.12-1.48-11.9.13-2.11.46-4.21.98-6.26.37-1.49.85-3.05,1.82-4.28s2.47-1.78,3.96-.95c1.78.99,2.64,3.07,3.45,4.83s3.39.23,2.59-1.51h0Z"/>
      </g>
      <g>
        <path class="cls-1" d="m42.28,10.63c-5.25,1.74-10.6,3.53-15.09,6.76-10.78,7.73-14.61,22.53-12.61,35.64,1.17,7.69,4.51,15.64,11.21,19.58,3.25,1.92,7.03,2.73,10.76,3.34,12.3,2.01,24.83,2.09,37.29,2.05,14.87-.05,30.13-.32,43.99-5.72,4-1.56,7.91-3.58,10.9-6.65,2.91-2.98,4.83-6.83,5.99-10.83,2.77-9.54,1.24-20.24-4.08-28.62-5.32-8.38-14.36-14.32-24.17-15.87"/>
        <path d="m41.88,9.19c-4.33,1.44-8.71,2.9-12.7,5.16-3.46,1.95-6.48,4.55-8.92,7.68-4.7,6.05-7.06,13.6-7.59,21.18s.74,15.88,4.59,22.59c1.92,3.34,4.6,6.3,7.96,8.22,4.05,2.32,8.77,3.09,13.33,3.75,10.08,1.44,20.26,1.72,30.43,1.74,9.68.02,19.42.07,29.04-1.06,8.99-1.05,18.48-3.01,26.39-7.64,7.82-4.58,11.87-12.67,12.92-21.48s-1.09-17.57-5.92-24.71c-4.51-6.67-11.2-11.72-18.81-14.33-1.87-.64-3.78-1.11-5.73-1.43s-2.7,2.58-.8,2.89c7.45,1.22,14.34,4.87,19.53,10.37,5.45,5.79,8.59,13.51,8.94,21.43s-1.91,16.77-8.07,22.15c-3.13,2.74-7.07,4.47-10.96,5.84-4.13,1.46-8.4,2.5-12.71,3.23-8.8,1.49-17.77,1.67-26.68,1.72-9.5.05-19.02.07-28.5-.71-4.58-.38-9.19-.88-13.69-1.83-3.98-.84-7.75-2.28-10.69-5.19-5.11-5.06-7.16-12.72-7.6-19.71s.76-14.42,4.1-20.73c1.61-3.04,3.68-5.79,6.25-8.08,3.08-2.75,6.84-4.61,10.67-6.07,1.98-.76,3.99-1.43,6-2.09,1.82-.61,1.04-3.5-.8-2.89h0Z"/>
      </g>
      <g>
        <path class="cls-1" d="m57.55,1.51c-4.13.55-8.54-.36-12.35,1.33-2.27,1.01-4.09,2.87-5.4,4.98-1,1.61-1.76,3.54-1.28,5.37.61,2.29,3.16,3.73,5.52,3.5"/>
        <path d="m57.55,0c-3.31.41-6.66,0-9.95.57s-5.92,2.3-7.92,4.84-3.65,5.73-2.37,8.84c1.08,2.62,3.96,4.15,6.74,3.95,1.91-.14,1.93-3.14,0-3-1.76.13-3.85-.77-4.15-2.71-.35-2.3,1.57-4.79,3.09-6.3,3.97-3.95,9.54-2.56,14.56-3.18.8-.1,1.5-.62,1.5-1.5,0-.73-.69-1.6-1.5-1.5h0Z"/>
      </g>
      <g>
        <path class="cls-1" d="m73.03,16.08c1.49,1.3,3.61,1.85,5.55,1.44s3.65-1.77,4.49-3.57c2.73,2.07,6.73,2.29,9.67.53,1.43-.86,2.69-2.63,1.92-4.11.75,1.22,2.28,1.91,3.69,1.68s2.63-1.39,2.95-2.79c.09-.41.11-.86-.12-1.21-.26-.4-.75-.56-1.2-.69-5.28-1.47-10.89-1.74-16.28-.77"/>
        <path d="m71.97,17.14c4.01,3.27,10.01,2.32,12.39-2.43l-2.05.54c2.55,1.85,5.97,2.4,8.99,1.49,2.72-.82,6.16-3.53,4.81-6.77l-2.74,1.16c1.5,2.17,4.33,3.18,6.76,1.88,2-1.07,3.94-4.34,1.89-6.27-.97-.91-2.66-1.11-3.91-1.37-1.58-.33-3.2-.56-4.81-.7-3.34-.29-6.68-.08-9.99.49-1.9.33-1.09,3.22.8,2.89,3.89-.67,7.92-.72,11.82-.06.93.16,1.85.35,2.76.58.12.03,1.17.21,1.25.35-.09-.15-.24.45-.31.58-.81,1.39-2.75,1.42-3.66.11s-3.44-.52-2.74,1.16c.82,1.95-2.33,3.11-3.76,3.33-2.02.31-3.99-.25-5.63-1.43-.63-.45-1.71-.13-2.05.54-1.45,2.88-5.07,3.96-7.68,1.83-1.48-1.21-3.62.9-2.12,2.12h0Z"/>
      </g>
      <g>
        <path class="cls-1" d="m75.76,33.49c-2.6-1.8-5.7-2.89-8.86-3.11-.31-.02-.65-.03-.91.15-.23.16-.34.44-.41.71-.37,1.4.04,2.9.66,4.22,1.31,2.75,3.59,5.02,6.34,6.31"/>
        <path d="m76.51,32.2c-1.58-1.08-3.32-1.91-5.14-2.48-.91-.29-1.85-.5-2.79-.64s-2.09-.39-3.03.02c-2.08.89-1.77,4.02-1.17,5.76s1.61,3.35,2.83,4.74,2.88,2.65,4.62,3.48c.73.35,1.62.2,2.05-.54.38-.65.2-1.7-.54-2.05-1.59-.76-2.85-1.7-4.01-3.01-1.04-1.18-2.13-2.88-2.36-4.57-.04-.33-.05-.73.01-1.06.02-.12.06-.24.09-.35-.03.19-.16.32-.41.38-.14.02-.12.02.07.02.09,0,.17,0,.26.02.92.07,1.82.23,2.72.47,1.9.5,3.66,1.32,5.28,2.43.67.46,1.66.13,2.05-.54.43-.74.13-1.59-.54-2.05h0Z"/>
      </g>
      <g>
        <path class="cls-1" d="m52.81,46.77c.95,2.71.71,5.81-.65,8.34"/>
        <path d="m51.36,47.17c.12.35.23.7.31,1.07.03.14.06.27.09.41.01.06.09.62.05.29.08.67.1,1.34.05,2.01-.01.16-.03.32-.05.48.04-.34-.04.23-.05.29-.06.32-.13.63-.22.95s-.2.62-.31.92c-.07.16-.07.17,0,.03-.04.08-.08.17-.11.25-.08.17-.16.33-.25.5-.37.69-.2,1.66.54,2.05.69.37,1.66.2,2.05-.54,1.53-2.89,1.87-6.38.8-9.49-.26-.74-1.04-1.31-1.85-1.05-.73.24-1.32,1.05-1.05,1.85h0Z"/>
      </g>
      <g>
        <path class="cls-1" d="m55.4,51.69c14.82-.98,29.62-2.22,44.4-3.7"/>
        <path d="m55.4,53.19c14.82-.98,29.62-2.22,44.4-3.7,1.9-.19,1.92-3.19,0-3-14.78,1.49-29.58,2.72-44.4,3.7-1.92.13-1.93,3.13,0,3h0Z"/>
      </g>
      <g>
        <path class="cls-1" d="m101.74,44.19c-.78,2.11-.34,4.62,1.12,6.34"/>
        <path d="m100.29,43.79c-.96,2.66-.28,5.66,1.5,7.8.5.6,1.61.56,2.12,0,.59-.64.54-1.48,0-2.12-.04-.05-.08-.11-.12-.15.06.05.17.23.06.07-.07-.11-.15-.21-.22-.32-.14-.22-.26-.45-.37-.69-.09-.18.01.02.03.09-.02-.06-.05-.12-.07-.18-.05-.12-.09-.25-.13-.37-.08-.26-.15-.53-.19-.81,0-.05-.04-.28-.01-.04s0,0,0-.04c-.01-.13-.02-.26-.03-.39-.01-.26,0-.52.01-.78,0-.06.01-.13.02-.19.01-.2-.05.31-.02.11.02-.13.04-.26.07-.38.06-.27.14-.54.23-.8.27-.74-.3-1.67-1.05-1.85-.84-.19-1.56.26-1.85,1.05h0Z"/>
      </g>
      <g>
        <path class="cls-1" d="m68.41,62.63c.13,2.62,1.09,5.18,2.71,7.24"/>
        <path d="m66.91,62.63c.17,3.06,1.27,5.89,3.15,8.3.48.62,1.62.55,2.12,0,.61-.66.52-1.46,0-2.12.22.29-.1-.14-.13-.19-.09-.13-.19-.27-.28-.41-.16-.24-.3-.48-.44-.73-.16-.29-.31-.58-.45-.87-.03-.06-.23-.55-.09-.2-.05-.13-.11-.27-.16-.4-.21-.58-.38-1.17-.51-1.77-.03-.14-.06-.28-.08-.42-.01-.07-.1-.61-.04-.21-.05-.32-.07-.65-.09-.98-.04-.78-.66-1.54-1.5-1.5-.78.03-1.55.66-1.5,1.5h0Z"/>
      </g>
      <g>
        <path class="cls-1" d="m102.36,18.04c3.16-.37,6.21-1.58,8.76-3.49"/>
        <path d="m102.36,19.54c3.44-.41,6.73-1.62,9.52-3.69.63-.47,1.01-1.32.54-2.05-.4-.62-1.38-1.04-2.05-.54-.64.47-1.3.91-2,1.3-.3.17-.61.33-.92.48-.18.09-.36.17-.54.25-.16.07-.18.08-.05.03-.09.04-.18.08-.28.11-.69.28-1.4.51-2.12.7-.38.1-.77.19-1.16.26-.2.04-.39.07-.59.1-.1.02-.2.03-.29.04.15-.02.14-.02-.04,0-.78.09-1.54.62-1.5,1.5.03.73.67,1.6,1.5,1.5h0Z"/>
      </g>
      <g>
        <path class="cls-1" d="m110.09,21.05c.83-.13,1.62-.47,2.37-.85,1.45-.73,2.82-1.62,4.09-2.62"/>
        <path d="m110.48,22.5c1.32-.22,2.57-.88,3.72-1.54s2.32-1.47,3.4-2.33c.28-.22.44-.72.44-1.06,0-.37-.16-.81-.44-1.06s-.66-.46-1.06-.44c-.42.02-.73.18-1.06.44-.06.05-.12.1-.19.15.15-.11.15-.12.02-.02-.13.09-.25.19-.38.28-.22.16-.45.32-.68.48-.51.34-1.03.67-1.57.97s-1.03.57-1.56.81c-.05.02-.1.05-.16.07.18-.08.2-.08.04-.02-.14.05-.29.11-.43.16-.29.1-.59.17-.89.22-.78.13-1.28,1.13-1.05,1.85.27.84,1.01,1.18,1.85,1.05h0Z"/>
      </g>
      <g>
        <path class="cls-1" d="m117.03,25.83c1.37-1.13,2.73-2.27,4.1-3.4.11-.09.25-.18.37-.12s.03.32-.08.23"/>
        <path d="m118.09,26.89c1.38-1.15,2.74-2.34,4.15-3.45l-.3.23s.08-.05.12-.07l-.36.15.06-.02-.4.05h.06c-.13-.02-.27-.04-.4-.06l.06.02-.36-.15.03.02-.54-.54.02.03-.15-.36v.04c0-.13-.03-.27-.05-.4v.04c.02-.13.03-.27.05-.4v.04c.04-.12.09-.24.14-.36l-.02.03.23-.3-.02.03.3-.23h-.03c.25-.05.5-.12.76-.19h-.03c.25.07.5.14.76.21l-.03-.02c-.69-.37-1.66-.2-2.05.54s-.2,1.66.54,2.05c.48.26,1.09.31,1.57.02.36-.22.64-.56.75-.97.25-.87-.26-1.73-1.09-2.01-1.1-.37-1.99.64-2.75,1.27-1.06.88-2.12,1.76-3.17,2.64-.28.23-.44.71-.44,1.06,0,.37.16.81.44,1.06s.66.46,1.06.44.74-.17,1.06-.44h0Z"/>
      </g>
      <g>
        <path class="cls-1" d="m122.95,27.03c.87-.42,1.66-.99,2.34-1.67-.28-.02-.56-.03-.84-.05"/>
        <path d="m123.7,28.33c.44-.21.86-.46,1.26-.75.49-.35.96-.73,1.39-1.16l.23-.3.15-.36.05-.4c0-.21-.04-.4-.13-.58-.04-.13-.1-.24-.19-.33-.07-.11-.16-.2-.27-.27-.09-.09-.2-.16-.33-.19-.18-.09-.37-.14-.58-.13-.28-.02-.56-.03-.84-.05-.37-.02-.8.18-1.06.44s-.46.69-.44,1.06.14.79.44,1.06l.3.23c.23.14.49.2.76.2.28.02.56.03.84.05l-1.06-2.56c-.26.26-.53.5-.82.73l.3-.23c-.47.36-.98.68-1.52.94-.32.16-.6.56-.69.9-.1.36-.05.84.15,1.16s.51.6.9.69l.4.05c.27,0,.52-.07.76-.2h0Z"/>
      </g>
      <g>
        <path class="cls-1" d="m32.49,18.22c.79,1.33,1.98,2.42,3.37,3.09.17.08.39.22.34.41s-.4-.06-.21-.1"/>
        <path d="m31.2,18.98c.48.8,1.08,1.56,1.78,2.18.38.34.8.66,1.22.94.17.11.35.22.54.32s.38.18.55.29l-.3-.23s.07.06.11.1l-.23-.3s.03.05.05.08l-.15-.36v.04c0-.13-.02-.27-.04-.4v.04c.02-.13.04-.27.06-.4,0,.03,0,.05-.02.07l.15-.36-.02.02.54-.54h-.02c.12-.04.24-.09.36-.14h-.02c.13-.01.27-.03.4-.05-.02,0-.03,0-.05,0l.4.05s-.04,0-.05-.02l.36.15s-.03-.02-.05-.03l.3.23s-.02-.02-.03-.03l.23.3v-.02c.04.12.09.24.14.36v-.02c.01.13.03.27.05.4v-.02c-.07.25-.13.5-.2.76h0c-.18.17-.36.34-.54.52h.02c-.12.04-.24.09-.36.14h.03c.37-.13.7-.36.9-.7.19-.32.27-.8.15-1.16s-.34-.71-.69-.9-.77-.28-1.16-.15-.71.35-.94.71c-.22.33-.26.81-.16,1.19.15.55.61.98,1.14,1.14.51.15,1.03.05,1.45-.27.59-.46.77-1.25.48-1.94-.17-.41-.47-.73-.86-.95-.17-.1-.34-.17-.51-.26-.35-.19-.68-.41-.99-.65l.3.23c-.53-.42-1.01-.89-1.43-1.43l.23.3c-.19-.25-.37-.52-.53-.79-.19-.33-.53-.59-.9-.69s-.84-.05-1.16.15c-.68.44-.97,1.33-.54,2.05h0Z"/>
      </g>
      <g>
        <path class="cls-1" d="m27.08,22.34c.88.76,1.76,1.51,2.65,2.27"/>
        <path d="m26.02,23.4l2.65,2.27c.31.26.65.44,1.06.44.37,0,.81-.16,1.06-.44s.46-.66.44-1.06-.14-.8-.44-1.06l-2.65-2.27c-.31-.26-.65-.44-1.06-.44-.37,0-.81.16-1.06.44s-.46.66-.44,1.06.14.8.44,1.06h0Z"/>
      </g>
      <g>
        <path class="cls-1" d="m20.88,25.32c.58,1.5,1.77,2.75,3.24,3.39"/>
        <path d="m19.43,25.72c.39.99.92,1.88,1.65,2.66.64.67,1.43,1.25,2.28,1.63.17.11.36.17.56.18.2.04.4.04.6-.03.35-.1.73-.36.9-.69.18-.35.28-.77.15-1.16-.11-.35-.34-.74-.69-.9-.44-.2-.86-.44-1.24-.74l.3.23c-.42-.33-.8-.71-1.13-1.13l.23.3c-.32-.41-.58-.86-.79-1.33l.15.36c-.03-.06-.05-.13-.08-.19-.15-.38-.33-.69-.69-.9-.32-.19-.8-.27-1.16-.15s-.71.34-.9.69-.3.79-.15,1.16h0Z"/>
      </g>
      <g>
        <path class="cls-1" d="m18.97,32.82c.22.53.71.95,1.27,1.08"/>
        <path d="m17.52,33.21c.11.26.2.51.36.73s.32.44.53.62.42.35.66.48.5.24.76.3c.2.06.4.07.6.03.2,0,.39-.07.56-.18.17-.09.32-.22.42-.39.13-.14.22-.31.27-.51l.05-.4c0-.27-.07-.52-.2-.76l-.23-.3c-.19-.19-.41-.31-.66-.39-.1-.02-.19-.05-.29-.09l.36.15c-.14-.06-.28-.14-.4-.24l.3.23c-.13-.1-.24-.22-.35-.34l.23.3c-.09-.12-.17-.25-.23-.39l.15.36v-.02c-.05-.2-.14-.37-.28-.51-.11-.16-.25-.29-.42-.39-.17-.11-.36-.17-.56-.18-.2-.04-.4-.04-.6.03l-.36.15c-.23.13-.4.31-.54.54l-.15.36c-.07.27-.07.53,0,.8h0Z"/>
      </g>
      <g>
        <path class="cls-1" d="m88.68,28.15c-.62,1.85-.69,3.88-.18,5.76.04.16.1.33.22.44.19.16.49.12.7-.03s.32-.38.42-.61c.68-1.52.85-3.26.46-4.88"/>
        <path d="m87.23,27.75c-.68,2.05-.75,4.3-.23,6.4.18.74.55,1.35,1.28,1.65.8.34,1.74.08,2.33-.54.43-.46.67-1.07.88-1.65.16-.44.28-.9.36-1.36.21-1.28.19-2.54-.1-3.82-.17-.77-1.1-1.29-1.85-1.05-.8.26-1.23,1.02-1.05,1.85.03.14.06.28.09.43l.02.11c.03.17.02.14,0-.08.09.19.05.56.05.76,0,.22,0,.43-.02.65,0,.13-.02.25-.03.38-.01.12,0,.07.02-.13-.01.07-.02.14-.04.21-.08.47-.22.91-.38,1.36-.11.3.13-.27-.03.09-.01.03-.16.29-.16.29.14-.16.17-.2.09-.12-.08.08-.04.05.13-.1.39-.24.84-.09,1.14.21.14.09.23.22.26.39-.02-.05-.03-.11-.05-.16-.03-.11-.06-.22-.08-.33-.05-.24-.16-.53-.15-.77l.02.18c0-.07-.02-.15-.03-.22-.01-.11-.02-.22-.03-.34-.02-.26-.03-.52-.02-.79s.02-.52.04-.79c0-.11,0-.23.04-.34-.1.37,0,.04.01-.05.09-.52.22-1.03.38-1.53.25-.75-.29-1.67-1.05-1.85-.83-.19-1.58.25-1.85,1.05h0Z"/>
      </g>
      <g>
        <path class="cls-1" d="m53.4,29.99c-.14.79-.22,1.59-.24,2.39-.03.94.06,1.97.69,2.67.26.29.65.51,1.03.45.52-.08.84-.6,1.02-1.09.38-1.04.45-2.18.21-3.26-.08-.33-.18-.66-.41-.91s-.58-.41-.9-.31c-.01.1-.02.2-.04.29"/>
        <path d="m51.95,29.59c-.4,2.3-.82,5.48,1.43,7,.68.46,1.56.52,2.3.21.62-.26,1.12-.78,1.41-1.38.53-1.11.76-2.4.63-3.63-.08-.75-.2-1.56-.64-2.2-.6-.89-1.61-1.36-2.68-1.11-.31.07-.59.29-.78.54-.22.28-.28.55-.32.91-.01.1-.02.2-.04.29-.04.35.2.82.44,1.06.26.26.69.46,1.06.44s.79-.14,1.06-.44c.29-.31.39-.64.44-1.06.01-.1.02-.2.04-.29l-1.1,1.45c-.26.02-.32.03-.15.03-.16,0-.3-.03-.44-.12.05.02.1.05.15.09-.19-.15-.23-.18-.11-.07-.14-.19-.16-.21-.08-.08.07.14.06.1-.03-.11-.01.08.09.26.11.35.03.13.05.26.08.38.03.17.02.13,0-.1,0,.07.01.13.02.2.02.23.03.47.02.7,0,.13-.02.27-.03.4-.02.17-.01.13.01-.1-.01.07-.02.13-.03.2-.05.26-.12.52-.21.77-.02.06-.04.11-.06.17.1-.23.12-.28.05-.14-.04.08-.14.2-.16.28.16-.19.19-.23.09-.12-.03.04-.07.07-.11.11.21-.15.25-.19.12-.11.24-.09.3-.11.18-.08-.11.03-.05.02.2-.02-.16,0-.11,0,.15.03-.15-.04-.11-.02.12.07-.05-.02-.1-.05-.15-.08-.13-.09-.1-.06.1.08-.04-.04-.08-.08-.12-.12-.1-.12-.08-.08.07.11-.03-.05-.06-.09-.09-.14-.03-.05-.06-.1-.08-.15-.07-.14-.05-.1.05.13-.02-.11-.08-.22-.11-.32-.03-.11-.05-.22-.07-.33-.06-.29.04.38,0,.01-.04-.48-.03-.97,0-1.46.02-.29.04-.58.08-.87,0-.07.02-.14.03-.22-.03.22-.03.24,0,.07.02-.14.05-.29.07-.43.07-.41.06-.79-.15-1.16-.18-.31-.54-.61-.9-.69-.73-.17-1.7.22-1.85,1.05h0Z"/>
      </g>
      <g>
        <path class="cls-1" d="m69.99,2.7c-3.91-.09-7.87.25-11.59,1.48-3.71,1.23-7.18,3.41-9.54,6.53-.96,1.27-1.74,2.72-1.94,4.3s.25,3.29,1.44,4.36,3.14,1.29,4.38.29"/>
        <path d="m69.99,1.2c-7.57-.14-15.76,1.4-21.13,7.19-2.3,2.47-4.26,5.92-3.19,9.39.99,3.2,4.84,5.29,7.82,3.17,1.56-1.11.06-3.71-1.51-2.59-.9.64-2.04.54-2.8-.29-.82-.89-.94-2.25-.68-3.38.57-2.49,2.65-4.64,4.63-6.13,4.83-3.62,10.98-4.47,16.86-4.36,1.93.04,1.93-2.96,0-3h0Z"/>
      </g>
      <g>
        <path class="cls-1" d="m77.23,5.75c-3.46-1.11-7.3-.68-10.67.67-3.38,1.36-6.34,3.58-9,6.06-.61.57-1.23,1.19-1.44,2-.2.79.03,1.64.4,2.37,1.01,1.99,3.11,3.37,5.34,3.53s4.5-.93,5.77-2.76c.12-.17.24-.36.27-.57.08-.59-.74-1.07-1.21-.7"/>
        <path d="m77.62,4.3c-7.49-2.28-14.83,1.5-20.33,6.38-1.26,1.12-2.64,2.34-2.75,4.14-.11,1.7.81,3.36,1.95,4.57,2.26,2.38,5.82,3.13,8.84,1.86,1.55-.65,3.59-2.05,3.99-3.81.45-1.99-1.78-3.25-3.42-2.4s-.2,3.48,1.51,2.59l.04.02h-.8c.3-.14.19-.41-.35-.8-.08.11-.17.22-.26.32-.27.22-.48.5-.77.71-.49.36-1.05.64-1.64.81-1.18.34-2.41.24-3.51-.3s-2.06-1.45-2.46-2.59c-.51-1.45,1.06-2.41,2.01-3.24,4.66-4.07,10.84-7.29,17.13-5.37,1.85.56,2.64-2.33.8-2.89h0Z"/>
      </g>
    </g>
  </g>
</svg>