<?xml version="1.0" encoding="UTF-8"?>
<svg id="_레이어_2" data-name="레이어 2" xmlns="http://www.w3.org/2000/svg" viewBox="0 0 145.79 96.75">
  <defs>
    <style>
      .cls-1 {
        fill: #fff;
      }
    </style>
  </defs>
  <g id="_레이어_1-2" data-name="레이어 1">
    <g>
      <g>
        <g>
          <path class="cls-1" d="m17.06,45.42c-.36-2.62-.9-5.3-2.37-7.49s-4.1-3.8-6.7-3.36c-3.63.62-5.55,4.67-6.14,8.31-1.2,7.41.68,15.14,4.48,21.61,1.11,1.89,2.41,3.71,4.18,5.01s4.06,2.01,6.18,1.49c3.75-.92,5.65-5.18,6.07-9.02"/>
          <path d="m18.5,45.02c-.75-5.24-3.13-11.74-9.4-12.02-5.33-.23-8.09,5.41-8.77,9.9-.9,6,.06,12.14,2.4,17.72,2.11,5.02,5.51,11.24,11.52,11.96s9.37-5.37,10-10.62c.23-1.91-2.77-1.9-3,0-.39,3.29-2.21,7.83-6.19,7.69-4.77-.16-7.54-5.63-9.24-9.39-1.97-4.35-3-9.17-2.82-13.95.12-3.33.82-8.6,4.43-10.05,2.12-.85,4.44.43,5.74,2.11,1.62,2.1,2.07,4.89,2.44,7.44.27,1.9,3.16,1.09,2.89-.8h0Z"/>
        </g>
        <g>
          <path class="cls-1" d="m124.76,36.59c1.06-3.41,3.68-6.41,7.08-7.51s7.51-.05,9.65,2.81c1.22,1.63,1.74,3.66,2.1,5.66.91,5.05.91,10.27,0,15.33-.7,3.87-2.07,7.86-5.06,10.41-3.61,3.07-9.32,3.31-13.17.57"/>
          <path d="m126.21,36.99c1.13-3.44,4.06-6.57,7.84-6.82,1.74-.11,3.54.32,4.96,1.36,1.59,1.16,2.34,2.97,2.8,4.82,1.17,4.73,1.25,9.89.56,14.7-.56,3.89-1.6,8.16-4.62,10.91-3.18,2.9-8.17,2.97-11.65.59-1.6-1.09-3.1,1.51-1.51,2.59,3.85,2.64,9.16,2.79,13.21.47,4.4-2.53,6.37-7.59,7.24-12.34,1.05-5.79,1.09-11.99-.33-17.72-1.18-4.79-4.72-8.23-9.79-8.4-5.52-.18-9.96,4.04-11.6,9.04-.6,1.84,2.29,2.63,2.89.8h0Z"/>
        </g>
        <g>
          <path class="cls-1" d="m70.38,6.38c-11.71-3.19-24.56-4.11-35.73.64-11.17,4.76-20,16.28-18.78,28.36"/>
          <path d="m70.78,4.94c-10.35-2.79-21.56-3.95-32-.96-8.91,2.55-16.87,8.43-21.26,16.69-2.4,4.51-3.61,9.61-3.14,14.71.18,1.91,3.18,1.92,3,0-.78-8.43,3.36-16.32,9.6-21.78,7.19-6.3,16.84-8.57,26.22-8.37,5.69.12,11.31,1.11,16.79,2.59,1.87.5,2.66-2.39.8-2.89h0Z"/>
        </g>
        <g>
          <path class="cls-1" d="m70.6,4.7c6.66-3.78,14.83-3.55,22.43-2.63,5.85.71,11.74,1.79,17.07,4.28,5.34,2.49,10.13,6.55,12.53,11.93,2.31,5.18,2.23,11.06,2.02,16.72"/>
          <path d="m71.36,5.99c4.14-2.3,8.84-3.01,13.53-3s9.74.62,14.48,1.56c8.66,1.71,17.86,5.67,21.81,14.13,2.36,5.05,2.18,10.88,1.97,16.31-.07,1.93,2.93,1.93,3,0,.2-5.3.29-10.83-1.57-15.88-1.64-4.44-4.66-8.09-8.43-10.91-4.06-3.03-8.88-4.91-13.78-6.07S91.88.22,86.61.03c-5.78-.21-11.65.53-16.77,3.37-1.69.94-.18,3.53,1.51,2.59h0Z"/>
        </g>
        <g>
          <path class="cls-1" d="m19.76,52.59c.54,13.68,6.09,27.83,17.38,35.56,13.14,9.01,30.54,7.57,46.35,5.63,7.77-.95,15.75-2.01,22.64-5.73,7.29-3.94,12.83-10.66,16.31-18.18,3.45-7.46,4.98-15.8,4.42-24"/>
          <path d="m18.26,52.59c.43,10,3.28,20.22,9.33,28.32,6.36,8.51,15.7,13.46,26.11,15.05s22.02.36,32.88-1.07c5.85-.77,11.7-1.75,17.17-4.05,4.95-2.09,9.34-5.3,12.9-9.32,8.53-9.63,12.53-22.88,11.71-35.64-.12-1.92-3.12-1.93-3,0,.7,10.91-2.22,22.04-8.71,30.9-2.91,3.96-6.62,7.39-10.92,9.79-4.92,2.74-10.49,4.01-16.01,4.88-10.22,1.6-20.86,2.88-31.21,2.07s-19.4-4.14-26.19-11.56c-7.23-7.9-10.6-18.82-11.05-29.37-.08-1.92-3.08-1.93-3,0h0Z"/>
        </g>
        <g>
          <path class="cls-1" d="m39.98,16.24c-2.32,10.86-9.44,20.6-19.09,26.1"/>
          <path d="m38.53,15.84c-2.31,10.55-9.04,19.81-18.4,25.21-1.67.96-.16,3.56,1.51,2.59,9.99-5.76,17.31-15.73,19.78-27,.41-1.88-2.48-2.69-2.89-.8h0Z"/>
        </g>
        <g>
          <path class="cls-1" d="m60.91,16.24c-1.95,5.09-5.51,9.55-10.04,12.58-1.56,1.04-3.75,1.89-5.19.69-.81-.67-1.09-1.82-.97-2.87s.58-2.02,1.03-2.96c1.64-3.45,3.27-6.9,4.91-10.35-2.07,4.51-5.26,8.51-9.22,11.51-.85.64-1.93,1.27-2.92.87-.88-.36-1.26-1.37-1.47-2.3-.66-2.97-.44-6.14.62-8.99"/>
          <path d="m59.46,15.84c-1.01,2.58-2.46,5.02-4.27,7.13-1.69,1.98-3.8,4.06-6.18,5.19-.94.45-2.42.85-2.77-.51s.63-2.89,1.19-4.07c1.5-3.16,3-6.32,4.5-9.49l-2.59-1.51c-1.81,3.88-4.36,7.31-7.61,10.1-.52.45-1.87,1.86-2.62,1.63-.64-.2-.75-1.84-.83-2.38-.33-2.42,0-4.82.82-7.11.65-1.82-2.25-2.61-2.89-.8-1.07,3-1.32,6.23-.71,9.36.53,2.72,2.56,4.86,5.46,3.5,2.44-1.15,4.63-3.53,6.34-5.56,1.86-2.2,3.42-4.62,4.63-7.23.81-1.74-1.76-3.26-2.59-1.51-1.85,3.9-3.94,7.78-5.55,11.79-.65,1.61-.93,3.5-.05,5.1s2.57,2.31,4.34,2.08c3.34-.43,6.41-3.36,8.59-5.73,2.47-2.68,4.35-5.78,5.67-9.17.7-1.8-2.2-2.58-2.89-.8h0Z"/>
        </g>
        <g>
          <path class="cls-1" d="m61.65,16.87c1.44,5.72,3.06,11.76,7.32,15.84,1.55,1.48,4.19,2.59,5.69,1.05.63-.65.83-1.58.96-2.47.83-5.81-.57-11.69-1.97-17.39,1.1,8.73,9.36,15.95,18.16,15.89.9,0,1.87-.11,2.54-.71,1.29-1.16.7-3.26.01-4.85-1.29-2.99-2.59-5.97-3.88-8.96,2.22,4.53,5.78,8.39,10.11,10.98.98.58,2.38,1.04,3.12.18.35-.41.4-1,.43-1.54.16-3.17.05-6.36-.32-9.51"/>
          <path d="m60.2,17.27c.96,3.83,1.98,7.69,3.81,11.21,1.61,3.09,4.22,6.81,7.91,7.44,1.8.31,3.55-.38,4.47-2.01,1.01-1.82.98-4.38.97-6.39-.02-4.75-1.15-9.42-2.27-14.01-.47-1.93-3.15-1.05-2.89.8.81,5.91,4.64,11.16,9.72,14.2,3.46,2.07,15.41,5.9,14.66-1.86-.19-1.99-1.21-3.83-1.99-5.64-.94-2.16-1.88-4.33-2.81-6.49l-2.59,1.51c2.35,4.69,6.31,9.43,11.11,11.77,2.49,1.21,5.03.38,5.32-2.58.31-3.24.07-6.61-.3-9.84-.21-1.9-3.22-1.92-3,0,.28,2.53.42,5.07.38,7.61-.01.63,0,1.28-.06,1.9-.06.57.09.49-.34.48-.8-.02-1.83-.95-2.45-1.39-3.46-2.41-6.19-5.72-8.07-9.47-.88-1.76-3.34-.22-2.59,1.51.84,1.94,1.68,3.88,2.52,5.82.68,1.56,1.84,3.4,1.9,5.14.11,2.75-6.49.66-7.87.09-5.62-2.32-9.81-7.55-10.64-13.58l-2.89.8c.91,3.73,1.84,7.48,2.09,11.32.12,1.86.15,3.81-.19,5.65-.3,1.63-1.15,2.08-2.66,1.36-2.65-1.25-4.39-4.53-5.52-7.08-1.29-2.9-2.06-6.01-2.83-9.08-.47-1.87-3.37-1.08-2.89.8h0Z"/>
        </g>
        <g>
          <path class="cls-1" d="m105.72,15.35c2.82,6.13,5.63,12.27,8.83,18.22,1.21,2.26,2.65,4.66,5.04,5.62"/>
          <path d="m104.43,16.11c2.18,4.74,4.35,9.48,6.7,14.14,1.83,3.63,3.7,8.49,7.7,10.24,1.75.77,3.28-1.82,1.51-2.59s-2.86-2.22-3.81-3.84c-1.17-1.99-2.19-4.08-3.22-6.14-2.19-4.39-4.24-8.86-6.29-13.32-.8-1.75-3.39-.23-2.59,1.51h0Z"/>
        </g>
        <g>
          <path class="cls-1" d="m37.26,50.68c-5.04,2.4-8.17,8.49-6.77,13.89.45,1.74,1.31,3.35,2.37,4.8,3.56,4.85,9.63,7.86,15.63,7.35s11.62-4.7,13.46-10.43c1.84-5.73-.48-12.63-5.6-15.78-3.8-2.34-8.55-2.55-12.99-2.07-1.78.19-3.57.49-5.19,1.26"/>
          <path d="m36.5,49.39c-5.7,2.82-9.2,9.77-7.35,15.98,2.03,6.82,8.8,11.83,15.7,12.74s13.41-2.29,16.95-7.98,2.8-12.92-1.32-17.96c-2.49-3.04-6.17-4.67-10-5.2-4.24-.58-9.14-.34-13.08,1.43-1.76.79-.23,3.37,1.51,2.59,2.95-1.32,6.73-1.42,9.91-1.2,2.89.21,5.9,1.05,8.11,3.01,3.86,3.42,5.22,9.32,3.19,14.08s-7.43,8.34-12.8,8.4c-5.67.06-11.22-3.19-14.1-8.05-3.28-5.53-.92-12.44,4.77-15.26,1.73-.86.21-3.44-1.51-2.59h0Z"/>
        </g>
        <g>
          <path class="cls-1" d="m88.94,48.45c-5.11,3.02-7.73,9.62-6.29,15.38s6.68,10.3,12.56,11.14,12.07-1.95,15.54-6.77c1.56-2.16,2.6-4.69,3.02-7.32.53-3.29.02-6.84-1.9-9.56-1.97-2.79-5.24-4.46-8.6-5.08s-6.82-.3-10.19.23"/>
          <path d="m88.18,47.15c-5.23,3.19-8.1,9.46-7.27,15.5s5.72,11.41,11.65,13.24,13.07-.19,17.57-4.67c4.84-4.83,6.97-12.8,3.95-19.13-1.62-3.39-4.86-5.67-8.37-6.8-4.22-1.36-8.72-.95-13.02-.29-1.9.29-1.09,3.19.8,2.89,5.67-.88,12.9-1.13,16.88,3.87,3.67,4.62,2.22,11.8-1.23,16.1-3.24,4.04-8.7,6.41-13.87,5.59s-9.49-4.51-10.97-9.35c-1.63-5.32.65-11.47,5.41-14.37,1.65-1,.14-3.6-1.51-2.59h0Z"/>
        </g>
        <g>
          <path class="cls-1" d="m69.57,71.41c-.75.58-1.09,1.53-1.36,2.43-.2.64-.38,1.31-.35,1.98s.32,1.37.89,1.73c.39.25.87.32,1.34.37.95.11,1.9.19,2.85.23,1.64.08,3.4.02,4.75-.93.21-.15.42-.33.52-.58.08-.21.08-.43.06-.65-.17-2.16-1.45-4.2-3.32-5.28-.81-.47-1.85-.76-2.67-.29"/>
          <path d="m68.51,70.35c-.86.71-1.32,1.76-1.65,2.79-.37,1.14-.65,2.35-.38,3.54.29,1.27,1.26,2.26,2.51,2.57,1.19.3,2.52.33,3.74.39,2.12.11,4.72,0,6.31-1.62.95-.97.78-2.37.47-3.58-.25-.96-.69-1.9-1.29-2.71-1.48-2.01-4.18-3.91-6.71-2.62-.72.37-.93,1.38-.54,2.05.43.73,1.33.91,2.05.54-.16.08.23-.06,0-.02.1-.01.22-.01.32,0-.04,0-.17-.03,0,0,.16.03.33.08.48.14.25.1-.13-.07.11.05.1.05.19.1.29.16.13.08.26.16.39.25.02.02.27.21.16.11-.1-.08.09.08.09.08.26.25.52.49.75.77.16.18,0-.01.14.19.1.15.2.3.29.46.08.13.15.27.22.41.03.07.07.14.1.21-.08-.18.03.08.05.14.11.31.21.64.27.96.01.07.06.43.04.21.02.2-.04.81.09.19.03-.12.14-.13-.05,0-.14.09-.29.17-.44.25-.17.09-.1.05-.34.13-.19.06-.38.11-.57.15-.31.07-.46.08-.87.11s-.8.02-1.21.01c-.89-.03-1.78-.09-2.67-.18-.44-.04-.6-.04-.99-.15-.05-.01-.18-.07-.17-.06-.01,0-.08-.11-.09-.13,0,.01-.09-.3-.11-.42.01.11,0,.18.02-.1,0-.12,0-.24.02-.36.03-.23.2-.77.3-1.11.06-.18.11-.35.17-.53.04-.1.07-.2.11-.3-.06.14.02-.03.04-.08.1-.18.19-.37.32-.54-.11.13.25-.22.3-.26.62-.52.54-1.59,0-2.12-.62-.62-1.5-.52-2.12,0h0Z"/>
        </g>
        <g>
          <path class="cls-1" d="m64.71,84.7c.61,1.39,1.89,2.42,3.32,2.94s2.99.58,4.5.41c3.73-.4,7.31-2.12,9.94-4.79"/>
          <path d="m63.42,85.46c1.83,3.87,6.44,4.53,10.23,3.95s7.22-2.43,9.89-5.09c1.37-1.36-.75-3.49-2.12-2.12-2.12,2.11-4.78,3.55-7.71,4.16-2.74.57-6.33.47-7.7-2.42-.35-.73-1.4-.92-2.05-.54-.75.44-.89,1.32-.54,2.05h0Z"/>
        </g>
      </g>
      <g>
        <path class="cls-1" d="m45.68,72.02c-.69.9-1.15,2.25-.41,3.11.62.71,1.94.58,2.4-.24s-.1-2.02-1.03-2.19c-.23-.04-.48.35-.25.32"/>
        <path d="m44.38,71.26c-.33.44-.56.93-.75,1.44-.07.19-.13.4-.16.6-.05.31-.1.63-.07.95.02.21.04.42.09.63s.14.41.23.6c.12.28.32.55.54.76.38.39.92.69,1.47.78.3.05.58.09.88.05.38-.05.66-.1,1-.25.57-.24,1.09-.65,1.38-1.21.62-1.17.36-2.58-.53-3.54-.14-.15-.32-.28-.48-.4-.07-.06-.15-.11-.24-.15-.49-.24-1.03-.41-1.58-.26-.6.16-1.11.66-1.29,1.25-.12.39-.07.89.15,1.24.19.29.41.49.73.62.2.09.42.15.65.14.4-.02.78-.15,1.06-.44.26-.26.46-.69.44-1.06s-.14-.79-.44-1.06-.66-.46-1.06-.44c-.02,0-.03,0-.05,0l.4.05h-.02c.22.12.44.25.66.38h-.01c.08.09.16.19.23.29h0c.05.11.1.23.15.34v-.02c.01.13.03.27.05.4v-.02c-.02.13-.04.27-.05.4,0-.01,0-.03.01-.04l-.15.36s.02-.05.04-.07l-.23.3s.05-.06.09-.08l-.3.23s.05-.03.08-.04l-.36.15s.04-.01.06-.01l-.4.05s.04,0,.06,0l-.4-.05c.09.02.17.04.25.07l-.36-.15c.12.05.22.11.32.19l-.3-.23c.1.08.19.17.26.27l-.23-.3c.09.12.17.25.23.39l-.15-.36c.05.13.09.26.11.4l-.05-.4c.02.14.02.27,0,.41l.05-.4c-.02.11-.05.22-.09.32l.15-.36c-.04.1-.1.2-.17.29l.23-.3c-.07.09-.15.16-.23.23l.3-.23c-.1.07-.2.13-.31.18l.36-.15c-.14.06-.28.1-.42.12l.4-.05c-.16.02-.32.02-.48,0l.4.05c-.13-.02-.26-.06-.39-.11l.36.15c-.1-.04-.19-.1-.28-.16l.3.23c-.09-.07-.17-.15-.24-.25l.23.3c-.08-.11-.14-.22-.19-.34l.15.36c-.05-.13-.09-.27-.11-.41l.05.4c-.02-.19-.02-.38,0-.57l-.05.4c.04-.28.12-.54.22-.8l-.15.36c.14-.33.32-.64.54-.93s.24-.82.15-1.16-.36-.73-.69-.9c-.35-.18-.77-.28-1.16-.15l-.36.15c-.23.13-.4.31-.54.54h0Z"/>
      </g>
      <g>
        <path class="cls-1" d="m98.52,70.57c-.88.54-1.13,1.91-.46,2.69s2.11.71,2.66-.17-.11-2.24-1.14-2.32"/>
        <path d="m97.76,69.27c-.98.63-1.58,1.72-1.58,2.89,0,.56.15,1.15.43,1.64.1.17.23.32.35.47.06.07.11.13.18.19.2.18.42.36.66.47s.51.24.79.29.56.1.83.08.57-.05.84-.13.53-.19.76-.34.45-.31.63-.51c.29-.34.45-.61.6-1.02.2-.52.18-1.11.07-1.65-.06-.29-.19-.58-.32-.84s-.32-.49-.52-.7c-.14-.14-.31-.26-.47-.38-.07-.05-.15-.1-.22-.14-.43-.21-.74-.29-1.21-.33-.36-.03-.81.19-1.06.44s-.46.69-.44,1.06.14.79.44,1.06l.3.23c.23.14.49.2.76.2.02,0,.04,0,.06,0l-.4-.05c.12.02.22.05.33.09l-.36-.15c.1.05.2.1.29.17l-.3-.23c.11.08.2.18.29.29l-.23-.3c.09.12.16.25.22.39l-.15-.36c.06.14.1.28.12.43l-.05-.4c.02.15.02.29,0,.44l.05-.4c-.02.11-.05.23-.09.33l.15-.36c-.04.1-.1.19-.16.28l.23-.3c-.08.1-.17.19-.27.27l.3-.23c-.1.08-.21.14-.33.19l.36-.15c-.15.06-.3.1-.46.13l.4-.05c-.17.02-.34.02-.52,0l.4.05c-.15-.02-.29-.06-.43-.12l.36.15c-.13-.05-.25-.12-.36-.21l.3.23c-.09-.07-.18-.16-.25-.25l.23.3c-.08-.11-.15-.22-.2-.35l.15.36c-.06-.15-.1-.29-.12-.45l.05.4c-.02-.17-.02-.34,0-.5l-.05.4c.03-.18.07-.35.14-.52l-.15.36c.06-.15.14-.28.24-.41l-.23.3c.09-.12.19-.22.31-.31l-.3.23s.09-.07.14-.1c.33-.21.59-.52.69-.9s.05-.84-.15-1.16-.51-.6-.9-.69-.81-.07-1.16.15h0Z"/>
      </g>
    </g>
  </g>
</svg>