<?xml version="1.0" encoding="UTF-8"?>
<svg id="_레이어_2" data-name="레이어 2" xmlns="http://www.w3.org/2000/svg" viewBox="0 0 115.22 106.17">
  <defs>
    <style>
      .cls-1 {
        fill: #fff;
      }
    </style>
  </defs>
  <g id="_레이어_1-2" data-name="레이어 1">
    <g>
      <g>
        <path class="cls-1" d="m37.27,31.36c-2.97,3.19-3.71,8.01-3.47,12.11.16,2.81,1.32,5.46.69,8.28-1.46,6.6-8.17,15.35-15.15,17.52-3.47,1.08-7.31,1.55-10.12,3.75-2.63,2.05-3.89,5.32-4.14,8.52-.85,10.7,8.98,20.44,20.2,22.54s22.94-2.15,31.85-8.88c15.24-11.52,23.59-30.59,21.36-48.83-.45-3.66-1.34-7.39-3.6-10.4-4.18-5.56-11.96-7.46-19.14-8.4-6.53-.85-14.16-.87-18.5,3.79Z"/>
        <path d="m36.21,30.3c-2.83,3.15-3.91,7.35-3.95,11.51-.02,2.27.5,4.41.81,6.64.28,2.03-.16,3.89-.93,5.77-1.49,3.63-3.92,6.95-6.79,9.61-1.39,1.29-2.93,2.42-4.63,3.27-1.79.9-3.8,1.27-5.72,1.79-4.09,1.1-7.91,2.88-9.88,6.86-1.71,3.45-1.97,7.48-1.12,11.21,1.69,7.46,7.79,13.52,14.62,16.57,16.27,7.26,35.27-1.44,46.59-13.61,11.06-11.89,16.92-28.57,14.61-44.76-.62-4.31-2.04-8.57-5.16-11.73-2.75-2.79-6.42-4.51-10.13-5.62-3.91-1.17-8.05-1.79-12.12-2.08s-7.97-.09-11.6,1.43c-1.75.73-3.31,1.77-4.62,3.13s.78,3.52,2.12,2.12c5.11-5.32,14.26-4.03,20.78-2.82,3.6.67,7.23,1.65,10.38,3.56,3.4,2.05,5.61,5.14,6.67,8.96,2,7.18,1.45,15.27-.37,22.43s-5.32,14.3-10.06,20.2c-9.67,12.05-26.51,21.86-42.36,17.35-6.61-1.88-12.86-6.61-15.57-13.05-1.32-3.14-1.71-6.74-.75-10.04.52-1.8,1.48-3.48,2.93-4.68,1.54-1.28,3.52-1.9,5.42-2.43,3.61-.99,6.91-1.86,9.94-4.16s5.48-5.11,7.44-8.28c1.83-2.94,3.58-6.56,3.36-10.11-.13-2.1-.78-4.13-.87-6.23-.09-1.89.04-3.8.5-5.63s1.26-3.61,2.55-5.05-.83-3.56-2.12-2.12Z"/>
      </g>
      <g>
        <g>
          <path class="cls-1" d="m33.26,78.85c-1.83,6.89.17,14.68,5.11,19.83,1.59,1.66,3.53,3.09,5.77,3.61,3.53.83,7.27-.72,9.96-3.14,2.69-2.43,4.52-5.64,6.3-8.79,2.1,5.54,9.99,7.06,15.06,4,5.08-3.05,7.57-9.15,8.25-15.04,6.23.96,12.52-5.06,11.84-11.33"/>
          <path d="m31.81,78.45c-1.7,6.64-.27,13.93,3.9,19.4,2.09,2.74,4.94,5.31,8.42,5.98s7.13-.57,9.94-2.72c3.39-2.59,5.56-6.34,7.62-9.99l-2.74-.36c2.38,5.92,9.69,8.03,15.39,5.8,6.93-2.71,10.02-10.35,10.86-17.23l-1.5,1.5c7.1.95,13.97-5.72,13.34-12.83-.17-1.91-3.17-1.93-3,0,.5,5.64-4.76,10.57-10.34,9.83-.87-.12-1.41.79-1.5,1.5-.66,5.43-3.1,11.85-8.45,14.24-3.96,1.77-10.12.84-11.91-3.61-.45-1.13-2.05-1.58-2.74-.36-1.95,3.45-4,7.22-7.36,9.5s-7.33,2.59-10.65.03c-5.87-4.52-8.19-12.86-6.39-19.89.48-1.87-2.41-2.67-2.89-.8h0Z"/>
        </g>
        <g>
          <path class="cls-1" d="m75.8,7.14c-9.35-2.9-18.88-5.82-28.67-5.68C26.36,1.77,6.83,17.69,2.34,37.98c-1.01,4.58-1.32,9.43.03,13.92,1.32,4.37,4.13,8.16,7.33,11.42,9.56,9.7,23.18,15.27,36.79,15.03"/>
          <path d="m76.2,5.69C64.73,2.14,52.84-1.37,40.73.54c-9.49,1.5-18.4,6.12-25.45,12.61S2.97,28.2.89,37.58c-1.3,5.89-1.38,12.01,1.13,17.59,2.26,5.03,6.27,9.29,10.51,12.74,9.53,7.78,21.66,12.09,33.97,11.93,1.93-.03,1.93-3.03,0-3-10.29.13-20.46-3.02-28.92-8.86-4.23-2.92-8.23-6.58-11.06-10.89-3.17-4.84-4.08-10.35-3.23-16.03C5.99,23,20.98,8.04,38.57,4.01c12.48-2.86,24.95.9,36.83,4.58,1.85.57,2.64-2.32.8-2.89h0Z"/>
        </g>
        <g>
          <path class="cls-1" d="m45.48,16.17c5.9-5.26,14.16-7.39,22.05-6.92,7.89.47,15.48,3.31,22.48,6.99,6.75,3.55,13.19,8,17.77,14.09,4.58,6.1,7.1,14.03,5.48,21.48-1.39,6.37-5.86,12-11.75,14.8-5.89,2.8-13.08,2.71-18.9-.24"/>
          <path d="m46.55,17.23c13.59-11.9,33.46-5.51,47.07,2.76,7.03,4.27,13.57,10.03,16.72,17.81,2.99,7.36,2.55,15.86-2.67,22.12-5.9,7.06-16.01,9.25-24.29,5.16-1.73-.85-3.25,1.73-1.51,2.59,8.14,4.02,18.03,3.04,25.06-2.77s9.49-14.42,7.81-22.92c-1.83-9.21-8.14-16.59-15.59-21.94s-16.82-9.91-26.11-11.62c-9.99-1.84-20.78-.17-28.61,6.68-1.45,1.27.67,3.39,2.12,2.12h0Z"/>
        </g>
        <g>
          <path class="cls-1" d="m78.64,36.69c1.11-.19,2.18.4,3.15.97.61.36,1.23.73,1.65,1.29s.59,1.37.22,1.97c-.55.89-1.84.83-2.85.59-.68-.16-1.38-.37-1.94-.79s-.98-1.1-.92-1.8c0-.11.07-.25.18-.24"/>
          <path d="m79.04,38.14s-.36.02-.1.02c.05,0,.1,0,.15,0,.07,0,.13,0,.2,0,.17,0-.15,0-.15-.02,0,0,.67.18.73.2.05.02.26.1.06.02-.19-.08-.03-.01.01,0,.11.05.22.11.33.16.23.12.46.25.68.38.19.11.38.22.56.34.1.07.21.13.31.2.04.03.07.05.11.08.15.1-.28-.25-.05-.04.08.07.16.14.23.22.1.1.21.33.03,0,.05.09.12.17.17.26.02.04.04.09.06.12-.07-.08-.11-.31-.04-.07.01.04.02.09.03.13.07.23-.02-.1-.01-.14,0,.06-.02.43.02.15.04-.3-.06.1-.05.13,0-.02.15-.27.06-.16-.17.21.09-.03.08-.09,0,.04-.3.27-.05.07.22-.17-.02,0-.08.03-.2.12.35-.11.06-.03-.09.02-.19.04-.28.07-.18.04.36-.02.18-.03-.04,0-.08,0-.11,0-.09,0-.18,0-.27,0s-.18,0-.27-.01c-.04,0-.12,0-.16-.02.03,0,.38.06.17.02-.43-.08-.86-.18-1.28-.32-.05-.02-.09-.03-.14-.05-.22-.08-.06-.05.05.03-.1-.07-.23-.11-.34-.17s-.21-.15-.32-.21c.03.02.27.24.1.07-.04-.04-.09-.08-.13-.12,0,0-.09-.13-.12-.13.05.02.18.27.08.09-.03-.05-.06-.1-.09-.15-.14-.21.07.24.03.08-.02-.07-.1-.44-.06-.18.03.24,0,.08.01.03,0-.13,0-.12-.02.03-.02.23-.12.44-.3.62l-.66.39h.06c.35-.06.73-.41.9-.7.19-.32.27-.8.15-1.16s-.34-.71-.69-.9c-.38-.2-.73-.21-1.16-.15-.71.11-1.17.83-1.26,1.49-.06.44-.02.9.13,1.32.3.84.83,1.48,1.55,2,.58.42,1.29.66,1.98.84.59.15,1.21.27,1.82.28,1.48.02,3.01-.76,3.33-2.32.18-.86,0-1.8-.48-2.54-.43-.66-1.02-1.15-1.67-1.58-.6-.39-1.22-.75-1.87-1.04-.43-.19-.86-.36-1.33-.44-.6-.11-1.09-.09-1.69,0-.35.05-.73.4-.9.69-.19.32-.27.8-.15,1.16s.34.71.69.9c.38.2.73.22,1.16.15h0Z"/>
        </g>
        <g>
          <path class="cls-1" d="m86.23,17.96c1.36-.37,2.75.39,3.96,1.11.6.36,1.27.83,1.32,1.52.04.54-.35,1.05-.84,1.3s-1.06.26-1.6.2c-1.26-.13-2.61-.78-3-1.98"/>
          <path d="m86.63,19.41c.06-.02.44-.09.17-.04-.25.04.06,0,.13,0,.11,0,.22,0,.33.01.05,0,.22.02-.01,0-.26-.03.02,0,.08.02.2.04.4.1.6.17.11.04.39.21.05.01.1.06.21.1.31.14.41.2.8.43,1.19.66.15.09.29.18.44.28.21.14-.26-.22-.02-.01.08.07.15.15.22.22.1.1-.13-.15-.12-.15,0,0,.06.09.06.09.17.28-.08-.28-.02-.05.07.24-.01-.35-.01-.1s.01-.17.03-.17c0,0-.04.15-.04.15-.03-.01.19-.35.06-.15-.02.03-.04.07-.06.1-.08.14.12-.18.12-.15,0,.02-.1.1-.11.11-.17.17.27-.16.05-.04-.03.02-.07.04-.1.06-.13.09.32-.1.07-.03-.09.02-.17.05-.26.07-.26.07.12,0,.13-.01-.03.02-.1,0-.14.01-.23.01-.46,0-.68-.02-.26-.02.35.06.09.01-.09-.02-.18-.03-.27-.05-.18-.04-.35-.09-.52-.15-.04-.01-.07-.03-.11-.04-.27-.1.26.12.11.05-.09-.05-.18-.09-.27-.14-.08-.04-.15-.09-.23-.14-.02-.01-.12-.09-.12-.09.02,0,.28.24.13.09-.07-.07-.15-.13-.22-.2-.03-.03-.05-.06-.07-.08-.11-.11.22.32.08.1-.05-.07-.09-.14-.14-.22-.03-.06-.1-.22,0,.01.11.26,0,.01,0-.03-.25-.74-1.04-1.31-1.85-1.05-.74.24-1.32,1.05-1.05,1.85.39,1.14,1.23,2.05,2.34,2.54s2.49.76,3.73.43c1.5-.4,2.67-1.92,2.23-3.51-.35-1.27-1.56-1.99-2.65-2.59-1.37-.75-2.88-1.26-4.44-.87-.76.19-1.29,1.09-1.05,1.85s1.03,1.25,1.85,1.05h0Z"/>
        </g>
        <g>
          <path class="cls-1" d="m74.11,29.38c-1.15.96-2.23,2-3.24,3.11"/>
          <path d="m73.05,28.32c-1.15.96-2.23,2-3.24,3.11-.27.3-.44.66-.44,1.06,0,.37.16.81.44,1.06s.66.46,1.06.44.79-.14,1.06-.44c1-1.11,2.08-2.15,3.24-3.11.28-.23.44-.71.44-1.06,0-.37-.16-.81-.44-1.06s-.66-.46-1.06-.44l-.4.05c-.25.07-.47.2-.66.39h0Z"/>
        </g>
        <g>
          <path class="cls-1" d="m76.76,18.22c.08-1.22.34-2.42.75-3.56"/>
          <path d="m78.26,18.22c.02-.29.05-.57.09-.86l-.05.4c.13-.92.35-1.83.66-2.71.13-.35.03-.84-.15-1.16s-.54-.61-.9-.69c-.38-.09-.81-.07-1.16.15s-.55.51-.69.9c-.46,1.27-.71,2.61-.8,3.96-.03.37.19.81.44,1.06s.69.46,1.06.44.79-.14,1.06-.44.41-.65.44-1.06h0Z"/>
        </g>
        <g>
          <path class="cls-1" d="m95.64,30.2c.27-.06.56.14.6.41"/>
          <path d="m96.04,31.65s.03,0,.04,0l-.4.05s.08,0,.12,0l-.4-.05s.09.02.13.04l-.36-.15s.08.04.12.07l-.3-.23s.07.06.1.1l-.23-.3s.04.07.06.1l-.15-.36s.03.08.03.12c.05.2.14.37.27.51.11.16.25.29.42.39.17.11.36.17.56.18.2.04.4.04.6-.03l.36-.15c.23-.13.4-.31.54-.54l.15-.36c.07-.27.07-.53,0-.8,0-.04-.02-.07-.03-.11-.05-.13-.1-.27-.17-.39,0-.02-.02-.03-.03-.05-.09-.13-.18-.26-.3-.38-.01-.01-.03-.03-.04-.04-.11-.09-.22-.18-.34-.26-.03-.02-.06-.04-.09-.05-.12-.05-.25-.11-.37-.16,0,0-.02,0-.02,0-.02,0-.04-.01-.05-.02-.16-.04-.33-.06-.49-.06-.02,0-.04,0-.06,0-.13.01-.29.03-.41.06-.01,0-.02,0-.03,0-.2.05-.37.14-.51.27-.16.11-.29.25-.39.42-.11.17-.17.36-.18.56-.04.2-.04.4.03.6l.15.36c.13.23.31.4.54.54l.36.15c.27.07.53.07.8,0h0Z"/>
        </g>
        <g>
          <path class="cls-1" d="m92.67,35.12l.51.34"/>
          <path d="m91.91,36.42l.51.34c.17.11.36.17.56.18.2.04.4.04.6-.03.2-.05.37-.14.51-.27.16-.11.29-.25.39-.42l.15-.36c.07-.27.07-.53,0-.8l-.15-.36c-.13-.23-.31-.4-.54-.54l-.51-.34c-.17-.11-.36-.17-.56-.18-.2-.04-.4-.04-.6.03-.2.05-.37.14-.51.27-.16.11-.29.25-.39.42l-.15.36c-.07.27-.07.53,0,.8l.15.36c.13.23.31.4.54.54h0Z"/>
        </g>
        <g>
          <path class="cls-1" d="m104.43,34.05c-.53,3.6-2.37,6.99-5.09,9.4"/>
          <path d="m102.98,33.65c-.13.86-.33,1.71-.6,2.54-.07.21-.14.42-.22.63-.04.09-.07.19-.11.28-.17.44.06-.13-.05.12-.18.41-.38.81-.59,1.21-.2.37-.42.74-.65,1.09-.12.19-.25.37-.38.56-.06.08-.12.16-.18.24-.04.06-.21.27-.08.11-.56.7-1.18,1.35-1.85,1.95-.59.52-.57,1.59,0,2.12.63.58,1.5.56,2.12,0,2.9-2.59,4.89-6.22,5.48-10.07.12-.77-.19-1.65-1.05-1.85-.71-.16-1.72.22-1.85,1.05h0Z"/>
        </g>
        <g>
          <path class="cls-1" d="m42.86,18.71c14.56,9.47,26.46,23.88,30.25,40.83,1.02,4.55,1.41,9.45-.42,13.74"/>
          <path d="m42.11,20.01c13.48,8.81,24.77,21.92,29.01,37.69,1.33,4.96,2.14,10.29.14,15.18-.73,1.79,2.17,2.56,2.89.8,1.87-4.56,1.49-9.61.46-14.32-.92-4.2-2.36-8.28-4.19-12.17-3.66-7.79-8.99-14.79-15.23-20.69-3.57-3.37-7.46-6.4-11.56-9.09-1.62-1.06-3.13,1.54-1.51,2.59h0Z"/>
        </g>
      </g>
    </g>
  </g>
</svg>