<?xml version="1.0" encoding="UTF-8"?>
<svg id="_레이어_2" data-name="레이어 2" xmlns="http://www.w3.org/2000/svg" viewBox="0 0 131.72 105.3">
  <defs>
    <style>
      .cls-1 {
        fill: #fff;
      }
    </style>
  </defs>
  <g id="_레이어_1-2" data-name="레이어 1">
    <g>
      <g>
        <path class="cls-1" d="m110.24,43.14c1.19-2.42,2.48-4.96,4.76-6.4,4.23-2.68,10.24-.18,12.86,4.09s2.64,9.62,2.06,14.59c-.41,3.53-1.09,7.04-2.01,10.47-1.84,6.83-11.52,11.38-17.61,6.22-.5-.43-.95-1.21-.5-1.68"/>
        <path d="m111.54,43.89c.97-1.97,1.98-4.14,3.75-5.53,1.49-1.16,3.41-1.47,5.23-1.06,4.37.98,6.93,4.71,7.8,8.9,1.04,5.04.1,10.56-.96,15.52-.44,2.08-.81,4.28-1.95,6.11-.91,1.45-2.22,2.64-3.7,3.5-1.65.97-3.54,1.54-5.46,1.5-.97-.02-1.94-.2-2.85-.56-.41-.16-.8-.37-1.17-.6-.23-.14-.46-.28-.67-.45l-.21-.17c-.22-.33-.3-.28-.26.13,1-1.66-1.6-3.17-2.59-1.51-1.53,2.56,1.84,4.59,3.82,5.38,2.14.86,4.48.96,6.72.5,4.43-.9,8.45-4.16,10.03-8.42,1.15-3.1,1.65-6.61,2.1-9.87s.73-6.27.41-9.4c-.58-5.61-3.23-10.79-8.68-12.95-2.6-1.03-5.57-1.07-8.08.21-2.89,1.47-4.5,4.48-5.87,7.26-.85,1.73,1.74,3.25,2.59,1.51h0Z"/>
      </g>
      <g>
        <path class="cls-1" d="m18.86,46.18c-.61,8.44-1.22,16.97.08,25.33s4.69,16.67,10.95,22.36c6,5.46,14.1,8.07,22.13,9.23,20.17,2.92,42.26-3.27,55.48-18.79,13.21-15.52,15.13-40.66,1.86-56.13"/>
        <path d="m17.36,46.18c-1.07,14.81-1.97,31.3,7.24,43.97,8.25,11.35,22.9,14.97,36.29,15.14,12.79.17,25.86-3.13,36.59-10.2,10.51-6.93,18.15-17.31,21.08-29.61s1.38-24.71-5.43-34.81c-.83-1.23-1.74-2.42-2.71-3.55-1.25-1.47-3.36.66-2.12,2.12,7.37,8.68,9.83,20.65,8.09,31.75-1.82,11.65-7.94,22.01-17.25,29.25s-21.54,11.29-33.51,11.96c-6.19.34-12.46-.11-18.51-1.53-6.41-1.5-12.67-4.21-17.33-8.97-11.69-11.92-10.54-30.19-9.43-45.51.14-1.93-2.86-1.92-3,0h0Z"/>
      </g>
      <g>
        <path class="cls-1" d="m22.82,49.76c2.64-5.02,5.91-9.8,10.29-13.41s9.95-5.98,15.61-5.74c2.1.09,4.26.52,6.25-.14s3.65-2.99,2.66-4.84"/>
        <path d="m24.12,50.51c3.85-7.27,9.24-14.41,17.3-17.25,1.95-.69,3.99-1.12,6.07-1.17s4.13.38,6.19.16c3.58-.4,6.96-3.64,5.25-7.38-.8-1.75-3.39-.23-2.59,1.51.67,1.48-1.51,2.66-2.62,2.85-2.04.35-4.17-.19-6.23-.14-3.72.09-7.37,1.19-10.64,2.94-6.9,3.69-11.72,10.18-15.31,16.97-.9,1.71,1.69,3.22,2.59,1.51h0Z"/>
      </g>
      <g>
        <path class="cls-1" d="m62.77,24.87c3.99,2.55,9.26,1.21,13.59-.69,4.97-2.18,9.66-5,13.92-8.37,3.43-2.72,6.67-5.93,8.24-10.02.14-.36.26-.76.15-1.13-.11-.35-.4-.6-.71-.79-2.42-1.52-5.56-.41-8.18.73-3.85,1.68-7.71,3.36-11.56,5.04"/>
        <path d="m62.01,26.16c3.96,2.4,8.74,1.74,12.89.21,4.58-1.69,8.95-4.13,12.95-6.91,3.78-2.63,7.5-5.59,10.11-9.43,1.06-1.56,2.99-4.38,1.91-6.29s-3.94-2.29-5.94-2.01c-2.75.38-5.3,1.74-7.82,2.84-2.89,1.26-5.78,2.52-8.67,3.78-1.77.77-.24,3.36,1.51,2.59,4.11-1.79,8.18-3.73,12.35-5.37,1.89-.74,3.56-1.14,5.53-.6.51.14.35.11.15.62-.17.43-.38.85-.59,1.25-.43.81-.93,1.59-1.48,2.33-2.29,3.08-5.45,5.53-8.58,7.71-3.37,2.34-6.97,4.38-10.74,6.01s-8.35,2.95-12.08.69c-1.65-1-3.16,1.59-1.51,2.59h0Z"/>
      </g>
      <g>
        <path class="cls-1" d="m87.4,24.96c9.32,1.46,19.29-2.26,25.38-9.47,1.04-1.23,2.02-2.78,1.63-4.33-.45-1.78-2.42-2.65-4.18-3.16-3.07-.88-6.23-1.44-9.42-1.65"/>
        <path d="m87,26.4c6.68.99,13.52-.29,19.38-3.67,4.15-2.39,14.29-10.28,7.19-14.93-1.67-1.09-3.81-1.54-5.73-1.96-2.31-.51-4.67-.83-7.03-1-1.93-.14-1.92,2.86,0,3,2.26.16,4.49.49,6.7,1,1.55.36,3.52.67,4.78,1.73,2.64,2.21-3.24,6.71-4.87,7.9-5.58,4.1-12.74,6.06-19.62,5.03-1.89-.28-2.7,2.61-.8,2.89h0Z"/>
      </g>
      <g>
        <path class="cls-1" d="m114.63,29.1c1.58-1.25,3.27-2.68,3.63-4.66.48-2.64-2.2-5.32-4.83-4.86"/>
        <path d="m115.69,30.16c2.32-1.84,4.61-4.21,4-7.43-.28-1.47-1.25-2.75-2.43-3.62-1.24-.92-2.73-1.22-4.24-.98-.78.12-1.28,1.14-1.05,1.85.27.85,1.01,1.18,1.85,1.05-.34.05.08,0,.13,0,.13,0,.26,0,.39.01-.26-.01,0,0,.12.03.11.02.21.05.31.09.06.02.12.04.19.06-.14-.06-.15-.07-.06-.02.1.05.2.1.29.15.12.06.23.14.34.21.34.22-.19-.18.12.09.2.18.38.36.56.57s-.04-.07.05.07c.07.11.15.22.21.34.05.1.1.19.15.29-.14-.28.02.06.04.13.04.12.08.25.1.38.02.09.02.42.03.12,0,.13.01.26.01.39,0,.04-.04.4,0,.2.03-.19-.06.23-.07.28-.03.11-.07.22-.1.34-.1.32.08-.11-.07.16-.07.12-.13.25-.2.37s-.15.24-.23.36c-.03.05-.28.36-.11.15-.71.87-1.58,1.58-2.46,2.28-.62.49-.55,1.62,0,2.12.66.6,1.46.52,2.12,0h0Z"/>
      </g>
      <g>
        <path class="cls-1" d="m15.59,46.9c0-6.4,2.42-15.39,6-20.91,3.85-5.93,9.64-9.33,16.24-11.52.66-.22,1.36-.45,2.05-.33s1.36.69,1.33,1.39c-.02.5-.38.92-.51,1.4s.18,1.17.67,1.04"/>
        <path d="m17.09,46.9c.04-6.14,1.71-12.62,4.57-18.05s8-9.58,13.87-11.95c.83-.33,1.67-.64,2.52-.93.47-.16.93-.32,1.42-.37.05,0,.42.17.26-.03-.11-.14-.2.26-.26.42-.64,1.51.04,3.48,1.91,3.47s1.93-3.01,0-3c.37,0,.46.64.85.55.18-.04.24-.39.29-.56.12-.36.19-.72.18-1.1-.03-.92-.61-1.79-1.39-2.26-1.63-.98-3.52-.22-5.14.37-3.29,1.2-6.48,2.72-9.29,4.82-5.7,4.26-9.01,10.32-10.96,17.06-1.09,3.74-1.79,7.66-1.82,11.56-.01,1.93,2.99,1.93,3,0h0Z"/>
      </g>
      <g>
        <path class="cls-1" d="m45.19,14.28C55.94,6.32,69.21,1.95,82.58,1.5c1.07-.04,2.26,0,3.03.75s.51,2.42-.56,2.47"/>
        <path d="m45.95,15.58c5.86-4.31,12.42-7.6,19.38-9.71,3.4-1.03,6.89-1.81,10.42-2.29,1.84-.25,3.69-.42,5.55-.52.78-.04,1.59-.14,2.37-.04.31.04.63.09.88.29.37.3-.52.07.1-.04-1.9.34-1.09,3.23.8,2.89,1.76-.31,2.45-2.33,1.91-3.88C86.67.31,84.4-.04,82.58,0c-4.53.1-9.09.75-13.51,1.76-8.85,2.03-17.32,5.83-24.64,11.22-1.54,1.13-.04,3.74,1.51,2.59h0Z"/>
      </g>
      <g>
        <path class="cls-1" d="m53.88,60.73c-4.61,3.23-7.18,7.73-8.12,12.29s-.35,9.21.63,13.77c.96,4.46,2.51,9.16,7.1,12.27,5.89,3.99,15.2,4.17,23.01,2.57,10.44-2.13,19.71-7.03,25.61-13.53,5.9-6.5,8.37-14.54,6.82-22.2-.66-3.25-2.18-6.62-5.72-8.72-2.29-1.36-5.22-2.06-8.12-2.54-11.52-1.94-23.94-.98-34.62,2.65"/>
        <path d="m53.12,59.43c-4.89,3.5-8.18,8.62-9.05,14.6-.5,3.44-.25,6.89.33,10.31.47,2.78,1.07,5.57,2.14,8.19,2.16,5.26,6.37,8.78,11.8,10.36s11.7,1.42,17.39.4c11.45-2.04,23.26-7.74,30.09-17.46,3.35-4.77,5.3-10.61,5.03-16.47-.25-5.43-2.25-10.93-7.24-13.68-3.15-1.74-6.83-2.35-10.36-2.83-3.73-.51-7.49-.75-11.26-.69-7.43.11-14.88,1.3-21.94,3.67-1.82.61-1.04,3.51.8,2.89,11.28-3.79,23.89-4.72,35.57-2.33,2.69.55,5.54,1.33,7.61,3.24,1.7,1.56,2.71,3.62,3.26,5.84,1.23,4.97.47,10.34-1.75,14.92-4.71,9.72-14.83,15.72-24.88,18.65-5.25,1.53-10.73,2.34-16.2,1.9-4.88-.39-10.08-1.94-13.17-5.98-1.62-2.12-2.52-4.67-3.15-7.24-.8-3.25-1.38-6.61-1.36-9.97.03-6.28,2.69-12.04,7.85-15.73,1.56-1.11.06-3.72-1.51-2.59h0Z"/>
      </g>
      <g>
        <path class="cls-1" d="m73.48,38.8c.66,1.12,1.8,1.89,2.99,2.42,2.65,1.19,5.62,1.37,8.52,1.53-.19.71-.58,1.36-1.03,1.94-1.6,2.05-4,3.37-6.51,4.04s-5.15.72-7.74.62"/>
        <path d="m72.19,39.56c2.61,4.14,8.43,4.45,12.8,4.69l-1.45-1.9c-.67,2.22-3.16,3.78-5.21,4.53-2.77,1.01-5.72,1.08-8.63.96-1.93-.08-1.93,2.92,0,3,3.43.13,6.97-.03,10.18-1.37,2.8-1.17,5.65-3.3,6.56-6.33.29-.98-.5-1.85-1.45-1.9-2-.11-4-.22-5.95-.72-1.56-.4-3.36-1.05-4.26-2.48-1.03-1.63-3.62-.13-2.59,1.51h0Z"/>
      </g>
      <g>
        <path class="cls-1" d="m46.17,43c.87,1.09,2.29,1.57,3.65,1.89,2.38.55,4.91.75,7.26.07s4.51-2.33,5.34-4.63"/>
        <path d="m45.11,44.06c1.16,1.36,2.91,1.97,4.6,2.34,2.02.44,4.09.63,6.14.34,3.55-.49,6.71-2.61,8.02-6.01.29-.76-.32-1.65-1.05-1.85-.85-.23-1.55.29-1.85,1.05-.89,2.31-3.42,3.61-5.76,3.89-1.52.18-3.07.03-4.57-.28-1.27-.27-2.55-.58-3.42-1.59-.53-.62-1.58-.54-2.12,0-.61.61-.53,1.5,0,2.12h0Z"/>
      </g>
      <g>
        <path class="cls-1" d="m93.03,37.56c1.07,1.3,2.82,1.78,4.45,2.19.99.25,1.99.5,3.02.53s2.08-.16,2.92-.74c1.25-.86,1.84-2.41,2.12-3.9"/>
        <path d="m91.97,38.62c.99,1.15,2.41,1.79,3.84,2.23,1.54.47,3.19.91,4.8.93s3.3-.48,4.45-1.67c1.07-1.1,1.64-2.6,1.93-4.08.16-.79-.23-1.62-1.05-1.85-.74-.2-1.69.25-1.85,1.05-.19.95-.45,1.99-1.1,2.69-.74.79-1.8.92-2.85.83-1.19-.09-2.41-.46-3.54-.8-.98-.3-1.84-.68-2.51-1.45-.53-.61-1.58-.54-2.12,0-.61.61-.53,1.51,0,2.12h0Z"/>
      </g>
      <g>
        <path class="cls-1" d="m20.41,56.5c.45-2.83-2.21-5.16-4.75-6.5-1.67-.88-3.51-1.64-5.39-1.43-3.15.36-5.34,3.31-6.63,6.21-1.88,4.24-2.69,9.04-1.77,13.58.92,4.55,3.68,8.8,7.72,11.06s9.37,2.32,13.22-.27"/>
        <path d="m21.91,56.5c.54-4.72-4.92-8.2-8.88-9.19-5.02-1.25-8.76,2.44-10.68,6.71-2.18,4.86-3.06,10.44-1.71,15.66,1.14,4.42,3.93,8.5,7.88,10.86,4.56,2.72,10.57,2.83,15.06-.08,1.62-1.05.11-3.64-1.51-2.59-3.12,2.02-7.06,2.26-10.49.86s-5.87-4.27-7.26-7.53c-1.64-3.84-1.64-8.21-.57-12.2.84-3.15,2.52-7.8,6.05-8.8,2.14-.6,4.47.61,6.22,1.75,1.6,1.04,3.13,2.5,2.9,4.55-.22,1.91,2.78,1.9,3,0h0Z"/>
      </g>
    </g>
  </g>
</svg>