<?xml version="1.0" encoding="UTF-8"?>
<svg id="_레이어_2" data-name="레이어 2" xmlns="http://www.w3.org/2000/svg" viewBox="0 0 113.79 86.76">
  <defs>
    <style>
      .cls-1 {
        fill: #fff;
      }
    </style>
  </defs>
  <g id="_레이어_1-2" data-name="레이어 1">
    <g>
      <g>
        <path class="cls-1" d="m25.11,3.91c8.13-1.76,16.5-1.99,24.81-2.22,7.03-.19,14.09-.38,21.08.46,5.22.63,10.45,1.86,15.03,4.44,5.42,3.05,9.71,7.9,12.61,13.4s4.45,11.64,5.11,17.82c.3,2.79.42,5.64-.26,8.36"/>
        <path d="m25.51,5.35c7.08-1.51,14.31-1.87,21.53-2.08s14.37-.5,21.52.13c6.62.58,13.35,2.02,18.9,5.86,4.96,3.43,8.66,8.47,11.07,13.95,1.54,3.48,2.55,7.2,3.21,10.95s1.18,7.84.31,11.62c-.43,1.88,2.46,2.68,2.89.8.83-3.63.54-7.31.04-10.96s-1.3-7.17-2.53-10.61c-2.18-6.08-5.64-11.76-10.52-16.03C80.67-.87,64.41-.2,50.41.18c-8.6.23-17.25.49-25.7,2.28-1.89.4-1.09,3.29.8,2.89h0Z"/>
      </g>
      <g>
        <path class="cls-1" d="m15.49,14.78C3.98,18.56,2.82,38.83,1.9,48.63c-.83,8.88-.88,19.61,4.91,26.89,4.97,6.25,13.25,9.02,21.23,9.54,18.26,1.19,37.6-2.98,53-13"/>
        <path d="m15.09,13.34c-7.6,2.58-10.77,10.87-12.4,18.05-.9,3.97-1.41,8.03-1.82,12.08S.03,51.77,0,55.94c-.04,5.2.54,10.53,2.6,15.35s5.67,8.62,10.22,11.13,9.82,3.76,15.03,4.13c5.75.4,11.56.24,17.29-.44,12.97-1.53,25.66-5.65,36.66-12.76,1.62-1.04.11-3.64-1.51-2.59-9.17,5.93-19.54,9.73-30.28,11.63-5.44.96-10.97,1.4-16.5,1.36-5.03-.03-10.04-.39-14.84-2.02s-8.96-4.35-11.65-8.5-3.64-8.89-3.92-13.64c-.26-4.42.12-8.82.52-13.22.31-3.45.65-6.91,1.23-10.33,1.18-6.99,3.36-17.2,11.05-19.81,1.82-.62,1.04-3.52-.8-2.89h0Z"/>
      </g>
      <g>
        <path class="cls-1" d="m21.65,8.42c-2.15,1.69-1.75,5.31.16,7.28s4.76,2.63,7.47,2.99c4.2.55,8.51.55,12.62-.45s8.03-3.04,10.9-6.16"/>
        <path d="m20.59,7.36c-2.51,2.16-2.33,6.08-.49,8.61,2.35,3.23,6.65,3.96,10.35,4.35,8.38.88,17.44-.82,23.41-7.18,1.32-1.41-.8-3.53-2.12-2.12-4.76,5.07-11.72,6.76-18.47,6.51-3.07-.12-6.71-.31-9.36-2.04-1.92-1.24-3.24-4.26-1.2-6.01,1.47-1.26-.66-3.37-2.12-2.12h0Z"/>
      </g>
      <g>
        <path class="cls-1" d="m52.61,17.78c5.15,3.26,12.35,2.9,17.15-.86"/>
        <path d="m51.86,19.08c5.64,3.5,13.38,3.2,18.66-.86.64-.49.98-1.29.54-2.05-.37-.63-1.41-1.04-2.05-.54-4.48,3.45-10.81,3.85-15.63.86-1.65-1.02-3.15,1.57-1.51,2.59h0Z"/>
      </g>
      <g>
        <path class="cls-1" d="m58.03,13.62c2.4.8,5.12.59,7.37-.57"/>
        <path d="m57.63,15.07c2.81.92,5.9.61,8.53-.72.7-.36.96-1.4.54-2.05-.46-.72-1.3-.92-2.05-.54-.15.08-.3.15-.45.22-.16.07-.15.07.01,0-.06.02-.12.05-.17.07-.29.11-.59.21-.89.29-.28.08-.56.14-.85.19-.14.02-.36.07-.09.02-.16.03-.33.04-.5.05-.58.04-1.16.02-1.74-.03-.17-.02-.16-.02.03,0-.08-.01-.16-.03-.25-.04-.12-.02-.24-.05-.37-.07-.32-.07-.64-.16-.96-.26-.75-.24-1.67.28-1.85,1.05-.19.82.25,1.58,1.05,1.85h0Z"/>
      </g>
      <g>
        <path class="cls-1" d="m28.81,6.73c-.59.86-.32,2.09.37,2.87s1.71,1.18,2.71,1.46c5.4,1.52,11.53.17,15.79-3.5-.16-.05-.33-.11-.49-.16"/>
        <path d="m27.52,5.97c-1.27,2.16-.03,4.66,2.02,5.77,1.95,1.05,4.39,1.39,6.58,1.43,4.62.08,9.11-1.58,12.62-4.55.91-.77.33-2.19-.66-2.51-.16-.05-.33-.11-.49-.16-1.84-.59-2.63,2.3-.8,2.89.16.05.33.11.49.16l-.66-2.51c-2.51,2.12-5.75,3.41-9.03,3.64-1.64.11-3.28,0-4.87-.41-.8-.2-3.38-.93-2.61-2.24.98-1.67-1.61-3.18-2.59-1.51h0Z"/>
      </g>
      <g>
        <path class="cls-1" d="m71.25,23.98c1.35,5.68,1.89,11.55,1.62,17.39-.07,1.38-.15,2.86.57,4.04"/>
        <path d="m69.8,24.38c.87,3.71,1.4,7.48,1.57,11.29.08,1.9.07,3.8,0,5.7-.07,1.68-.05,3.28.78,4.8.93,1.69,3.52.18,2.59-1.51-.77-1.41-.34-3.37-.31-4.91.04-1.76,0-3.53-.11-5.29-.23-3.66-.78-7.29-1.61-10.86-.44-1.88-3.33-1.08-2.89.8h0Z"/>
      </g>
      <g>
        <path class="cls-1" d="m80.1,34.87c.3,3.94.6,7.88.9,11.82"/>
        <path d="m78.6,34.87c.3,3.94.6,7.88.9,11.82.06.81.65,1.5,1.5,1.5.76,0,1.56-.69,1.5-1.5-.3-3.94-.6-7.88-.9-11.82-.06-.81-.65-1.5-1.5-1.5-.76,0-1.56.69-1.5,1.5h0Z"/>
      </g>
      <g>
        <path class="cls-1" d="m87.02,31.62c-.08,6.26.03,12.53.33,18.78"/>
        <path d="m85.52,31.62c-.07,6.26.04,12.52.33,18.78.09,1.92,3.09,1.93,3,0-.3-6.26-.41-12.52-.33-18.78.02-1.93-2.98-1.93-3,0h0Z"/>
      </g>
      <g>
        <path class="cls-1" d="m71.21,51.44c-1.63,1.22-2.22,3.39-2.43,5.42-.33,3.05.1,6.51,2.47,8.47,2.1,1.74,5.4,1.71,7.6.1,2.2-1.61,3.25-4.57,2.75-7.25-.17-.91-.52-1.83-1.21-2.44-.7-.62-1.67-.86-2.6-.97-.49-.06-1.01-.09-1.47.09-.7.28-1.13,1.01-1.25,1.75s0,1.5.13,2.24"/>
        <path d="m70.15,50.37c-2.62,2.05-3.15,6.08-2.94,9.18.23,3.46,1.77,6.85,5.21,8.12s7.11-.09,9.15-2.93c1.89-2.62,2.44-6.96.31-9.61-.67-.83-1.6-1.35-2.62-1.63s-2.31-.47-3.35-.11-1.87,1.32-2.2,2.4-.16,2.3.04,3.44c.14.8,1.12,1.25,1.85,1.05.84-.23,1.19-1.04,1.05-1.85-.1-.55-.23-1.19-.06-1.74.15-.48.36-.51.84-.48.98.07,2.03.34,2.46,1.31.84,1.93.23,4.52-1.17,6.02s-3.78,2.05-5.68,1.13-2.69-3.21-2.81-5.24c-.14-2.35.07-5.39,2.06-6.96.64-.5.52-1.6,0-2.12-.63-.63-1.48-.5-2.12,0h0Z"/>
      </g>
      <g>
        <path class="cls-1" d="m84.81,68.55c.98,2.64,4.05,4.2,6.84,3.77s5.14-2.58,6.18-5.2.87-5.61-.06-8.27c-.51-1.46-1.36-2.94-2.8-3.51-1.3-.51-2.82-.14-3.99.63-1.55,1.01-2.66,2.72-2.85,4.57-.1.96.08,2.02.81,2.65s2.09.48,2.41-.43"/>
        <path d="m83.37,68.95c1.38,3.47,5.01,5.4,8.68,4.82s6.67-3.83,7.6-7.39c.55-2.11.48-4.36-.01-6.47-.42-1.79-1.17-3.76-2.59-5-3.25-2.83-7.99-.52-9.67,2.95-.89,1.85-1.24,4.36.17,6.05,1.29,1.54,4.18,1.63,5.09-.39.33-.74.21-1.61-.54-2.05-.64-.38-1.72-.2-2.05.54-.12.26-.11.07.09.02.06-.01,0,.12-.06.03,0,0-.18.02-.25-.03-.18-.15-.22-.64-.24-.88-.06-1.06.43-2.16,1.1-2.95.71-.84,1.74-1.53,2.87-1.58s1.81.74,2.3,1.64c2.28,4.18,1.32,11.08-3.89,12.48-2.13.57-4.86-.42-5.72-2.57-.3-.75-1-1.28-1.85-1.05-.72.2-1.35,1.09-1.05,1.85h0Z"/>
      </g>
      <g>
        <path class="cls-1" d="m103.78,66.05c2.19.36,4.47-.68,5.94-2.34,1.48-1.66,2.23-3.87,2.48-6.07.21-1.81.1-3.72-.78-5.32s-2.65-2.79-4.46-2.58c-1.11.13-2.12.76-2.95,1.5-.96.86-1.78,1.94-2.1,3.2s-.09,2.69.81,3.63,2.48,1.21,3.53.46"/>
        <path d="m103.38,67.49c7.35,1.02,11.41-7.21,10.21-13.53-.58-3.03-3.19-5.97-6.5-5.73-3.12.22-6.22,3.23-6.71,6.29-.29,1.78.19,3.73,1.63,4.92s3.46,1.39,5,.39.11-3.64-1.51-2.59c-.8.52-1.72.06-2.06-.79-.44-1.1.06-2.32.74-3.2s1.83-1.91,3.03-2.02c1.06-.1,2.09.62,2.68,1.45,1.54,2.16,1.02,5.65.04,7.93s-3.15,4.36-5.75,4c-.8-.11-1.61.19-1.85,1.05-.19.7.24,1.73,1.05,1.85h0Z"/>
      </g>
      <g>
        <path class="cls-1" d="m93.85,48.46c1.06-1.77,3.52-2.54,5.41-1.7"/>
        <path d="m95.15,49.22c.04-.06.08-.12.12-.18.03-.04.06-.08.08-.12-.16.2-.2.25-.12.16.09-.11.19-.22.29-.32.06-.06.12-.12.19-.17.09-.08.3-.2-.08.05.12-.08.23-.17.36-.24s.25-.15.38-.21c.11-.05.34-.12-.09.03.07-.02.14-.05.2-.08.3-.11.6-.18.92-.23l-.4.05c.38-.05.77-.06,1.15,0l-.4-.05c.18.02.36.06.53.1.08.02.16.05.24.07.11.04.45.19-.02-.02.38.17.73.27,1.16.15.35-.1.73-.36.9-.69.34-.65.23-1.72-.54-2.05-.73-.32-1.43-.51-2.23-.54-.64-.03-1.32.07-1.94.26-1.36.43-2.54,1.3-3.29,2.52-.41.67-.17,1.68.54,2.05s1.61.18,2.05-.54h0Z"/>
      </g>
      <g>
        <path class="cls-1" d="m91.43,76.71c.5,1.76,2.04,3.03,3.68,3.85,2.75,1.39,5.99,1.79,9,1.12,1.74-.39,3.47-1.17,4.61-2.55s1.58-3.42.74-5c-.65-1.22-1.97-2.01-3.34-2.2s-2.78.17-4.01.81c-.56.29-1.12.68-1.34,1.27s.1,1.4.72,1.47"/>
        <path d="m89.98,77.1c.98,3.08,3.92,4.87,6.87,5.75s6.56.89,9.54-.34,5.26-3.75,4.97-7.01-3.36-5.38-6.52-5.11c-1.77.15-4.05.85-5.11,2.39s-.47,3.67,1.36,4.14,2.67-2.41.8-2.89c.18.08.29.21.31.39-.05.14-.02.14.07-.01.16-.03.44-.3.59-.38.58-.3,1.22-.52,1.86-.62,1.08-.16,2.31.09,3.07.93,1.58,1.77-.12,4.14-1.79,5.06-2.16,1.18-4.94,1.34-7.31.83-2.18-.47-5.07-1.59-5.82-3.93-.58-1.83-3.48-1.05-2.89.8h0Z"/>
      </g>
      <g>
        <path class="cls-1" d="m24.58,49.03c-3.41,1.12-6.82,1.52-10.38,1.82-2.22.19-5.67.39-6.58,2.89s3.08,3.24,4.89,3.53c5.34.83,10.72,1.05,16.09,1.04"/>
        <path d="m24.18,47.58c-3.35,1.08-6.81,1.5-10.31,1.8-2.35.2-5.1.45-6.76,2.35s-1.32,4.59.98,5.82,5.05,1.35,7.51,1.63c4.32.49,8.66.63,13.01.62,1.93,0,1.93-3,0-3-4.14,0-8.27-.12-12.39-.55-1.55-.16-3.11-.34-4.64-.67-.61-.13-2.31-.38-2.61-1.1.05.11.08-.27.16-.44.24-.49.75-.8,1.23-1.01,1.05-.45,2.27-.55,3.4-.64,3.79-.33,7.58-.74,11.22-1.91,1.83-.59,1.05-3.49-.8-2.89h0Z"/>
      </g>
      <g>
        <path class="cls-1" d="m19.65,65.73c6.51,2.81,14.22,2.71,20.65-.28"/>
        <path d="m18.89,67.03c7.13,3.02,15.11,2.93,22.16-.28,1.75-.8.23-3.38-1.51-2.59-5.96,2.71-13.1,2.83-19.13.28-.75-.32-1.6-.22-2.05.54-.37.63-.21,1.74.54,2.05h0Z"/>
      </g>
      <g>
        <path class="cls-1" d="m46.9,41.8c-1.33,1.29-.8,3.9.9,4.61s3.91-.66,4.07-2.51-1.71-3.56-3.55-3.31-3.16,2.34-2.67,4.13c.15.54.45,1.05.91,1.35,1.17.75,2.97-.52,2.7-1.89s-2.31-1.92-3.28-.92"/>
        <path d="m45.84,40.74c-2.2,2.2-1.15,6.6,2.02,7.26,1.57.33,3.27-.22,4.35-1.42.52-.57.93-1.27,1.08-2.04.18-.95.04-1.85-.35-2.72-.7-1.57-2.33-2.59-4.01-2.73s-3.23.89-4.1,2.25-1.03,3.28-.22,4.76c.43.79,1.21,1.47,2.11,1.64.85.16,1.75,0,2.47-.49.76-.52,1.4-1.29,1.55-2.22.16-1.02-.13-2.04-.89-2.76-1.34-1.26-3.57-1.38-4.91-.06-.56.55-.59,1.58,0,2.12s1.52.59,2.12,0c.26-.25-.28.15-.01,0,.04-.02.08-.04.12-.07.14-.08.18,0-.14.06.08-.01.18-.05.26-.07.22-.06-.2.04-.2.02,0,0,.19-.01.2-.01.05,0,.09,0,.14,0,.24,0-.21-.01-.19-.03.02-.03.28.06.3.07.04.01.09.03.13.04.17.05-.32-.16-.17-.07.1.06.2.11.3.17.16.09-.3-.27-.12-.09.03.03.07.06.1.09.03.03.06.07.09.1-.26-.21-.18-.26-.11-.14.02.04.04.08.07.11.13.2-.1-.19-.07-.18.02,0,.04.14.05.16.1.26,0-.14,0-.15.03.03,0,.14,0,.18.03.17.09-.35.03-.18-.02.05-.03.12-.04.18-.03.12-.13.13.07-.15-.05.08-.1.17-.14.26-.11.19.08-.11.1-.13-.05.03-.11.12-.15.16-.03.03-.09.07-.11.1.17-.23.24-.17.12-.1-.1.06-.2.11-.29.17-.15.09.33-.1.15-.07-.06,0-.12.04-.18.05-.03,0-.12.04-.14.03.06.03.42-.03.11-.03-.03,0-.13,0-.14,0-.02-.02.42.11.19.01-.04-.01-.1-.04-.14-.04.34.05.27.14.16.06-.02-.01-.12-.09-.14-.09.17.02.22.19.06.02-.04-.05-.16-.21-.03-.02.14.2-.01-.03-.04-.08-.04-.07-.07-.14-.11-.21-.1-.17.1.29.04.1-.04-.13-.08-.25-.11-.38-.01-.05-.01-.11-.03-.16.11.33.03.29.03.16s-.01-.27,0-.4c0-.05.02-.11.01-.16.02.34-.05.29-.02.16.03-.12.05-.24.09-.35.02-.06.04-.13.06-.19.04-.11.12-.16-.06.13.07-.11.12-.25.18-.36.05-.09.12-.18.18-.27.13-.2-.07.1-.09.11.04-.03.07-.09.11-.12.08-.09.17-.18.26-.26.04-.04.08-.07.12-.11.1-.1-.32.21-.05.04.1-.06.2-.13.31-.18.04-.02.11-.04.14-.07-.02.02-.36.13-.13.06.1-.03.2-.07.31-.09.04,0,.12-.01.16-.03-.26.03-.31.04-.15.02h.09c.13-.01.26,0,.39,0,.19.01-.33-.06-.15-.02.06.01.11.02.17.04.12.03.25.09.37.12-.03,0-.34-.16-.12-.05.08.04.15.08.23.12.1.06.19.13.29.19-.28-.15-.19-.15-.1-.08.04.04.09.08.13.11.1.09.18.18.27.28.14.16,0,.13-.05-.07.01.06.09.13.12.18.05.08.12.28.18.34-.02-.02-.13-.36-.05-.12.02.05.04.11.05.16.03.1.03.24.08.33-.11-.2-.03-.31-.02-.15,0,.09,0,.17,0,.26,0,.06,0,.12,0,.17,0,.29.07-.31.01-.13-.03.11-.06.23-.09.34s-.12.16.07-.14c-.03.04-.04.1-.07.14-.06.12-.13.22-.2.33s-.14.09.09-.12c-.04.03-.07.08-.1.12-.08.09-.16.17-.25.25-.04.04-.08.07-.12.1-.13.12.27-.18.11-.09-.12.06-.22.15-.34.21-.06.03-.12.06-.18.09-.12.06-.14-.01.14-.06-.1.02-.2.07-.3.1s-.21.03-.3.07c.34-.12.29-.03.13-.02-.06,0-.13,0-.19,0s-.13,0-.19,0c-.26,0,.06-.02.13.02-.1-.05-.27-.07-.38-.1-.22-.06.12.05.14.07-.05-.04-.13-.06-.19-.1-.04-.02-.08-.05-.12-.08-.23-.15,0-.03.07.06-.07-.09-.18-.16-.26-.25-.03-.03-.06-.08-.09-.11.27.25.15.2.06.07-.07-.1-.13-.2-.18-.31-.02-.04-.04-.09-.06-.13.2.35.09.23.05.09-.04-.11-.07-.23-.1-.35-.01-.05-.02-.1-.03-.14-.06-.27.03.39.02.11,0-.12-.01-.24-.01-.36,0-.05,0-.1,0-.14,0-.26-.08.38-.02.11.02-.1.04-.21.07-.31.02-.06.04-.11.06-.17.07-.23-.15.28-.05.13.06-.09.12-.21.18-.31.09-.16-.27.3-.08.1.05-.05.1-.11.15-.16.56-.56.6-1.57,0-2.12s-1.53-.59-2.12,0h0Z"/>
      </g>
      <g>
        <path class="cls-1" d="m9.28,41.23c-.31.82-.43,1.71-.34,2.57.04.38.14.8.44,1.04.28.22.68.24,1.03.18.93-.17,1.74-.89,2.02-1.8s.02-1.96-.65-2.63c-.17-.17-.38-.32-.63-.32-.26,0-.48.18-.66.37-.48.51-.81,1.17-.92,1.86-.08.48.06,1.12.54,1.18.6.07.8-.78.76-1.39"/>
        <path d="m7.83,40.83c-.32.85-.46,1.8-.41,2.71.03.59.13,1.12.37,1.65.27.59.81.99,1.4,1.21.9.33,2.02.06,2.82-.42.85-.51,1.44-1.27,1.8-2.18.31-.79.31-1.79.04-2.59-.33-1-1.03-2.03-2.09-2.35-1.29-.39-2.36.56-2.99,1.58-.49.79-.81,1.79-.68,2.73.07.56.29,1.11.72,1.48.67.58,1.55.69,2.34.29.92-.47,1.28-1.68,1.22-2.64-.05-.78-.66-1.54-1.5-1.5-.77.03-1.55.66-1.5,1.5.01.17,0,.34-.02.51l.05-.4c-.02.15-.06.3-.12.44l.15-.36c-.04.08-.08.15-.13.22l.23-.3s-.08.09-.13.13l.3-.23s-.05.03-.08.05l.36-.15s-.08.03-.13.04l.4-.05c-.05,0-.1,0-.15,0l.4.05c-.06,0-.1-.02-.15-.04l.36.15s-.06-.03-.09-.05l.3.23s-.08-.07-.11-.1l.23.3c-.04-.06-.08-.12-.11-.18l.15.36c-.04-.11-.07-.22-.09-.33l.05.4c-.02-.14-.02-.27,0-.41l-.05.4c.04-.3.13-.6.25-.88l-.15.36c.13-.29.29-.55.48-.8l-.23.3c.13-.16.26-.3.42-.43l-.3.23c.06-.04.12-.08.18-.11l-.36.15c.07-.03.13-.05.2-.06l-.4.05s.09,0,.14,0l-.4-.05c.07.01.13.03.2.06l-.36-.15c.07.03.12.07.19.11l-.3-.23c.13.11.25.23.35.36l-.23-.3c.15.19.26.39.36.61l-.15-.36c.09.22.15.45.19.68l-.05-.4c.03.24.03.47,0,.71l.05-.4c-.03.23-.09.45-.18.67l.15-.36c-.09.21-.21.4-.35.58l.23-.3c-.14.18-.3.33-.48.47l.3-.23c-.18.14-.37.25-.58.34l.36-.15c-.19.08-.38.13-.59.17l.4-.05c-.15.02-.29.03-.44.01l.4.05c-.12-.02-.23-.04-.34-.09l.36.15c-.07-.03-.12-.07-.18-.11l.3.23c-.05-.05-.1-.09-.14-.14l.23.3c-.07-.09-.12-.19-.16-.29l.15.36c-.06-.15-.09-.31-.12-.47l.05.4c-.06-.48-.06-.96,0-1.44l-.05.4c.06-.43.17-.86.32-1.27.13-.35.03-.85-.15-1.16s-.54-.61-.9-.69c-.38-.09-.81-.07-1.16.15s-.55.51-.69.9h0Z"/>
      </g>
      <g>
        <path class="cls-1" d="m43.66,36.13c2.93-1.37,6.19-2.01,9.42-1.86-.23.12-.47.24-.7.36"/>
        <path d="m44.42,37.43c2.66-1.23,5.66-1.78,8.66-1.66l-.76-2.8c-.23.12-.47.24-.7.36-.7.36-.96,1.39-.54,2.05.46.71,1.31.93,2.05.54.23-.12.47-.24.7-.36.56-.29.89-1.09.69-1.69-.21-.65-.76-1.07-1.45-1.1-3.52-.15-6.99.59-10.18,2.07-.71.33-.95,1.42-.54,2.05.47.74,1.29.89,2.05.54h0Z"/>
      </g>
      <g>
        <path class="cls-1" d="m7.93,35.15c2.46-.45,5.03-.3,7.42.45"/>
        <path d="m8.33,36.59c.16-.03.31-.05.47-.08.11-.02.09-.01-.06,0,.09-.01.18-.02.27-.03.27-.03.54-.05.82-.07.61-.04,1.23-.03,1.84,0,.3.02.59.05.88.08.45.05-.3-.05.14.02.16.03.31.05.47.08.6.11,1.2.26,1.79.44.75.23,1.67-.27,1.85-1.05s-.24-1.6-1.05-1.85c-2.67-.82-5.47-.94-8.21-.45-.77.14-1.28,1.12-1.05,1.85.27.83,1.02,1.2,1.85,1.05h0Z"/>
      </g>
    </g>
  </g>
</svg>