<?xml version="1.0" encoding="UTF-8"?>
<svg id="_레이어_2" data-name="레이어 2" xmlns="http://www.w3.org/2000/svg" viewBox="0 0 115.3 119.53">
  <defs>
    <style>
      .cls-1 {
        fill: #fff;
      }
    </style>
  </defs>
  <g id="_레이어_1-2" data-name="레이어 1">
    <g>
      <g>
        <g>
          <path class="cls-1" d="m6.85,52.49c-2.29,11.93-2.82,24.19-1.58,36.27.57,5.6,1.58,11.32,4.51,16.12,4.07,6.68,11.5,10.83,19.17,12.34,7.67,1.52,15.63.67,23.31-.8,17.61-3.39,35.54-10.85,45.82-25.55,11.18-16,11.13-37.03,10.38-56.54"/>
          <path d="m5.4,52.09c-1.53,8.09-2.32,16.31-2.28,24.55.02,4.05.23,8.1.65,12.12.37,3.65.9,7.33,2.02,10.83,2.08,6.51,6.36,11.76,12.28,15.18,6.24,3.6,13.48,4.89,20.62,4.74s14.78-1.56,21.89-3.46c6.36-1.7,12.6-3.99,18.44-7.05s11.07-6.8,15.53-11.48,8.11-10.54,10.55-16.74c5.13-13.04,5.41-27.48,5.03-41.3-.05-1.72-.11-3.43-.17-5.15-.07-1.92-3.07-1.93-3,0,.5,13.24.81,26.86-2.78,39.74-1.73,6.2-4.42,12.12-8.3,17.28-3.65,4.85-8.31,8.92-13.41,12.18-10.82,6.92-23.71,10.71-36.37,12.39s-28.51-.15-35.46-12.55c-1.91-3.42-2.85-7.29-3.44-11.13-.64-4.19-.91-8.46-1.03-12.69-.25-8.94.46-17.88,2.13-26.67.36-1.89-2.53-2.7-2.89-.8h0Z"/>
        </g>
        <g>
          <path class="cls-1" d="m96.78,47.24c4.23-.9,8.39-2.14,12.42-3.71.62-.24,1.27-.51,1.68-1.03.63-.8.53-1.95.36-2.96-1.94-11.11-8.93-21.03-18.14-27.55S72.62,2.21,61.35,1.6c-9.58-.52-19.61.94-27.57,6.31"/>
          <path d="m97.18,48.69c4.22-.91,8.4-2.11,12.42-3.71,1.9-.75,3.21-1.91,3.27-4.08.04-1.77-.52-3.66-.99-5.35-1.96-7.06-5.87-13.51-10.93-18.78C89.96,5.35,73.8.11,58.21,0c-8.78-.06-17.79,1.69-25.19,6.61-1.6,1.06-.1,3.66,1.51,2.59,12.01-7.99,28.47-7.49,41.82-3.55,13.33,3.93,25.23,12.82,30.88,25.77.75,1.71,1.35,3.49,1.84,5.3.35,1.31,1.56,4.36.1,5.2-1.78,1.02-4.12,1.54-6.07,2.14-2.22.68-4.46,1.25-6.73,1.74-1.89.41-1.09,3.3.8,2.89h0Z"/>
        </g>
        <g>
          <path class="cls-1" d="m89.65,70.97c.79-7.22,7.57-12.94,14.8-13.64,3.3-.32,7.16.58,8.69,3.52,1.33,2.55.44,5.67-.73,8.3-1.92,4.31-4.64,8.38-8.49,11.11s-8.93,3.97-13.41,2.49"/>
          <path d="m91.15,70.97c.89-7.26,8.82-13.05,16.01-12.12,10.77,1.39,1.59,15.34-2.71,19.11-3.67,3.21-8.78,4.84-13.53,3.36-1.85-.58-2.64,2.32-.8,2.89,11.16,3.48,20.59-6.24,24.23-15.81.93-2.46,1.42-5.26.35-7.76-.9-2.09-2.72-3.48-4.83-4.22-4.34-1.54-9.46-.29-13.29,2.01-4.56,2.74-7.77,7.24-8.42,12.54-.23,1.91,2.77,1.89,3,0h0Z"/>
        </g>
        <g>
          <path class="cls-1" d="m87.75,52.34c-.44,3.54-.87,7.09-1.31,10.63"/>
          <path d="m86.25,52.34c-.44,3.54-.87,7.09-1.31,10.63-.1.81.76,1.5,1.5,1.5.89,0,1.4-.69,1.5-1.5.44-3.54.87-7.09,1.31-10.63.1-.81-.76-1.5-1.5-1.5-.89,0-1.4.69-1.5,1.5h0Z"/>
        </g>
        <g>
          <path class="cls-1" d="m26.42,11.93c-4.45,2.87-8.55,6.31-12.12,10.22s-6.66,8.31-8.92,13.11-3.6,9.78-3.81,14.97c-.02.46-.05.94-.01,1.4.03.33.13.67.39.88.17.14.38.2.59.26,1.08.3,2.17.51,3.26.77,2.02.47,4.04.95,6.06,1.42,1.15.27,1.76-.07,2.21-1.13,3.91-9.28,6.63-19.44,13.44-26.85"/>
          <path d="m25.67,10.63C14.65,17.78,5.17,28.46,1.52,41.27c-.92,3.22-1.75,6.99-1.46,10.36.12,1.44.95,2.26,2.31,2.65,1.76.49,3.58.84,5.36,1.25,2.58.61,6.14,2.21,7.63-.95,1.28-2.71,2.24-5.6,3.31-8.39,2.49-6.44,5.19-12.98,9.89-18.16,1.29-1.43-.82-3.56-2.12-2.12-3.66,4.03-6.24,8.8-8.37,13.78-1.1,2.58-2.1,5.2-3.11,7.82-.47,1.22-.94,2.43-1.42,3.64-.25.63-.49,1.28-.77,1.9-.26.57-.13.52-.75.41-1.49-.27-2.96-.69-4.43-1.04-.78-.18-1.55-.37-2.33-.54-.31-.07-.62-.14-.93-.21-.21-.05-1.49-.4-1.33-.23.21.23.05-.59.05-.75,0-.31.02-.62.04-.92.04-.76.1-1.52.2-2.28.19-1.6.53-3.2.94-4.76,1.57-5.89,4.53-11.37,8.27-16.16,4.1-5.24,9.11-9.74,14.68-13.35,1.61-1.05.11-3.64-1.51-2.59h0Z"/>
        </g>
        <g>
          <path class="cls-1" d="m16.84,55.38c5.59,1.3,11.28,2.18,17,2.62.28.02.59.03.8-.15.21-.18.26-.48.29-.75,1.23-11.07,2.47-22.14,3.7-33.22"/>
          <path d="m16.44,56.83c4.48,1.03,9.02,1.8,13.59,2.31,1.65.18,4.73,1.08,5.91-.53.52-.72.51-1.65.6-2.5.13-1.16.26-2.31.39-3.47,1.07-9.58,2.14-19.17,3.2-28.75.21-1.92-2.79-1.9-3,0-.96,8.59-1.91,17.19-2.87,25.78-.24,2.15-.48,4.3-.72,6.44-.02.23-.05.46-.08.68-.1.43.12.34.66-.28-.03-.07-1.05-.07-1.24-.09-1.11-.1-2.22-.21-3.33-.33-4.14-.48-8.25-1.22-12.32-2.15-1.88-.43-2.68,2.46-.8,2.89h0Z"/>
        </g>
        <g>
          <path class="cls-1" d="m37.79,57.33c7.21.88,14.55.72,21.72-.46.45-.07.95-.18,1.24-.53.27-.34.29-.81.29-1.24.06-11.32.12-22.63.18-33.95"/>
          <path d="m37.79,58.83c5.14.61,10.32.73,15.47.31,1.29-.1,2.57-.24,3.85-.41,1.13-.15,2.39-.2,3.47-.57,2.33-.79,1.95-3.34,1.96-5.31.06-10.57.11-21.14.17-31.7.01-1.93-2.99-1.93-3,0-.05,9.57-.1,19.14-.16,28.71,0,1.25-.01,2.5-.02,3.74,0,.4.15,1.16,0,1.5.08.33.05.41-.08.26-.27.05-.55.1-.82.14-2.26.37-4.54.6-6.82.74-4.68.29-9.37.14-14.02-.41-1.91-.23-1.9,2.78,0,3h0Z"/>
        </g>
        <g>
          <path class="cls-1" d="m62.83,55.91c4.7.32,9.43.17,14.09-.46.47-.06.99-.16,1.26-.54.19-.26.22-.59.25-.91.86-10.39.2-20.9-1.93-31.11"/>
          <path d="m62.83,57.41c4.38.28,8.77.18,13.12-.34,1.77-.21,3.59-.47,3.91-2.56s.32-4.21.38-6.28c.25-8.64-.55-17.29-2.3-25.74-.39-1.89-3.28-1.09-2.89.8,1.53,7.42,2.28,14.97,2.24,22.54-.01,1.84-.07,3.69-.18,5.53-.02.31.07,2.45-.18,2.64-.03.02-.81.05-.98.08-.48.06-.97.11-1.45.16-3.88.38-7.78.43-11.67.18-1.93-.12-1.92,2.88,0,3h0Z"/>
        </g>
        <g>
          <path class="cls-1" d="m81.66,52.92l10.16-2.37c.84-.2,1.73-.42,2.29-1.08.48-.56.62-1.32.72-2.05,1.5-10.82-1.83-22.21-8.9-30.53"/>
          <path d="m82.06,54.37l7.74-1.81c1.89-.44,4.36-.64,5.6-2.33,1.1-1.5,1.09-3.83,1.2-5.62.13-2.08.08-4.18-.13-6.25-.84-8.3-4.13-16.14-9.5-22.52-1.24-1.48-3.36.65-2.12,2.12,4.65,5.52,7.64,12.44,8.53,19.6.22,1.8.32,3.63.28,5.44-.02.81-.06,1.62-.12,2.42s-.04,1.93-.39,2.7c-.38.86-1.4.91-2.22,1.1-.97.23-1.94.45-2.9.68l-6.77,1.58c-1.88.44-1.08,3.33.8,2.89h0Z"/>
        </g>
        <g>
          <path class="cls-1" d="m37.26,92.07l.09.34"/>
          <path d="m35.81,92.47l.09.34c.05.2.14.37.27.51.11.16.25.29.42.39.17.11.36.17.56.18.2.04.4.04.6-.03l.36-.15c.23-.13.4-.31.54-.54l.15-.36c.07-.27.07-.53,0-.8l-.09-.34c-.05-.2-.14-.37-.27-.51-.11-.16-.25-.29-.42-.39-.17-.11-.36-.17-.56-.18-.2-.04-.4-.04-.6.03l-.36.15c-.23.13-.4.31-.54.54l-.15.36c-.07.27-.07.53,0,.8h0Z"/>
        </g>
        <g>
          <path class="cls-1" d="m41.32,90.94l.27.51"/>
          <path d="m40.02,91.7l.27.51c.09.17.22.32.39.42.14.13.31.22.51.27.2.06.4.07.6.03.2,0,.39-.07.56-.18l.3-.23c.19-.19.31-.41.39-.66l.05-.4c0-.27-.07-.52-.2-.76l-.27-.51c-.09-.17-.22-.32-.39-.42-.14-.13-.31-.22-.51-.27-.2-.06-.4-.07-.6-.03-.2,0-.39.07-.56.18l-.3.23c-.19.19-.31.41-.39.66l-.05.4c0,.27.07.52.2.76h0Z"/>
        </g>
        <g>
          <path class="cls-1" d="m33.36,103.38c5.41.58,10.98-.32,15.93-2.58"/>
          <path d="m33.36,104.88c5.72.58,11.46-.43,16.69-2.79.74-.33.92-1.41.54-2.05-.44-.76-1.31-.87-2.05-.54-4.75,2.14-10,2.9-15.17,2.38-.81-.08-1.5.75-1.5,1.5,0,.88.69,1.42,1.5,1.5h0Z"/>
        </g>
        <g>
          <path class="cls-1" d="m51.86,67.4c-3.02,5.59-3.96,12.01-2.64,18.08.59,2.7,1.68,5.42,3.92,7.37,3.03,2.64,7.88,3.41,11.99,2.33,4.12-1.09,7.49-3.84,9.5-7.12,2.96-4.82,3.35-10.8,2.17-16.08-1.22-5.42-5.96-8.98-12.25-9.84-3.66-.5-8.2.57-10.79,2.86"/>
          <path d="m50.56,66.65c-3.51,6.62-4.73,15.04-1.92,22.15,1.29,3.27,3.56,5.84,6.83,7.21,3.09,1.29,6.63,1.47,9.87.67,7.01-1.74,11.98-7.89,13.19-14.87,1.09-6.31.15-13.63-5.21-17.75-5.76-4.42-14.94-4.93-20.63-.11-1.47,1.25.66,3.36,2.12,2.12,4.15-3.52,10.86-3.12,15.36-.53,4.92,2.84,6.06,8.31,5.68,13.64-.42,5.92-3.65,11.55-9.26,13.92-5.09,2.15-11.81,1.1-14.58-4.07-3.37-6.31-2.09-14.8,1.13-20.87.9-1.7-1.68-3.22-2.59-1.51h0Z"/>
        </g>
        <g>
          <path class="cls-1" d="m13.43,69.52c-4.07,4.51-6.36,10.82-5.23,16.78s6.08,11.25,12.11,11.96c1.52.18,3.08.07,4.52-.45,1.71-.63,3.16-1.83,4.37-3.19,4.35-4.94,5.62-12.39,3.13-18.48-1.47-3.6-4.26-6.77-7.91-8.11-3.65-1.34-8.13-.6-10.76,2.27"/>
          <path d="m12.37,68.46c-4.41,4.98-6.93,11.76-5.58,18.42,1.2,5.9,5.94,11.28,11.9,12.62,3.47.78,6.93.16,9.73-2.07,2.54-2.03,4.37-4.9,5.48-7.93,2.21-6.03,1.33-13.1-2.66-18.19-2.21-2.81-5.35-4.87-8.94-5.33s-7.2.64-9.7,3.24c-1.34,1.39.78,3.52,2.12,2.12,3.8-3.97,9.92-2.74,13.41.94s4.72,9.56,3.43,14.6-5.32,10.67-11.25,9.86c-4.81-.66-8.78-4.61-10.22-9.13-1.91-5.96.38-12.51,4.4-17.05,1.28-1.44-.84-3.57-2.12-2.12h0Z"/>
        </g>
      </g>
      <g>
        <path class="cls-1" d="m59.22,82.68c-.6.68-.76,1.73-.33,2.53s1.42,1.27,2.29,1.04,1.52-1.16,1.38-2.06c-.07-.45-.31-.86-.59-1.22-.37-.47-.86-.91-1.46-.94s-1.21.58-.99,1.13"/>
        <path d="m58.16,81.62c-.46.54-.82,1.17-.94,1.88-.13.84-.04,1.61.33,2.39.57,1.22,2.07,2.04,3.4,1.91.8-.08,1.52-.38,2.1-.95.48-.47.86-1.13.96-1.79.08-.48.08-.85-.02-1.33-.07-.38-.25-.76-.44-1.09-.38-.64-.9-1.22-1.52-1.63-.84-.55-1.9-.61-2.78-.14-.93.49-1.53,1.68-1.18,2.71.13.37.34.69.69.9.32.19.8.27,1.16.15.73-.24,1.32-1.05,1.05-1.85-.02-.05-.03-.1-.04-.16l.05.4c0-.06,0-.11,0-.16l-.05.4c.01-.07.03-.14.06-.21l-.15.36c.03-.07.07-.13.12-.19l-.23.3c.06-.08.13-.14.21-.2l-.3.23c.08-.06.16-.1.25-.14l-.36.15c.07-.03.15-.05.22-.06l-.4.05c.1-.01.2,0,.3,0l-.4-.05c.12.02.24.05.36.1l-.36-.15c.16.07.3.16.43.26l-.3-.23c.2.16.38.35.54.56l-.23-.3c.18.23.33.47.45.74l-.15-.36c.07.17.12.35.15.54l-.05-.4c.01.14.01.27,0,.41l.05-.4c-.02.16-.06.3-.12.45l.15-.36c-.07.16-.16.31-.26.46l.23-.3c-.11.14-.23.26-.37.37l.3-.23c-.13.09-.26.17-.41.23l.36-.15c-.15.06-.3.1-.45.12l.4-.05c-.16.02-.31.02-.47,0l.4.05c-.2-.03-.38-.08-.56-.15l.36.15c-.16-.07-.31-.16-.46-.27l.3.23c-.14-.11-.27-.23-.38-.37l.23.3c-.11-.14-.2-.3-.27-.46l.15.36c-.07-.17-.11-.35-.14-.53l.05.4c-.02-.21-.02-.41,0-.61l-.05.4c.03-.21.08-.4.16-.59l-.15.36c.08-.19.18-.37.31-.53l-.23.3s.05-.06.08-.09c.26-.31.44-.65.44-1.06,0-.37-.16-.81-.44-1.06s-.66-.46-1.06-.44-.8.14-1.06.44h0Z"/>
      </g>
      <g>
        <path class="cls-1" d="m19.36,85.47c-.6.68-.76,1.73-.33,2.53s1.42,1.27,2.29,1.04,1.52-1.16,1.38-2.06c-.07-.45-.31-.86-.59-1.22-.37-.47-.86-.91-1.46-.94s-1.21.58-.99,1.13"/>
        <path d="m18.3,84.41c-.46.54-.82,1.17-.94,1.88-.13.84-.04,1.61.33,2.39.57,1.22,2.07,2.04,3.4,1.91.8-.08,1.52-.38,2.1-.95.48-.47.86-1.13.96-1.79.08-.48.08-.85-.02-1.33-.07-.38-.25-.76-.44-1.09-.38-.64-.9-1.22-1.52-1.63-.84-.55-1.9-.61-2.78-.14-.93.49-1.53,1.68-1.18,2.71.13.37.34.69.69.9.32.19.8.27,1.16.15.73-.24,1.32-1.05,1.05-1.85-.02-.05-.03-.1-.04-.16l.05.4c0-.06,0-.11,0-.16l-.05.4c.01-.07.03-.14.06-.21l-.15.36c.03-.07.07-.13.12-.19l-.23.3c.06-.08.13-.14.21-.2l-.3.23c.08-.06.16-.1.25-.14l-.36.15c.07-.03.15-.05.22-.06l-.4.05c.1-.01.2,0,.3,0l-.4-.05c.12.02.24.05.36.1l-.36-.15c.16.07.3.16.43.26l-.3-.23c.2.16.38.35.54.56l-.23-.3c.18.23.33.47.45.74l-.15-.36c.07.17.12.35.15.54l-.05-.4c.01.14.01.27,0,.41l.05-.4c-.02.16-.06.3-.12.45l.15-.36c-.07.16-.16.31-.26.46l.23-.3c-.11.14-.23.26-.37.37l.3-.23c-.13.09-.26.17-.41.23l.36-.15c-.15.06-.3.1-.45.12l.4-.05c-.16.02-.31.02-.47,0l.4.05c-.2-.03-.38-.08-.56-.15l.36.15c-.16-.07-.31-.16-.46-.27l.3.23c-.14-.11-.27-.23-.38-.37l.23.3c-.11-.14-.2-.3-.27-.46l.15.36c-.07-.17-.11-.35-.14-.53l.05.4c-.02-.21-.02-.41,0-.61l-.05.4c.03-.21.08-.4.16-.59l-.15.36c.08-.19.18-.37.31-.53l-.23.3s.05-.06.08-.09c.26-.31.44-.65.44-1.06,0-.37-.16-.81-.44-1.06s-.66-.46-1.06-.44-.8.14-1.06.44h0Z"/>
      </g>
    </g>
  </g>
</svg>