<?xml version="1.0" encoding="UTF-8"?>
<svg id="_레이어_2" data-name="레이어 2" xmlns="http://www.w3.org/2000/svg" viewBox="0 0 122.26 104.54">
  <defs>
    <style>
      .cls-1 {
        fill: #fff;
      }
    </style>
  </defs>
  <g id="_레이어_1-2" data-name="레이어 1">
    <g>
      <g>
        <g>
          <path class="cls-1" d="m105.89,62.65c2.24-1.7,4.94-2.78,7.73-3.11,1.91-.22,4.02-.03,5.44,1.26,1.6,1.46,1.87,3.87,1.66,6.02-.52,5.45-3.52,10.61-7.99,13.76-4.47,3.15-10.34,4.24-15.65,2.89"/>
          <path d="m106.64,63.94c1.75-1.29,3.67-2.22,5.79-2.69,1.74-.39,4.09-.65,5.56.61,1.37,1.18,1.38,3.32,1.22,4.96-.18,1.9-.73,3.81-1.55,5.53-3.58,7.58-12.03,11.65-20.2,9.67-1.88-.45-2.68,2.44-.8,2.89,7.79,1.88,16.21-.84,21.17-7.19,2.35-3.01,3.85-6.58,4.31-10.37.44-3.58-.47-7.56-4.21-8.92-4.18-1.52-9.43.4-12.82,2.91-1.54,1.13-.04,3.74,1.51,2.59h0Z"/>
        </g>
        <g>
          <path class="cls-1" d="m16.95,53.66c-2.05-1.78-4.74-3.35-7.46-3.73-1.18-.16-2.42-.05-3.48.51-2.06,1.08-3.1,3.52-3.76,5.62-.76,2.4-1.14,5.15-.42,7.61.68,2.36,2.04,4.48,3.67,6.29,3.89,4.32,9.77,8.53,15.81,8.52"/>
          <path d="m18.01,52.6c-2.83-2.4-6.64-4.67-10.5-4.15s-5.6,3.79-6.66,7.06c-1.24,3.85-1.2,7.74.66,11.38,1.75,3.41,4.68,6.22,7.71,8.5,3.5,2.63,7.64,4.53,12.08,4.59,1.93.03,1.93-2.97,0-3-4.05-.06-7.81-1.99-10.92-4.46s-5.92-5.35-7.05-9.05c-.62-2.03-.42-4.17.13-6.2.42-1.55.97-3.23,2.02-4.48,2.78-3.32,7.91-.2,10.41,1.93,1.46,1.24,3.6-.87,2.12-2.12h0Z"/>
        </g>
        <g>
          <path class="cls-1" d="m24.63,16.67c-6.43,9.74-6.97,22.14-6.66,33.81.4,15.05,2.54,31.5,13.5,41.82,9.58,9.02,23.78,11.16,36.94,10.65,8.13-.31,16.87-1.77,22.58-7.57,3.19-3.24,5.09-7.52,6.79-11.73,5.16-12.75,9.24-25.94,12.18-39.39"/>
          <path d="m23.34,15.91c-7.44,11.43-7.4,26.02-6.68,39.15.65,12.1,2.75,24.94,10.47,34.7,8.11,10.26,21.19,14.06,33.78,14.66s26.9-.54,34.17-11.83c2.14-3.33,3.58-7.08,5.02-10.75,1.56-3.97,3.02-7.99,4.37-12.04,2.76-8.25,5.06-16.65,6.93-25.14.41-1.88-2.48-2.69-2.89-.8-3.12,14.19-7.31,28.39-13.15,41.71-1.27,2.89-2.74,5.79-4.87,8.15-1.98,2.19-4.47,3.85-7.19,4.99-5.53,2.32-11.72,2.76-17.64,2.81-11.88.11-24.89-2.13-33.67-10.8-8.39-8.29-11.11-20.44-12.07-31.79-.59-6.98-.78-14.09-.22-21.07.57-7.18,2.26-14.33,6.24-20.42,1.06-1.62-1.54-3.13-2.59-1.51h0Z"/>
        </g>
        <path d="m77.56,52.14h.29c.21,0,.4-.04.58-.13.19-.06.35-.16.48-.31.15-.14.25-.3.31-.48.09-.18.14-.37.13-.58l-.05-.4c-.07-.25-.2-.47-.39-.66l-.3-.23c-.23-.14-.49-.2-.76-.2h-.29c-.21,0-.4.04-.58.13-.19.06-.35.16-.48.31-.15.14-.25.3-.31.48-.09.18-.14.37-.13.58l.05.4c.07.25.2.47.39.66l.3.23c.23.14.49.2.76.2h0Z"/>
        <path d="m45.27,48.29h.26c.21,0,.4-.04.58-.13.19-.06.35-.16.48-.31.15-.14.25-.3.31-.48.09-.18.14-.37.13-.58l-.05-.4c-.07-.25-.2-.47-.39-.66l-.3-.23c-.23-.14-.49-.2-.76-.2h-.26c-.21,0-.4.04-.58.13-.19.06-.35.16-.48.31-.15.14-.25.3-.31.48-.09.18-.14.37-.13.58l.05.4c.07.25.2.47.39.66l.3.23c.23.14.49.2.76.2h0Z"/>
        <g>
          <path class="cls-1" d="m60.02,40.28c-.64,7.33-1.01,14.68-1.13,22.04"/>
          <path d="m58.52,40.28c-.63,7.33-1.01,14.68-1.13,22.04-.03,1.93,2.97,1.93,3,0,.12-7.36.5-14.71,1.13-22.04.17-1.92-2.84-1.91-3,0h0Z"/>
        </g>
        <g>
          <path class="cls-1" d="m62.21,61.73l-.09.83"/>
          <path d="m60.71,61.73l-.09.83c0,.21.04.4.13.58.06.19.16.35.31.48.14.15.3.25.48.31.18.09.37.14.58.13l.4-.05c.25-.07.47-.2.66-.39l.23-.3c.14-.23.2-.49.2-.76l.09-.83c0-.21-.04-.4-.13-.58-.06-.19-.16-.35-.31-.48-.14-.15-.3-.25-.48-.31-.18-.09-.37-.14-.58-.13l-.4.05c-.25.07-.47.2-.66.39l-.23.3c-.14.23-.2.49-.2.76h0Z"/>
        </g>
        <g>
          <path class="cls-1" d="m66.06,62.03c-.11.26-.03.58.18.77"/>
          <path d="m64.61,61.64s-.02.07-.03.11c0,.02,0,.04,0,.06-.02.15-.05.3-.06.44,0,.04,0,.07,0,.11.01.15.04.3.06.44,0,.02,0,.04.01.06,0,.03.02.07.03.1.05.13.11.27.17.4,0,.02.02.03.03.05.08.13.21.29.29.39.02.03.05.06.08.08.14.15.3.25.48.31.18.09.37.14.58.13.21,0,.4-.04.58-.13.19-.06.35-.16.48-.31l.23-.3c.14-.23.2-.49.2-.76l-.05-.4c-.07-.25-.2-.47-.39-.66-.03-.03-.05-.05-.08-.08l.23.3s-.07-.1-.09-.15l.15.36c-.03-.06-.04-.13-.05-.19l.05.4c0-.06,0-.12,0-.18l-.05.4c0-.06.02-.11.04-.16.06-.2.07-.4.03-.6,0-.2-.07-.39-.18-.56-.09-.17-.22-.32-.39-.42-.14-.13-.31-.22-.51-.27l-.4-.05c-.27,0-.52.07-.76.2l-.3.23c-.19.19-.31.41-.39.66h0Z"/>
        </g>
        <g>
          <path class="cls-1" d="m65.69,40.32c.85,7.46,2.06,14.87,3.61,22.22"/>
          <path d="m64.19,40.32c.88,7.59,2.09,15.14,3.66,22.62.4,1.89,3.29,1.09,2.89-.8-1.52-7.22-2.71-14.5-3.55-21.82-.09-.81-.62-1.49-1.5-1.5-.74,0-1.59.7-1.5,1.5h0Z"/>
        </g>
        <path d="m41.88,64.83h.36c.21,0,.4-.04.58-.13.19-.06.35-.16.48-.31.15-.14.25-.3.31-.48.09-.18.14-.37.13-.58l-.05-.4c-.07-.25-.2-.47-.39-.66l-.3-.23c-.23-.14-.49-.2-.76-.2h-.36c-.21,0-.4.04-.58.13-.19.06-.35.16-.48.31-.15.14-.25.3-.31.48-.09.18-.14.37-.13.58l.05.4c.07.25.2.47.39.66l.3.23c.23.14.49.2.76.2h0Z"/>
        <g>
          <path class="cls-1" d="m36.65,59.45l.49.06"/>
          <path d="m36.65,60.95l.49.06c.21,0,.4-.04.58-.13.19-.06.35-.16.48-.31.15-.14.25-.3.31-.48.09-.18.14-.37.13-.58l-.05-.4c-.07-.25-.2-.47-.39-.66l-.3-.23c-.23-.14-.49-.2-.76-.2l-.49-.06c-.21,0-.4.04-.58.13-.19.06-.35.16-.48.31-.15.14-.25.3-.31.48-.09.18-.14.37-.13.58l.05.4c.07.25.2.47.39.66l.3.23c.23.14.49.2.76.2h0Z"/>
        </g>
        <g>
          <path class="cls-1" d="m31.74,62.95c.12.08.29.08.42.02"/>
          <path d="m30.99,64.25s.03.02.05.03c.12.05.25.11.37.16,0,0,0,0,.01,0,0,0,.02,0,.03,0,.02,0,.04,0,.06.01.15.02.3.05.45.06.02,0,.04,0,.06,0,0,0,0,0,.01,0,.13-.01.28-.04.41-.05,0,0,.02,0,.03,0,.02,0,.04,0,.06-.02,0,0,0,0,.01,0,.11-.05.25-.1.36-.15.01,0,.02,0,.03-.01.17-.09.32-.22.42-.39.13-.14.22-.31.27-.51.06-.2.07-.4.03-.6,0-.2-.07-.39-.18-.56l-.23-.3c-.19-.19-.41-.31-.66-.39l-.4-.05c-.27,0-.52.07-.76.2,0,0-.02,0-.03.01l.36-.15s-.07.02-.11.03l.4-.05s-.08,0-.11,0l.4.05s-.07-.01-.11-.03l.36.15s-.04-.02-.06-.03c-.17-.11-.36-.17-.56-.18-.2-.04-.4-.04-.6.03-.2.05-.37.14-.51.27-.16.11-.29.25-.39.42l-.15.36c-.07.27-.07.53,0,.8l.15.36c.13.23.31.4.54.54h0Z"/>
        </g>
        <g>
          <path class="cls-1" d="m37.2,66.06c.09.06.2.08.3.06"/>
          <path d="m36.44,67.35s.02.01.03.02c0,0,.01,0,.02,0,0,0,0,0,0,0,.1.05.26.11.36.15.03.01.05.02.08.02,0,0,0,0,0,0,.12.02.28.04.4.05,0,0,.01,0,.02,0,.01,0,.03,0,.04,0,.01,0,.03,0,.04,0,.11-.01.29-.04.4-.05,0,0,0,0,0,0,0,0,.01,0,.02,0,.2-.05.37-.14.51-.27.16-.11.29-.25.39-.42.11-.17.17-.36.18-.56.04-.2.04-.4-.03-.6l-.15-.36c-.13-.23-.31-.4-.54-.54l-.36-.15c-.27-.07-.53-.07-.8,0-.01,0-.02,0-.03,0l.4-.05s-.07,0-.11,0l.4.05s-.07-.01-.1-.03l.36.15s-.05-.02-.07-.04c-.17-.11-.36-.17-.56-.18-.2-.04-.4-.04-.6.03-.2.05-.37.14-.51.27-.16.11-.29.25-.39.42l-.15.36c-.07.27-.07.53,0,.8l.15.36c.13.23.31.4.54.54h0Z"/>
        </g>
        <g>
          <path class="cls-1" d="m85.57,64.37l.62.47"/>
          <path d="m84.81,65.66l.62.47c.17.11.36.17.56.18.2.04.4.04.6-.03.2-.05.37-.14.51-.27.16-.11.29-.25.39-.42l.15-.36c.07-.27.07-.53,0-.8l-.15-.36c-.13-.23-.31-.4-.54-.54l-.62-.47c-.17-.11-.36-.17-.56-.18-.2-.04-.4-.04-.6.03-.2.05-.37.14-.51.27-.16.11-.29.25-.39.42l-.15.36c-.07.27-.07.53,0,.8l.15.36c.13.23.31.4.54.54h0Z"/>
        </g>
        <g>
          <path class="cls-1" d="m87.03,68.73c.23.11.44.28.61.49"/>
          <path d="m86.28,70.02c.11.05.21.11.3.19l-.3-.23c.11.09.22.19.31.3.14.15.3.25.48.31.18.09.37.14.58.13.21,0,.4-.04.58-.13.19-.06.35-.16.48-.31l.23-.3c.14-.23.2-.49.2-.76l-.05-.4c-.07-.25-.2-.47-.39-.66-.08-.1-.18-.2-.28-.28-.12-.1-.25-.19-.37-.29-.03-.02-.05-.04-.08-.06-.06-.04-.11-.07-.18-.1-.17-.11-.36-.17-.56-.18-.2-.04-.4-.04-.6.03-.2.05-.37.14-.51.27-.16.11-.29.25-.39.42l-.15.36c-.07.27-.07.53,0,.8l.15.36c.13.23.31.4.54.54h0Z"/>
        </g>
        <g>
          <path class="cls-1" d="m80.72,67.21c.17.14.3.33.38.54"/>
          <path d="m79.65,68.28c.07.06.14.13.19.2l-.23-.3c.07.09.12.18.16.28l-.15-.36s.02.04.02.06c.05.2.14.37.27.51.11.16.25.29.42.39.17.11.36.17.56.18.2.04.4.04.6-.03l.36-.15c.23-.13.4-.31.54-.54l.15-.36c.07-.27.07-.53,0-.8-.05-.15-.12-.29-.18-.43-.01-.03-.02-.05-.04-.08-.03-.05-.06-.1-.09-.15,0-.01-.02-.02-.02-.03-.08-.11-.17-.22-.26-.33-.02-.02-.04-.04-.05-.06-.04-.04-.08-.08-.13-.12-.14-.15-.3-.25-.48-.31-.18-.09-.37-.14-.58-.13-.21,0-.4.04-.58.13-.19.06-.35.16-.48.31l-.23.3c-.14.23-.2.49-.2.76l.05.4c.07.25.2.47.39.66h0Z"/>
        </g>
        <g>
          <path class="cls-1" d="m62.27,66.6c-2.28.06-4.77.39-6.35,2.04-.48.5-.86,1.19-.67,1.86.19.67.92,1.06,1.62,1.11s1.37-.17,2.05-.33c3.83-.92,7.88-.14,11.6,1.17.47.16.98.34,1.45.19.77-.24,1.05-1.28.74-2.03s-1-1.26-1.69-1.67c-2.38-1.44-5.1-2.31-7.87-2.6"/>
          <path d="m62.27,65.1c-2.83.09-6.29.59-7.98,3.19-.92,1.41-.72,3.25.73,4.22s3.05.47,4.61.13c3.29-.72,6.74-.01,9.88,1.03,1.57.52,3.31.87,4.35-.76.83-1.3.46-2.95-.52-4.05-1.15-1.3-2.99-2.06-4.56-2.69-1.81-.73-3.7-1.13-5.64-1.35-.81-.09-1.5.75-1.5,1.5,0,.89.69,1.41,1.5,1.5,1.5.17,2.99.54,4.41,1.07,1.16.43,2.62.99,3.49,1.9.14.15.17.27.28.41.07.03.06.1-.04.21l.1-.15c.21-.05.24-.08.1-.08-.19-.05-.39-.11-.58-.18-.41-.13-.81-.28-1.22-.4-1.43-.45-2.89-.79-4.38-1s-3.01-.29-4.52-.14c-.82.08-1.63.22-2.42.41-.55.13-1.09.33-1.64.19-.12-.03-.03,0-.03.1,0-.22.32-.5.47-.63.38-.35.84-.61,1.31-.8,1.2-.48,2.52-.57,3.79-.61,1.93-.06,1.93-3.06,0-3h0Z"/>
        </g>
        <g>
          <path class="cls-1" d="m62.33,82.36c1.12.9,1.37,2.51,1.31,3.95-.07,1.59-.39,3.16-.97,4.64.24-.11.49-.22.73-.33"/>
          <path d="m61.27,83.42c.13.11.24.22.35.33.11.13.1.12-.01-.02.05.07.09.13.13.2.04.07.24.53.11.19.04.12.08.23.12.35.05.16.08.32.12.48.02.08.03.16.04.25-.03-.19-.03-.2,0-.02.02.31.04.63.03.94,0,.38-.04.76-.08,1.14-.02.19-.02.21,0,.07-.01.1-.03.21-.05.31-.03.18-.06.36-.1.55-.16.81-.4,1.59-.69,2.36-.21.55.11,1.24.54,1.58.51.39,1.1.37,1.67.12.24-.11.49-.22.73-.33.72-.32.94-1.42.54-2.05-.48-.74-1.28-.88-2.05-.54-.24.11-.49.22-.73.33l2.2,1.69c.66-1.73,1.04-3.62,1.03-5.47,0-1.65-.43-3.47-1.75-4.57-.6-.5-1.54-.63-2.12,0-.51.56-.64,1.58,0,2.12h0Z"/>
        </g>
        <path d="m107.47,70.82c2.72.26,5.41-.68,7.52-2.38.61-.5.55-1.61,0-2.12-.65-.6-1.47-.53-2.12,0-.13.1-.11.09.05-.04-.06.04-.11.08-.17.13-.12.08-.23.16-.35.24-.24.15-.48.3-.74.43-.13.07-.26.12-.38.19-.28.14.28-.1-.03.02-.27.1-.53.2-.8.28s-.55.15-.83.2c-.1.02-.21.04-.31.06-.17.02-.14.02.08,0-.07,0-.14.02-.21.02-.57.05-1.13.05-1.7,0-.78-.08-1.53.74-1.5,1.5.04.88.66,1.42,1.5,1.5h0Z"/>
        <path d="m109.19,70.38c-.01.11-.02.22-.04.33l.05-.4c-.07.47-.17.93-.32,1.37-.04.12-.08.24-.13.35-.02.05-.1.24,0,.01s.01-.04,0,.01c-.1.23-.22.45-.34.66-.12.2-.24.4-.38.59-.03.05-.07.09-.1.13-.12.17.07-.07.08-.11-.05.1-.17.2-.24.29-.16.18-.32.35-.49.51-.08.08-.16.15-.25.22s-.47.37-.09.08c-.32.25-.58.49-.69.9-.1.36-.05.84.15,1.16s.51.6.9.69.84.09,1.16-.15c1.05-.8,1.95-1.74,2.59-2.9s1.01-2.42,1.13-3.75c.03-.36-.19-.81-.44-1.06-.26-.26-.69-.46-1.06-.44-.88.04-1.42.66-1.5,1.5h0Z"/>
        <path d="m7.47,57.53c1.62,2.48,3.89,4.54,6.57,5.83.71.34,1.65.22,2.05-.54.35-.67.22-1.69-.54-2.05-.59-.28-1.16-.6-1.71-.96-.27-.18-.54-.37-.8-.56-.28-.21.26.21,0,0-.05-.04-.1-.08-.15-.12-.14-.11-.28-.23-.41-.35-.49-.43-.95-.89-1.38-1.38-.11-.12-.21-.25-.32-.37-.05-.06-.1-.13-.15-.19-.17-.21.13.18.02.03-.2-.28-.4-.55-.59-.84-.43-.66-1.35-.99-2.05-.54-.65.42-1,1.35-.54,2.05h0Z"/>
        <path d="m9,60.14c-.67,3.07-.13,6.36,1.6,9.01.43.66,1.35.99,2.05.54.65-.42,1-1.35.54-2.05-.19-.29-.37-.59-.53-.9-.07-.13-.14-.27-.2-.41-.03-.06-.05-.12-.08-.18.07.16.07.16,0,0-.23-.61-.42-1.23-.54-1.87-.01-.06-.1-.62-.05-.24-.02-.13-.03-.26-.04-.39-.03-.35-.04-.69-.04-1.04,0-.3.03-.61.05-.91.02-.18.02-.17,0,.01.01-.09.03-.17.04-.26.03-.17.06-.34.1-.51.17-.76-.23-1.66-1.05-1.85-.76-.17-1.67.23-1.85,1.05h0Z"/>
      </g>
      <g>
        <g>
          <path class="cls-1" d="m19.62,27.91c.96-5.15,3.63-9.75,7.06-13.26,3.42-3.52,8.39-7.52,12.69-9.4,8.76-3.82,18.48-4.82,26.82-2.43"/>
          <path d="m21.06,28.3c1.4-7.17,5.96-12.53,11.51-16.99,5.95-4.79,13.19-7.52,20.79-8.15,4.19-.35,8.37-.03,12.42,1.1,1.86.52,2.66-2.37.8-2.89-15.48-4.34-33.01,1.89-42.9,14.41-2.71,3.44-4.67,7.41-5.51,11.72-.37,1.89,2.52,2.69,2.89.8h0Z"/>
        </g>
        <g>
          <path class="cls-1" d="m69.59,3.59c7.39-.7,16.09,1.26,23.03,5.93,7.66,5.16,13.37,13.45,16.25,23.04,1.46,4.86,1.81,10.28.27,15.11"/>
          <path d="m69.59,5.09c8.39-.74,17.08,1.71,23.79,6.82,6.46,4.91,11.07,12.07,13.61,19.71,1.69,5.08,2.29,10.48.7,15.66-.57,1.85,2.33,2.64,2.89.8,2.85-9.29-.5-19.53-5.47-27.5s-11.85-13.7-20.49-16.62c-4.8-1.62-9.98-2.32-15.04-1.87-1.91.17-1.93,3.17,0,3h0Z"/>
        </g>
        <g>
          <path class="cls-1" d="m37.14,11.87c-2.38,4.27-6.33,7.36-10.67,8.36"/>
          <path d="m35.84,11.12c-1.12,1.98-2.47,3.61-4.3,5.05-1.55,1.21-3.45,2.14-5.47,2.62-.79.19-1.26,1.08-1.05,1.85.22.81,1.05,1.23,1.85,1.05,4.94-1.17,9.1-4.67,11.57-9.05.4-.71.17-1.64-.54-2.05s-1.65-.17-2.05.54h0Z"/>
        </g>
        <g>
          <path class="cls-1" d="m43.27,9.32c-1.86,4.57-5.47,8.16-9.68,9.63"/>
          <path d="m41.82,8.92c-.13.31.04-.07-.09.2-.06.14-.13.28-.19.41-.13.27-.27.54-.41.81-.26.48-.54.96-.84,1.41-.16.25-.33.49-.51.73,0,0-.28.37-.12.17-.09.12-.18.23-.28.34-.36.43-.73.84-1.13,1.24s-.8.76-1.23,1.11c-.04.03-.36.28-.15.12-.11.09-.23.17-.34.25-.21.15-.43.3-.64.44-.45.29-.92.56-1.4.8-.25.12-.5.24-.76.35.2-.08,0,0-.09.03-.15.06-.3.11-.45.17-.74.26-1.31,1.04-1.05,1.85.24.73,1.05,1.33,1.85,1.05,5.01-1.78,8.73-5.83,10.73-10.68.3-.73-.32-1.68-1.05-1.85-.87-.2-1.52.27-1.85,1.05h0Z"/>
        </g>
        <g>
          <path class="cls-1" d="m44.39,8.43c.93,3.36,3.13,6.23,5.92,7.72"/>
          <path d="m42.95,8.83c1,3.56,3.32,6.84,6.61,8.61.69.37,1.66.19,2.05-.54s.2-1.65-.54-2.05c-.33-.18-.65-.37-.96-.58-.09-.06-.19-.13-.28-.2-.03-.03-.29-.22-.12-.09s-.11-.09-.12-.1c-.07-.06-.15-.12-.22-.18-.29-.25-.57-.52-.83-.8-.15-.16-.29-.31-.43-.48-.05-.06-.1-.12-.15-.18-.03-.04-.27-.36-.06-.07-.47-.64-.9-1.31-1.26-2.02-.09-.18-.18-.36-.26-.55-.02-.05-.17-.42-.04-.09-.04-.09-.08-.19-.11-.28-.15-.4-.28-.81-.4-1.22-.21-.76-1.07-1.3-1.85-1.05s-1.27,1.04-1.05,1.85h0Z"/>
        </g>
        <g>
          <path class="cls-1" d="m49.3,8.02c1.61,4.6,5.46,8.08,9.74,8.81"/>
          <path d="m47.85,8.42c1.69,4.77,5.67,8.95,10.79,9.86.77.14,1.65-.21,1.85-1.05.17-.73-.22-1.7-1.05-1.85-.53-.09-1.06-.22-1.57-.39-.13-.04-.26-.09-.38-.14-.03-.01-.37-.15-.2-.08.15.06-.22-.1-.26-.12-.1-.05-.21-.1-.31-.15-.49-.25-.97-.53-1.43-.84-.12-.08-.23-.16-.34-.24-.22-.15.04.04-.09-.06-.22-.18-.44-.36-.65-.55-.41-.37-.79-.76-1.15-1.17-.09-.11-.19-.22-.28-.33-.03-.04-.28-.36-.12-.15-.16-.21-.31-.43-.46-.65-.31-.47-.6-.96-.86-1.46-.14-.27-.26-.53-.38-.81.08.19-.02-.05-.05-.13-.06-.16-.12-.33-.18-.49-.27-.76-1.02-1.27-1.85-1.05-.74.2-1.32,1.08-1.05,1.85h0Z"/>
        </g>
        <g>
          <path class="cls-1" d="m58.52,7.74c.97,1.58,1.93,3.16,2.9,4.75.43.7.86,1.42,1.02,2.25.22,1.18-.15,2.4-.61,3.49-.61,1.44-1.38,2.79-2.19,4.1"/>
          <path d="m57.23,8.5c.72,1.19,1.45,2.37,2.17,3.56.57.93,1.45,1.97,1.59,3.08.14,1.04-.34,2.13-.77,3.05-.55,1.17-1.2,2.29-1.87,3.39-1.01,1.65,1.58,3.16,2.59,1.51.74-1.21,1.45-2.44,2.03-3.74.61-1.37,1.16-2.83,1.01-4.35s-.93-2.72-1.7-3.98c-.82-1.34-1.64-2.69-2.46-4.03-1-1.65-3.6-.14-2.59,1.51h0Z"/>
        </g>
        <g>
          <path class="cls-1" d="m64.78,13.09c.96,1.98,1.23,4.38.76,6.58-.15.7-.38,1.41-.31,2.13"/>
          <path d="m63.49,13.85c.04.09.08.18.12.27-.05-.13-.05-.12.02.05.05.14.1.28.15.42.11.33.21.67.28,1.01.04.2.08.39.12.59.06.32,0-.15.03.2s.06.7.06,1.05-.01.7-.04,1.06c0,.01-.07.48-.02.2-.03.2-.07.39-.11.59-.18.83-.42,1.67-.36,2.53.05.78.65,1.54,1.5,1.5.77-.03,1.55-.66,1.5-1.5-.01-.22-.02-.44.01-.66-.01.13,0,.09.03-.09.02-.11.05-.22.07-.33.08-.36.17-.72.24-1.09.14-.83.22-1.66.19-2.5-.06-1.68-.47-3.28-1.18-4.8-.34-.71-1.41-.95-2.05-.54-.73.47-.9,1.29-.54,2.05h0Z"/>
        </g>
        <g>
          <path class="cls-1" d="m69.53,17.89c.08.51-.07,1.03-.24,1.51-.48,1.31-1.17,2.52-2.03,3.55"/>
          <path d="m68.03,17.89c.03.21.02.42,0,.63l.05-.4c-.08.51-.27.99-.47,1.46l.15-.36c-.23.53-.48,1.04-.78,1.53-.14.24-.29.47-.45.69-.08.12-.16.24-.25.35.04-.04.2-.26.08-.1-.05.07-.11.13-.16.2-.26.31-.44.64-.44,1.06,0,.37.16.81.44,1.06.55.51,1.59.64,2.12,0,.69-.83,1.29-1.71,1.76-2.67.5-1.02,1.11-2.29.95-3.45-.05-.41-.13-.75-.44-1.06-.26-.26-.69-.46-1.06-.44s-.79.14-1.06.44c-.25.27-.49.68-.44,1.06h0Z"/>
        </g>
        <g>
          <path class="cls-1" d="m66.76,13.22c1.49,3.11,3.64,5.81,6.2,7.8"/>
          <path d="m65.46,13.98c1.51,3.12,3.7,5.97,6.44,8.1.33.26.63.44,1.06.44.37,0,.81-.16,1.06-.44.49-.54.66-1.61,0-2.12-1.29-1-2.45-2.16-3.47-3.43-.02-.02-.19-.23-.08-.1.12.15-.1-.13-.12-.16-.13-.17-.26-.35-.38-.52-.24-.34-.47-.68-.68-1.03-.45-.73-.86-1.48-1.24-2.25-.34-.71-1.41-.95-2.05-.54-.73.47-.9,1.29-.54,2.05h0Z"/>
        </g>
        <g>
          <path class="cls-1" d="m69.73,12.28c1.56,1.97,3.31,3.72,5.23,5.21-.04.03-.09.06-.13.09"/>
          <path d="m68.67,13.34c1.54,1.93,3.28,3.69,5.23,5.21l.3-2.36s-.09.06-.13.09c-.65.44-1,1.34-.54,2.05.42.65,1.36,1.01,2.05.54.04-.03.09-.06.13-.09.4-.27.65-.61.72-1.1.06-.42-.05-.98-.41-1.26-1.94-1.52-3.69-3.28-5.23-5.21-.22-.28-.72-.44-1.06-.44-.37,0-.81.16-1.06.44s-.46.66-.44,1.06c.02.42.18.73.44,1.06h0Z"/>
        </g>
        <g>
          <path class="cls-1" d="m74.71,12.74c.9.95,1.98,1.67,3.14,2.1"/>
          <path d="m73.64,13.8c1.06,1.12,2.36,1.95,3.8,2.49.35.13.85.03,1.16-.15s.61-.54.69-.9c.09-.38.07-.81-.15-1.16s-.51-.55-.9-.69c-.11-.04-.23-.09-.34-.13l.36.15c-.65-.28-1.25-.63-1.81-1.06l.3.23c-.35-.28-.69-.58-1-.91-.26-.27-.69-.44-1.06-.44s-.81.16-1.06.44-.46.66-.44,1.06.16.76.44,1.06h0Z"/>
        </g>
        <g>
          <path class="cls-1" d="m81.65,14.84c.05,2.92-1.27,5.83-3.4,7.45"/>
          <path d="m80.15,14.84c0,.34,0,.68-.04,1.02,0,.1,0,.2-.03.3.03-.11.03-.22,0-.04s-.06.35-.1.53c-.07.33-.16.65-.26.97-.05.17-.11.34-.18.5-.01.03-.11.28-.03.09.08-.2-.06.14-.07.14-.14.3-.29.59-.46.87-.14.24-.32.64-.54.81.14-.1.11-.14-.01,0-.05.06-.1.11-.15.17-.11.13-.23.25-.34.37-.24.24-.49.45-.75.66-.62.48-.55,1.62,0,2.12.66.61,1.46.52,2.12,0,2.54-1.97,3.87-5.35,3.84-8.51,0-.78-.68-1.54-1.5-1.5s-1.51.66-1.5,1.5h0Z"/>
        </g>
        <g>
          <path class="cls-1" d="m86.01,18.37c-.94,1.85-2.44,3.32-4.18,4.1"/>
          <path d="m84.71,17.62c-.27.54-.6,1.05-.96,1.52l.23-.3c-.47.6-1,1.14-1.6,1.6l.3-.23c-.5.38-1.04.71-1.62.97-.32.15-.6.57-.69.9-.1.36-.05.84.15,1.16s.51.6.9.69c.42.09.77.02,1.16-.15,2.03-.92,3.71-2.66,4.72-4.64.18-.36.26-.76.15-1.16-.1-.35-.36-.73-.69-.9-.69-.36-1.67-.21-2.05.54h0Z"/>
        </g>
        <g>
          <path class="cls-1" d="m88.45,19.96c.61,1.4,1.02,2.92,1.21,4.46"/>
          <path d="m87.16,20.71c.02.05.04.1.06.15l-.15-.36c.55,1.33.93,2.72,1.13,4.15l-.05-.4c0,.06.01.11.02.17.05.41.13.75.44,1.06.26.26.69.46,1.06.44s.79-.14,1.06-.44c.25-.27.49-.68.44-1.06-.12-.91-.27-1.8-.51-2.69s-.56-1.71-.91-2.54c-.14-.32-.58-.6-.9-.69-.36-.1-.84-.05-1.16.15s-.6.51-.69.9l-.05.4c0,.27.07.52.2.76h0Z"/>
        </g>
        <g>
          <path class="cls-1" d="m91.9,20.34c1.52,3.14,3.48,6,5.79,8.44"/>
          <path d="m90.6,21.1c1.55,3.2,3.59,6.16,6.03,8.74.54.57,1.58.59,2.12,0s.58-1.51,0-2.12-1.1-1.21-1.62-1.85c-.08-.09-.15-.19-.23-.28-.02-.02-.19-.24-.11-.13s-.09-.12-.1-.14c-.06-.08-.12-.16-.18-.23-.26-.35-.52-.71-.76-1.07-.96-1.41-1.81-2.89-2.56-4.42-.34-.71-1.41-.95-2.05-.54-.73.47-.91,1.3-.54,2.05h0Z"/>
        </g>
        <g>
          <path class="cls-1" d="m96.83,23.31c1.96,3.18,3.29,6.91,5.71,9.65,1.19,1.35,2.6,2.4,4,3.45"/>
          <path d="m95.54,24.06c1.46,2.4,2.55,5.01,4.04,7.39.75,1.19,1.61,2.33,2.62,3.32,1.1,1.08,2.35,2,3.58,2.93.65.49,1.68.1,2.05-.54.45-.77.11-1.57-.54-2.05-2.12-1.59-3.97-3.26-5.35-5.55s-2.42-4.74-3.81-7.01c-1-1.65-3.6-.14-2.59,1.51h0Z"/>
        </g>
      </g>
    </g>
  </g>
</svg>