<?xml version="1.0" encoding="UTF-8"?>
<svg id="_레이어_2" data-name="레이어 2" xmlns="http://www.w3.org/2000/svg" viewBox="0 0 124.86 92.11">
  <defs>
    <style>
      .cls-1 {
        fill: #fff;
      }
    </style>
  </defs>
  <g id="_레이어_1-2" data-name="레이어 1">
    <g>
      <g>
        <path class="cls-1" d="m80.63,87.55c12.24-2.79,23.24-8.42,29.64-20.24,1.57-2.9,2.58-6.11,3.17-9.4,2.4-13.45-2.93-28.12-13.23-36.4-3.17-2.55-6.74-4.51-10.4-6.18-11.04-5.01-23.11-7.37-35.12-7.31-5.31.03-10.65.53-15.73,2.17-8.07,2.6-12.8,8.03-13.59,16.47-.49,5.26,1.41,10.65,1.5,15.91.12,6.31-5.56,8.75-10.55,10.8-5.96,2.44-11.68,5.69-14.02,12.12-2.8,7.72,1.95,14.26,8.65,17.87,9.45,5.09,21.98,6.77,32.56,7.06,9.8.27,19.62-.13,29.34-1.48,2.63-.36,5.23-.82,7.78-1.4Z"/>
        <path d="m81.03,88.99c9.36-2.16,18.52-6.14,25.12-13.33,3.67-4,6.52-8.78,7.98-14.03s1.7-10.55.97-15.82c-1.38-10.04-6.47-19.67-14.54-25.91-4.74-3.66-10.28-6.22-15.88-8.26s-11.81-3.53-17.92-4.34-12.45-1.06-18.62-.44c-5.3.54-10.86,1.67-15.42,4.58-3.66,2.34-6.38,5.77-7.77,9.89-1.82,5.37-.94,10.75-.09,16.21.39,2.51,1.03,5.5.02,7.94-.77,1.85-2.38,3.15-4.05,4.14-4.07,2.41-8.71,3.57-12.62,6.3S.98,62.75.18,67.66s1.05,9.36,4.38,12.8c3.6,3.72,8.55,5.89,13.39,7.5,5.28,1.76,10.79,2.75,16.32,3.35,12.43,1.36,25.24.9,37.62-.73,3.07-.4,6.13-.91,9.15-1.59,1.88-.42,1.09-3.32-.8-2.89-11.96,2.69-24.5,3.18-36.72,2.83-10.32-.3-21.22-1.59-30.58-6.23-3.91-1.94-7.82-4.84-9.32-9.12s-.02-9.12,3.05-12.44,7.29-5.15,11.41-6.89c3.67-1.55,7.69-3.51,9.41-7.34,1.01-2.25.95-4.64.69-7.05-.32-2.9-.96-5.76-1.25-8.66-.44-4.47.24-9.09,2.8-12.88,2.26-3.34,5.86-5.46,9.63-6.68,5.67-1.84,11.69-2.22,17.62-2.1,11.59.23,23.25,2.78,33.7,7.85,4.78,2.32,9.2,5.24,12.72,9.26,3.11,3.55,5.47,7.78,7,12.23,3.27,9.55,2.95,20.58-2.38,29.34-4.79,7.88-12.52,13.09-21.15,16.02-2.17.74-4.39,1.34-6.63,1.86-1.88.43-1.08,3.33.8,2.89Z"/>
      </g>
      <g>
        <path class="cls-1" d="m46.36,6.04c.57-2.06,2.01-4.03,4.04-4.47s4.43,1.29,4.18,3.41c.99-1.49,2.76-2.39,4.5-2.3s3.42,1.16,4.27,2.74c.53-1.86,2.52-2.99,4.4-2.92s3.6,1.13,4.98,2.45c2.47-3.7,5.35-1.92,8.43-.84,2.78.98,5.77-1.05,8.8-.14,2.63.79,4.91,3.15,5.11,5.96,2.47-.74,5.09-1.49,7.59-.83s4.7,3.27,4.01,5.84c3.38-2.17,8.5-.3,9.8,3.59.43,1.28.54,2.78,1.53,3.67.49.44,1.12.66,1.63,1.08,2.51,2.04.2,6.28,1.04,9.46.26.99.83,1.85,1.29,2.75,1.93,3.77,1.89,8.54-.1,12.28-.25.46-.53.93-.6,1.45-.14.95.41,1.84.74,2.74,1.54,4.25-1.79,8.55-4.64,12.01-.78.95-1.58,2.02-1.59,3.26,0,.68.23,1.34.23,2.01.01,2.05-1.96,3.47-3.77,4.31-3.13,1.46-6.5,2.38-9.92,2.72,2.43-2.19,3.62-5.57,3.86-8.9s-.34-6.65-.93-9.93c-.19-1.08-.44-2.26-1.28-2.93-.53-.43-1.25-.59-1.73-1.08-1.24-1.23-.21-3.44,1.16-4.52-1.08-1.45-4.14-4.74-4.31-6.53-.14-1.4.77-2.83,2.06-3.27-1.24-.21-2.6-.63-3.24-1.75s.1-2.98,1.35-2.81c-1.38-.46-2.84-1-3.69-2.21s-.61-3.31.77-3.76c-.79,1.04-2.28,1.29-3.51.95s-2.29-1.16-3.32-1.96c-.47-.37-.95-.76-1.19-1.31s-.15-1.31.36-1.61c-.99-.04-2.04-.1-2.83-.72s-1.07-2-.29-2.63c-1.46.37-3.05.54-4.43-.08s-2.42-2.25-1.98-3.73c-.12.98-1.69,1-2.18.16s-.21-1.94.18-2.84c-.9.72-2.21.94-3.2.36s-1.45-2.05-.81-3.03c-1.13.63-2.3,1.28-3.59,1.33s-2.69-.68-3-1.97c-.47.65-1.14,1.14-1.89,1.38.26-.42.74-.68,1.22-.66-1.79.46-3.64.92-5.46.65s-3.65-1.46-4.14-3.3c-2.25,1.15-5.09.94-7.15-.54-1.67,1.29-4.26,1.05-5.69-.51"/>
        <path d="m47.8,6.44c.41-1.37,1.29-3.04,2.82-3.38,1.23-.28,2.52.64,2.45,1.92-.09,1.62,2,1.85,2.8.76,1.65-2.28,4.83-1.88,6.18.44.68,1.16,2.34.84,2.74-.36s1.6-1.81,2.79-1.82c1.57-.02,2.98.98,4.08,2.01.75.7,1.79.5,2.36-.3,1.16-1.63,2.46-1.67,4.24-1.07,1.99.67,3.64,1.42,5.81,1.16s4.23-1.04,6.26-.09c1.66.78,3.05,2.35,3.24,4.22.09.94.89,1.75,1.9,1.45,2.19-.65,4.68-1.49,6.96-.78,1.62.5,3.19,2.14,2.79,3.94-.27,1.23,1.03,2.4,2.2,1.69,1.73-1.05,3.85-.88,5.54.19.78.49,1.43,1.17,1.85,2,.58,1.17.63,2.53,1.26,3.68s1.66,1.5,2.61,2.34c.79.69.69,1.84.62,2.79-.17,2.44-.69,4.74.36,7.07.59,1.31,1.36,2.47,1.75,3.86s.53,2.84.43,4.29c-.09,1.3-.4,2.61-.92,3.81-.61,1.41-1.43,2.53-1.09,4.15.27,1.28,1.02,2.32,1.04,3.67s-.48,2.75-1.14,3.97-1.52,2.43-2.4,3.56-1.84,2.08-2.46,3.3c-.37.71-.62,1.51-.62,2.32,0,.72.29,1.43.22,2.15-.11,1.25-1.42,2.05-2.41,2.58-2.97,1.58-6.44,2.46-9.77,2.82l1.06,2.56c4-3.75,4.74-9.51,4.18-14.71-.16-1.48-.39-2.95-.65-4.41-.21-1.23-.36-2.54-.98-3.64-.3-.53-.71-1-1.2-1.36-.35-.26-1.18-.48-1.43-.84-.53-.78.62-1.94,1.16-2.39.45-.38.61-1.33.23-1.82-.94-1.25-6.21-6.34-3.15-7.59,1.2-.49,1.63-2.59,0-2.89-.65-.12-1.71-.25-2.16-.82-.17-.22-.29-.8-.13-.8,1.76.05,1.95-2.42.4-2.95-.93-.32-2.2-.68-2.81-1.53-.17-.24-.54-1.36-.11-1.54l-1.46-2.51c-.85.97-2.05.69-3.07.12-.35-.19-2.6-1.83-2.47-1.94,1.06-.89.13-2.51-1.06-2.56-.29-.01-2.52-.31-2.06-.79,1.06-1.09,0-2.86-1.46-2.51s-5.11.55-4.57-1.96c.41-1.88-2.41-2.68-2.89-.8.55-.24.69-.35.42-.34.17.22.2.17.08-.14.08-.5.2-.93.39-1.41.48-1.2-1.18-2.42-2.2-1.69-.46.32-1.13.72-1.69.36-.32-.21-.45-.64-.28-.98.69-1.32-.71-2.8-2.05-2.05-.97.54-3.78,2.15-4.38.26-.31-.97-1.76-1.6-2.51-.66-.35.44-.69.79-1.23,1l1.46,2.51.16-.22-.4-2.95c-2.38.61-6.73,1.64-7.76-1.6-.31-.98-1.31-1.32-2.2-.9-1.87.89-3.95.6-5.64-.54-.41-.28-1.11-.29-1.51,0-1.25.88-2.78.83-3.88-.28-1.37-1.37-3.49.75-2.12,2.12,1.98,1.99,5.18,2.38,7.51.75h-1.51c2.62,1.76,5.85,1.88,8.67.54l-2.2-.9c.64,2.01,2.19,3.43,4.17,4.1,2.37.8,4.94.19,7.28-.4,1.59-.41,1.32-3.13-.4-2.95-.93.1-1.67.36-2.28,1.1-.84,1.02-.09,3.1,1.46,2.51,1.02-.39,1.86-.91,2.55-1.77l-2.51-.66c.5,1.58,1.77,2.66,3.4,2.98,1.93.37,3.75-.53,5.39-1.45l-2.05-2.05c-.83,1.57-.53,3.46.79,4.67,1.47,1.34,3.73,1.13,5.27.05l-2.2-1.69c-.68,1.69-.81,4.01,1.05,5,1.48.79,3.42.15,3.85-1.52l-2.89-.8c-.43,1.98.38,3.93,2.07,5.07,1.84,1.24,4.13,1.08,6.19.58l-1.46-2.51c-1.11,1.15-1.14,2.81-.26,4.12.99,1.47,2.8,1.72,4.44,1.79l-1.06-2.56c-2.62,2.19.54,4.95,2.35,6.19,2.23,1.53,5.44,2.14,7.43-.13.88-1,.05-3.14-1.46-2.51-1.94.81-2.76,2.82-2.18,4.85.67,2.31,3.03,3.31,5.1,4.02l.4-2.95c-2.06-.06-3.32,2.02-3.03,3.91.34,2.21,2.54,3.24,4.52,3.6v-2.89c-2.56,1.05-3.87,3.76-2.71,6.35.95,2.13,2.67,3.81,4.06,5.65l.23-1.82c-1.63,1.38-2.87,3.93-1.68,5.96.27.45.65.83,1.08,1.13s1.07.45,1.43.87c.78.89.78,2.81.97,3.91.88,5.21,1.35,11.53-2.88,15.49-.89.83-.26,2.7,1.06,2.56,3.42-.37,6.7-1.19,9.86-2.56,2.41-1.04,5.11-2.73,5.32-5.64.06-.8-.27-1.57-.22-2.35.05-.7.47-1.3.87-1.85,1.01-1.35,2.14-2.6,3.09-4,1.71-2.52,3.08-5.54,2.52-8.65-.15-.83-.5-1.54-.78-2.32-.3-.83-.2-1.11.19-1.88.74-1.48,1.28-3,1.53-4.63.48-3.13,0-6.32-1.43-9.15-.69-1.37-1.32-2.44-1.28-4.01.03-1.39.34-2.76.36-4.15.02-1.17-.16-2.37-.8-3.38-.78-1.24-2.48-1.57-3.01-2.91-.57-1.43-.7-2.86-1.62-4.16-.8-1.12-1.87-2.05-3.11-2.66-2.51-1.24-5.47-1.29-7.9.18l2.2,1.69c.63-2.89-.96-5.72-3.54-7.07-3.12-1.64-6.72-.73-9.9.22l1.9,1.45c-.26-2.56-1.57-4.72-3.68-6.2-2.5-1.74-5.16-1.6-8.02-1.08-1.42.25-2.58.29-3.94-.22-1.06-.4-2.11-.85-3.22-1.06-2.7-.51-4.73.64-6.27,2.82l2.36-.3c-1.87-1.73-4.26-3.15-6.9-2.84-2.32.27-4.23,1.75-4.98,3.97l2.74-.36c-2.58-4.4-8.43-4.48-11.36-.44l2.8.76C56.23,2.17,53.59-.12,50.85,0c-3.07.14-5.13,2.92-5.94,5.63-.55,1.85,2.34,2.65,2.89.8h0Z"/>
      </g>
      <g>
        <path class="cls-1" d="m98.62,52.95c-.49-4.15,3.47-8.52,6.81-10.4,2.37-1.33,5.2-1.41,7.3.49,1.68,1.51,2.17,3.99,2.06,6.17-.21,4.16-1.91,8.24-4.61,11.38s-6.57,5.52-10.57,6.8"/>
        <path d="m100.12,52.95c-.33-3.72,2.78-7.16,5.79-8.94,1.56-.92,3.48-1.33,5.13-.37s2.19,2.76,2.27,4.52c.36,8.51-6.49,15.29-14.08,17.78-1.83.6-1.04,3.5.8,2.89,7.77-2.55,14.4-8.54,15.95-16.83.66-3.53.55-7.82-2.47-10.28-3.18-2.6-7.31-1.73-10.37.56-3.27,2.44-6.38,6.35-6,10.67.17,1.91,3.17,1.93,3,0h0Z"/>
      </g>
      <g>
        <path class="cls-1" d="m40.92,45.83c-.87,2-1.73,3.99-2.6,5.99"/>
        <path d="m39.62,45.07c-.87,2-1.73,3.99-2.6,5.99-.17.38-.27.73-.15,1.16.1.35.36.73.69.9.65.34,1.72.23,2.05-.54.87-2,1.73-3.99,2.6-5.99.17-.38.27-.73.15-1.16-.1-.35-.36-.73-.69-.9-.65-.34-1.72-.23-2.05.54h0Z"/>
      </g>
      <g>
        <path class="cls-1" d="m71.59,47.04c-.43,1.92-.87,3.85-1.3,5.77"/>
        <path d="m70.14,46.64c-.43,1.92-.87,3.85-1.3,5.77-.17.76.23,1.66,1.05,1.85.76.17,1.66-.23,1.85-1.05.43-1.92.87-3.85,1.3-5.77.17-.76-.23-1.66-1.05-1.85-.76-.17-1.66.23-1.85,1.05h0Z"/>
      </g>
      <g>
        <path class="cls-1" d="m38.13,29.14c3.12-1.04,6.66-.54,9.41,1.34"/>
        <path d="m38.53,30.59c2.83-.92,5.72-.51,8.25,1.19.65.44,1.69.15,2.05-.54.4-.76.16-1.58-.54-2.05-3.06-2.06-7.05-2.63-10.56-1.49-.74.24-1.31,1.05-1.05,1.85.24.74,1.05,1.31,1.85,1.05h0Z"/>
      </g>
      <g>
        <path class="cls-1" d="m67.28,34.38c3.79-1.34,7.82-1.94,11.82-1.76"/>
        <path d="m67.67,35.83c3.68-1.29,7.52-1.87,11.42-1.71.81.03,1.5-.71,1.5-1.5,0-.84-.69-1.47-1.5-1.5-4.14-.17-8.31.45-12.21,1.82-.76.27-1.27,1.03-1.05,1.85.2.74,1.08,1.32,1.85,1.05h0Z"/>
      </g>
      <g>
        <path class="cls-1" d="m50.74,55.58c.19.57.24,1.2.14,1.8"/>
        <path d="m49.3,55.98c.07.22.13.45.16.68l-.05-.4c.05.34.05.68,0,1.03l.05-.4s0,.07-.01.1c-.06.2-.07.4-.03.6,0,.2.07.39.18.56.09.17.22.32.39.42.14.13.31.22.51.27.38.09.81.07,1.16-.15l.3-.23c.19-.19.31-.41.39-.66.07-.43.13-.87.09-1.31s-.1-.87-.24-1.29c-.05-.2-.14-.37-.27-.51-.11-.16-.25-.29-.42-.39-.17-.11-.36-.17-.56-.18-.2-.04-.4-.04-.6.03-.36.12-.71.34-.9.69s-.28.77-.15,1.16h0Z"/>
      </g>
      <g>
        <path class="cls-1" d="m57.74,54.79l-.16,2.01"/>
        <path d="m56.24,54.79l-.16,2.01c0,.21.04.4.13.58.06.19.16.35.31.48.14.15.3.25.48.31.18.09.37.14.58.13.39-.02.79-.14,1.06-.44l.23-.3c.14-.23.2-.49.2-.76l.16-2.01c0-.21-.04-.4-.13-.58-.06-.19-.16-.35-.31-.48-.14-.15-.3-.25-.48-.31-.18-.09-.37-.14-.58-.13-.39.02-.79.14-1.06.44l-.23.3c-.14.23-.2.49-.2.76h0Z"/>
      </g>
      <g>
        <path class="cls-1" d="m46.79,71.15c4.93.66,9.96.74,14.92.24"/>
        <path d="m46.79,72.65c4.95.65,9.95.73,14.92.24.81-.08,1.5-.63,1.5-1.5,0-.75-.69-1.58-1.5-1.5-4.97.5-9.97.42-14.92-.24-.8-.11-1.5.77-1.5,1.5,0,.9.69,1.39,1.5,1.5h0Z"/>
      </g>
      <g>
        <path class="cls-1" d="m63.63,66.61c-2.04,3.4-2.49,7.82-1.2,11.61"/>
        <path d="m62.33,65.85c-2.24,3.8-2.75,8.57-1.35,12.76.26.77,1.03,1.27,1.85,1.05.75-.21,1.31-1.07,1.05-1.85-1.16-3.47-.82-7.28,1.05-10.45.98-1.67-1.61-3.18-2.59-1.51h0Z"/>
      </g>
      <g>
        <path class="cls-1" d="m43.38,66.36c2.48,3.12,3.27,7.66,1.99,11.52"/>
        <path d="m42.32,67.42c2.16,2.76,2.68,6.72,1.61,10.06-.25.77.29,1.64,1.05,1.85.81.22,1.6-.27,1.85-1.05,1.42-4.42.46-9.34-2.38-12.98-.5-.64-1.6-.52-2.12,0-.63.63-.5,1.48,0,2.12h0Z"/>
      </g>
      <g>
        <path class="cls-1" d="m106.59,49.81c-.73,2.24-2.1,4.26-3.9,5.77"/>
        <path d="m105.15,49.42c-.09.27-.19.53-.29.8s.1-.23.02-.05c-.03.06-.05.11-.08.17-.06.13-.12.26-.18.38-.26.52-.55,1.02-.87,1.5-.08.12-.16.23-.24.35-.04.05-.07.1-.11.15-.16.22.15-.19.03-.04-.18.22-.36.44-.55.65-.39.43-.81.83-1.25,1.21-.6.51-.56,1.61,0,2.12.64.59,1.48.54,2.12,0,2-1.69,3.47-3.95,4.28-6.43.25-.75-.28-1.67-1.05-1.85-.83-.19-1.58.25-1.85,1.05h0Z"/>
      </g>
      <g>
        <path class="cls-1" d="m105.8,54.18c.2,1.13.14,2.31-.16,3.42"/>
        <path d="m104.35,54.58c.02.1.03.21.05.32l-.05-.4c.09.7.09,1.4,0,2.1l.05-.4c-.05.34-.12.67-.2,1-.1.38-.05.82.15,1.16.18.31.54.61.9.69.38.09.81.07,1.16-.15s.59-.51.69-.9c.37-1.39.4-2.8.16-4.21-.06-.35-.4-.72-.69-.9-.32-.19-.8-.27-1.16-.15s-.71.34-.9.69l-.15.36c-.07.27-.07.53,0,.8h0Z"/>
      </g>
    </g>
  </g>
</svg>