<?xml version="1.0" encoding="UTF-8"?>
<svg id="_레이어_2" data-name="레이어 2" xmlns="http://www.w3.org/2000/svg" viewBox="0 0 131.75 108.77">
  <defs>
    <style>
      .cls-1 {
        fill: #fff;
      }
    </style>
  </defs>
  <g id="_레이어_1-2" data-name="레이어 1">
    <g>
      <g>
        <path class="cls-1" d="m28.34,34.02c-5.25,10.39-10.06,21.3-11.04,32.9-.98,11.6,2.45,24.12,11.35,31.63,5.14,4.33,11.69,6.7,18.31,7.85,17.5,3.05,36.41-2.39,49.17-14.75,12.75-12.36,18.79-31.46,14.8-48.77"/>
        <path d="m27.04,33.26c-6.4,12.7-12.45,26.65-11.25,41.21.51,6.24,2.25,12.46,5.55,17.81s8.43,9.75,14.38,12.35c12.02,5.27,26.33,5.25,38.75,1.39,12.34-3.84,23.22-11.67,30.28-22.54,7.79-11.99,10.78-27.01,7.62-41-.43-1.88-3.32-1.09-2.89.8,2.64,11.69.65,24.16-4.97,34.7s-15.15,19.05-26.42,23.58c-11.35,4.56-24.27,5.57-36.08,2.18-6.17-1.77-11.86-4.95-15.96-9.96-3.63-4.44-5.77-9.97-6.79-15.57-2.74-15.21,3.66-30.14,10.36-43.43.87-1.72-1.72-3.24-2.59-1.51h0Z"/>
      </g>
      <g>
        <path class="cls-1" d="m45.94,69.56c1.22,2.1,3.73,3.05,6.1,3.56,9.34,2,19.56-.7,26.69-7.05"/>
        <path d="m44.64,70.32c1.7,2.72,4.74,3.84,7.77,4.4,3.22.6,6.51.71,9.76.3,6.54-.83,12.66-3.54,17.62-7.89,1.45-1.28-.68-3.39-2.12-2.12-4.24,3.73-9.54,6.11-15.12,6.96-2.69.41-5.49.43-8.18.06-2.49-.35-5.69-.91-7.14-3.21-1.02-1.63-3.62-.13-2.59,1.51h0Z"/>
      </g>
      <g>
        <path class="cls-1" d="m62.27,41.13c-2.29,2.29-4.58,4.57-6.87,6.86-1.06,1.06-2.16,2.17-2.62,3.6-.15.46-.22,1.01.08,1.4.22.29.59.41.94.52,2.96.86,6.12,1.03,9.15.48"/>
        <path d="m61.21,40.07c-1.87,1.87-3.74,3.73-5.61,5.6-1.63,1.62-3.56,3.25-4.27,5.52-.38,1.22-.14,2.63,1.03,3.33.96.58,2.25.77,3.34.95,2.55.42,5.09.4,7.64-.05.8-.14,1.25-1.12,1.05-1.85-.23-.84-1.04-1.19-1.85-1.05-1.87.33-3.82.36-5.69.1-.51-.07-1.01-.17-1.51-.28-.41-.09-.91-.34-1.32-.35.06.06.01.03-.14-.07.17.09.26.21.27.36,0,.02,0,.04-.02.05.02-.09.04-.18.07-.27.11-.38.31-.73.53-1.06.46-.7,1.07-1.3,1.66-1.89.75-.75,1.5-1.49,2.25-2.24,1.57-1.56,3.13-3.13,4.7-4.69,1.37-1.37-.75-3.49-2.12-2.12h0Z"/>
      </g>
      <g>
        <path class="cls-1" d="m80.01,31.76c-2.73,3.17-4.38,6.44-4.17,10.76.06,1.35.31,2.73.99,3.9,4.06,6.95,15.08,5.12,17.91-1.82,1.92-4.72.95-11.04-4-13.46-2.05-1-4.41-1.26-6.68-.98-.53.07-1.09.18-1.46.57"/>
        <path d="m78.95,30.7c-3.42,4.02-5.77,9.35-4.18,14.69,1.26,4.22,5.45,6.77,9.69,6.91,3.95.14,7.96-1.67,10.35-4.84,2.58-3.42,3.04-8.52,1.41-12.43-.99-2.39-2.79-4.34-5.18-5.39-1.54-.68-3.19-1.03-4.87-1.08-1.6-.05-3.38.01-4.64,1.11-1.46,1.27.67,3.39,2.12,2.12.27-.23,1.03-.2,1.37-.21.54-.03,1.09-.03,1.63.01,1.13.08,2.29.35,3.31.85,1.54.74,2.71,1.98,3.41,3.54,1.3,2.89.99,6.72-.74,9.38-3.1,4.75-11.37,5.61-14.47.41-1.18-1.98-1.06-4.77-.49-6.94s1.88-4.24,3.38-6c1.25-1.46-.87-3.59-2.12-2.12h0Z"/>
      </g>
      <g>
        <path d="m79.01,37.26c2.17,2.06,3.21,4.39,3,6.7-.07.77-.33,1.59-1.44,2.15-.49.24-1.3.42-1.88.23-.38-.13-.5-.37-.58-.59-.91-2.4-1.28-4.84-1.1-7.27"/>
        <path d="m77.95,38.32c.32.3.62.62.9.95.04.04.37.47.25.31.12.16.23.33.34.5.21.32.4.66.57,1.01.04.08.08.17.12.26-.06-.14-.06-.14,0,.03.06.17.12.34.17.52s.09.34.13.52c.01.07.09.62.05.25.03.35.05.7.03,1.04,0,.09-.01.17-.02.26-.02.17-.01.13.01-.1.03.02-.09.36-.1.41-.06.15-.04.13.03-.06-.03.07-.07.13-.11.2-.09.14-.08.13.03-.02-.05.06-.11.12-.17.18-.13.11-.13.12-.01.02-.08.06-.17.11-.25.16-.19.09-.19.1,0,.02-.08.03-.16.06-.24.08-.08.02-.59.09-.26.07-.09,0-.18.01-.27,0-.18-.01-.18,0,.02,0-.24-.08-.17-.02.21.17.12.18.13.2.05.06.23.48-.07-.2-.1-.3-.15-.43-.28-.87-.4-1.31-.45-1.72-.59-3.22-.47-5.07.05-.78-.73-1.53-1.5-1.5-.86.04-1.44.66-1.5,1.5-.12,1.8.05,3.62.45,5.37.19.81.43,1.61.73,2.38.42,1.07,1.29,1.62,2.43,1.69,1.77.11,3.54-1.05,4.14-2.7.48-1.31.31-2.96-.1-4.26-.58-1.84-1.72-3.43-3.1-4.76-.57-.54-1.57-.6-2.12,0s-.6,1.54,0,2.12h0Z"/>
      </g>
      <g>
        <path class="cls-1" d="m34.78,33.17c-2.73,3.17-4.38,6.44-4.17,10.76.06,1.35.31,2.73.99,3.9,4.06,6.95,15.08,5.12,17.91-1.82,1.92-4.72.95-11.04-4-13.46-2.05-1-4.41-1.26-6.68-.98-.53.07-1.09.18-1.46.57"/>
        <path d="m33.72,32.11c-3.42,4.02-5.77,9.35-4.18,14.69,1.26,4.22,5.45,6.77,9.69,6.91,3.95.14,7.96-1.67,10.35-4.84,2.58-3.42,3.04-8.52,1.41-12.43-.99-2.39-2.79-4.34-5.18-5.39-1.54-.68-3.19-1.03-4.87-1.08-1.6-.05-3.38.01-4.64,1.11-1.46,1.27.67,3.39,2.12,2.12.27-.23,1.03-.2,1.37-.21.54-.03,1.09-.03,1.63.01,1.13.08,2.29.35,3.31.85,1.54.74,2.71,1.98,3.41,3.54,1.3,2.89.99,6.72-.74,9.38-3.1,4.75-11.37,5.61-14.47.41-1.18-1.98-1.06-4.77-.49-6.94s1.88-4.24,3.38-6c1.25-1.46-.87-3.59-2.12-2.12h0Z"/>
      </g>
      <g>
        <path d="m33.79,38.66c2.17,2.06,3.21,4.39,3,6.7-.07.77-.33,1.59-1.44,2.15-.49.24-1.3.42-1.88.23-.38-.13-.5-.37-.58-.59-.91-2.4-1.28-4.84-1.1-7.27"/>
        <path d="m32.73,39.73c.32.3.62.62.9.95.04.04.37.47.25.31.12.16.23.33.34.5.21.32.4.66.57,1.01.04.08.08.17.12.26-.06-.14-.06-.14,0,.03.06.17.12.34.17.52s.09.34.13.52c.01.07.09.62.05.25.03.35.05.7.03,1.04,0,.09-.01.17-.02.26-.02.17-.01.13.01-.1.03.02-.09.36-.1.41-.06.15-.04.13.03-.06-.03.07-.07.13-.11.2-.09.14-.08.13.03-.02-.05.06-.11.12-.17.18-.13.11-.13.12-.01.02-.08.06-.17.11-.25.16-.19.09-.19.1,0,.02-.08.03-.16.06-.24.08-.08.02-.59.09-.26.07-.09,0-.18.01-.27,0-.18-.01-.18,0,.02,0-.24-.08-.17-.02.21.17.12.18.13.2.05.06.23.48-.07-.2-.1-.3-.15-.43-.28-.87-.4-1.31-.45-1.72-.59-3.22-.47-5.07.05-.78-.73-1.53-1.5-1.5-.86.04-1.44.66-1.5,1.5-.12,1.8.05,3.62.45,5.37.19.81.43,1.61.73,2.38.42,1.07,1.29,1.62,2.43,1.69,1.77.11,3.54-1.05,4.14-2.7.48-1.31.31-2.96-.1-4.26-.58-1.84-1.72-3.43-3.1-4.76-.57-.54-1.57-.6-2.12,0s-.6,1.54,0,2.12h0Z"/>
      </g>
      <g>
        <path class="cls-1" d="m20,44.6c-2.87-2.45-6.36-3.67-9.8-3.44-2.56.17-5.22,1.26-6.84,3.81-2.52,3.96-2.34,10.19-.39,14.46,2.56,5.6,7.14,5.82,11.57,3.93"/>
        <path d="m21.06,43.54c-3.03-2.52-6.85-4.16-10.86-3.87-3.67.26-7,2.13-8.66,5.49s-1.83,6.99-1.25,10.52c.55,3.34,2.02,6.88,4.89,8.86s6.65,1.57,9.76.28c.75-.31,1.27-.99,1.05-1.85-.19-.71-1.1-1.36-1.85-1.05-1.98.82-4.33,1.48-6.42.61-2.44-1.02-3.64-3.8-4.24-6.19-1.28-5.1-.36-12.29,5.73-13.54,3.45-.7,7.09.67,9.72,2.86,1.47,1.23,3.61-.88,2.12-2.12h0Z"/>
      </g>
      <g>
        <path class="cls-1" d="m87.65,17.28c5.24,3.91,9.72,8.82,13.14,14.39,1.22-.92,2.44-1.85,3.66-2.77.23,9.52-.69,25.36-1.28,34.86,1.73-5.23,3.95-10.29,6.62-15.11,1-1.8,2.42-3.79,4.49-3.82.71,0,1.44.23,2.11,0,.71-.25,1.89-7.26,2.21-7.94,2.29-4.86,1.17-10.83-1.77-15.33s-7.45-7.74-12.13-10.38c-9.72-5.48-20.64-8.81-31.76-9.68"/>
        <path d="m86.89,18.58c5.03,3.79,9.29,8.51,12.6,13.85.39.63,1.39,1.04,2.05.54,1.22-.92,2.44-1.85,3.66-2.77l-2.26-1.3c.27,11.61-.56,23.27-1.28,34.86-.11,1.76,2.43,1.94,2.95.4,1.24-3.72,2.72-7.36,4.45-10.89.82-1.66,1.64-3.37,2.66-4.92.37-.56.8-1.13,1.34-1.53.75-.56,1.39-.45,2.28-.41,2.63.13,3.02-1.99,3.53-4.09.41-1.72.6-3.58,1.26-5.22,2.67-6.7.37-13.97-4.24-19.22s-11.53-8.97-18.04-11.75C89.93,2.76,81.54.7,72.94,0c-1.92-.16-1.91,2.85,0,3,7.28.59,14.46,2.24,21.28,4.87,6.32,2.43,12.89,5.66,17.84,10.36s7.91,11.39,5.24,17.9c-.63,1.54-.82,3.27-1.2,4.88-.21.9-.45,1.78-.72,2.66-.05.15-.11.11-.08.16.03.05.3-.27.26-.41-.1-.35-2.36.03-2.66.13-3.31,1.03-4.92,5.17-6.32,7.99-1.89,3.82-3.51,7.77-4.86,11.81l2.95.4c.73-11.58,1.55-23.24,1.28-34.86-.02-1.02-1.3-2.02-2.26-1.3-1.22.92-2.44,1.85-3.66,2.77l2.05.54c-3.6-5.81-8.23-10.82-13.68-14.93-1.54-1.16-3.04,1.44-1.51,2.59h0Z"/>
      </g>
      <g>
        <path class="cls-1" d="m60.6,2.46c-13.43,5.44-28.25,6.09-42.72,6.66,1.8,3.09,4.61,5.57,7.89,6.97-2.32,2.18-4.83,4.14-7.5,5.87,1.26.1,2.56.22,3.64.87s1.86,1.99,1.44,3.18c-.23.64-.78,1.24-.63,1.91.21.9,1.43,1.02,2.34.88,4.07-.61,7.97-2.34,11.16-4.96"/>
        <path d="m60.2,1.01c-13.44,5.39-28.03,6.04-42.32,6.61-1.11.04-1.9,1.25-1.3,2.26,1.98,3.31,4.9,5.95,8.43,7.51l-.3-2.36c-2.24,2.08-4.63,3.96-7.19,5.63-1.29.84-.72,2.67.76,2.8,1.07.09,2.47.13,3.26.97.84.89.07,1.51-.21,2.44-.65,2.19,1.36,3.54,3.32,3.47,4.54-.17,9.19-2.65,12.65-5.43,1.5-1.21-.63-3.32-2.12-2.12-1.72,1.38-3.67,2.52-5.73,3.31-1.02.39-2.08.71-3.15.95-.49.11-1,.24-1.5.28-.05,0-1.09.05-.66.15.08.28.15.25.23-.08.11-.2.21-.42.3-.63.19-.46.32-.91.32-1.42,0-.97-.38-1.89-.98-2.64-1.4-1.76-3.62-2.07-5.72-2.25l.76,2.8c2.77-1.81,5.38-3.85,7.8-6.1.65-.6.58-1.97-.3-2.36-3.08-1.36-5.62-3.54-7.35-6.44l-1.3,2.26c14.54-.58,29.45-1.23,43.12-6.72,1.77-.71,1-3.61-.8-2.89h0Z"/>
      </g>
      <g>
        <path class="cls-1" d="m47.74,14.98l-4.88,7.17c6.56,1.62,13.57,1.36,19.99-.76.78-.26,1.59-.55,2.4-.42s1.6.83,1.49,1.65c-.1.76-.91,1.52-.46,2.15.19.26.54.36.86.4,3.03.4,5.73-1.78,8.01-3.83,1.94-1.74,3.88-3.48,5.81-5.22.52-.47,1.43-.9,1.8-.31"/>
        <path d="m46.44,14.23l-4.88,7.17c-.54.79,0,1.99.9,2.2,4.16,1,8.48,1.35,12.74.91,2.12-.21,4.22-.58,6.28-1.15.94-.26,1.98-.77,2.95-.89,1.29-.15.45.51.28,1.32-.43,2.03,1.49,2.93,3.21,2.91,1.84-.02,3.61-.77,5.12-1.78,1.67-1.11,3.13-2.51,4.62-3.84.79-.71,1.57-1.41,2.36-2.12.42-.38.85-.76,1.27-1.14.24-.22.48-.44.73-.65.38-.16.28-.26-.32-.31,1.36,1.38,3.48-.75,2.12-2.12-1.57-1.59-3.37-.19-4.65.96-1.7,1.52-3.39,3.05-5.09,4.57-1.47,1.31-3.09,2.77-5.04,3.28-.46.12-1.1,0-1.51.15l-.32-.05c.26.81.46.93.61.37.57-.64.5-1.93.18-2.64-.85-1.91-2.98-2.16-4.77-1.69-2.14.57-4.18,1.26-6.38,1.61-4.52.72-9.16.47-13.6-.59l.9,2.2c1.63-2.39,3.25-4.78,4.88-7.17,1.09-1.6-1.51-3.1-2.59-1.51h0Z"/>
      </g>
      <g>
        <path class="cls-1" d="m109.75,50.56c3.28-3.76,7.98-5.97,12.57-5.9,2.67.04,5.48.97,6.9,3.38,2.94,4.96-.91,13.5-4.66,17.08-4.83,4.62-12.14,5.29-17.48,2.23"/>
        <path d="m110.81,51.62c2.6-2.92,6.17-5.08,10.13-5.42,3.35-.28,6.92.78,7.67,4.45.66,3.21-.68,6.78-2.23,9.54-1.67,2.97-4.06,5.43-7.31,6.64-3.68,1.36-7.8,1.13-11.24-.78-1.69-.94-3.2,1.65-1.51,2.59,3.78,2.1,8.3,2.62,12.47,1.44s7.46-3.93,9.71-7.56,3.72-7.82,3.13-11.96c-.65-4.56-4.41-7.15-8.83-7.39-5.36-.3-10.6,2.39-14.11,6.32-1.28,1.44.83,3.57,2.12,2.12h0Z"/>
      </g>
    </g>
  </g>
</svg>