<?xml version="1.0" encoding="UTF-8"?>
<svg id="_레이어_2" data-name="레이어 2" xmlns="http://www.w3.org/2000/svg" viewBox="0 0 132.63 81.27">
  <defs>
    <style>
      .cls-1 {
        fill: #fff;
      }
    </style>
  </defs>
  <g id="_레이어_1-2" data-name="레이어 1">
    <g>
      <g>
        <path class="cls-1" d="m70.52,1.55c9.19-.1,18.45-.2,27.5,1.44,3.67.66,7.32,1.63,10.6,3.41,7.06,3.83,11.74,11.08,14.77,18.61,3.14,7.83,4.81,16.26,4.88,24.72"/>
        <path d="m70.52,3.05c6.13-.07,12.27-.14,18.39.31,5.66.42,11.62,1.11,16.89,3.33,9.66,4.07,14.94,14.19,17.92,23.69,1.96,6.27,2.97,12.77,3.05,19.33.02,1.93,3.02,1.93,3,0-.14-11.56-2.95-23.72-9.17-33.58-2.75-4.36-6.35-8.31-10.88-10.85-5.29-2.97-11.49-3.98-17.44-4.62C85.05-.11,77.77-.03,70.52.05c-1.93.02-1.93,3.02,0,3h0Z"/>
      </g>
      <g>
        <path class="cls-1" d="m19.42,53.19c-2.91-3.52-7.34-5.68-11.86-5.79-1.88-.04-3.95.35-5.13,1.85-1.35,1.73-1.01,4.25-.24,6.32,2.97,8.07,11.59,13.59,20.03,12.83"/>
        <path d="m20.48,52.13c-2.55-3.02-6.17-5.18-10.06-5.91-3.48-.65-8.16-.5-9.84,3.24-1.55,3.46.29,7.69,2.21,10.64s4.64,5.47,7.76,7.19c3.55,1.96,7.62,2.94,11.67,2.61,1.91-.16,1.93-3.16,0-3-5.87.48-11.59-2.06-15.44-6.47-1.8-2.06-3.51-4.89-3.74-7.67-.12-1.47.31-2.85,1.76-3.45,1.29-.54,2.85-.48,4.21-.3,3.67.49,6.98,2.43,9.35,5.24,1.25,1.48,3.36-.66,2.12-2.12h0Z"/>
      </g>
      <g>
        <path class="cls-1" d="m111.6,50.75c3.78-3.67,9.76-4.29,14.7-2.53,1.96.7,3.96,1.91,4.63,3.9.52,1.53.15,3.22-.46,4.71-1.51,3.71-4.5,6.73-8.05,8.51-3.55,1.78-7.62,2.36-11.56,1.93"/>
        <path d="m112.67,51.81c3.86-3.65,10.79-4.11,15.21-1.16,2.84,1.89,1.68,5.2.19,7.62s-3.71,4.4-6.26,5.71c-3.37,1.73-7.21,2.17-10.94,1.8-.81-.08-1.5.75-1.5,1.5,0,.88.69,1.42,1.5,1.5,7.66.77,15.68-2.24,19.79-8.99,1.95-3.2,3.11-7.47.24-10.5-2.35-2.48-6.27-3.4-9.56-3.5-3.96-.13-7.9,1.17-10.79,3.91-1.41,1.33.72,3.45,2.12,2.12h0Z"/>
      </g>
      <g>
        <path class="cls-1" d="m20.8,49.34c.02,5.04.05,10.15,1.38,15s4.13,9.51,8.49,11.92c2.69,1.49,5.77,2.04,8.81,2.42,7.7.97,15.49.98,23.25.99,12.51.02,25.07.04,37.43-1.86,2.29-.35,4.68-.82,6.49-2.29,1.96-1.59,2.93-4.11,3.6-6.57,1.99-7.38,1.93-15.15,1.87-22.8"/>
        <path d="m19.3,49.34c.04,8.67.33,18.23,6.55,24.99,2.88,3.13,6.71,4.74,10.84,5.45,4.82.83,9.75,1.11,14.64,1.26,9.95.31,19.98.29,29.93-.07,5.03-.18,10.05-.51,15.05-1.13,4.09-.5,9.07-.72,12.1-3.9,3.26-3.41,4.02-8.93,4.6-13.4.7-5.43.66-10.92.61-16.39-.02-1.93-3.02-1.93-3,0,.04,4.46.08,8.92-.29,13.37-.34,4.03-.83,8.62-2.68,12.28-.85,1.69-2.08,2.96-3.87,3.64-1.97.74-4.15.96-6.22,1.24-4.6.61-9.23.97-13.86,1.19-9.24.43-18.51.38-27.76.26-4.61-.06-9.22-.21-13.81-.66-4.1-.4-8.51-.86-11.97-3.3-7.74-5.47-7.83-16.37-7.86-24.84,0-1.93-3.01-1.93-3,0h0Z"/>
      </g>
      <g>
        <path class="cls-1" d="m56.29,67.67c.72.53,1.66.65,2.54.74,6.09.61,12.23.65,18.33.13"/>
        <path d="m55.53,68.96c1.45.93,3.26.95,4.93,1.09,1.83.15,3.66.25,5.5.31,3.74.1,7.48-.01,11.2-.32,1.91-.16,1.93-3.16,0-3-3.46.29-6.92.41-10.39.34-1.7-.03-3.4-.11-5.09-.23-1.44-.1-3.37.03-4.63-.78-1.63-1.05-3.13,1.55-1.51,2.59h0Z"/>
      </g>
      <g>
        <path class="cls-1" d="m64.42,41.53c2.82.13,5.64.27,8.45.4,1.27.06,2.68.18,3.55,1.13.57.62.79,1.49.84,2.33.12,2.03-.65,4-1.56,5.8-1.56,3.05-3.6,5.85-6.03,8.24"/>
        <path d="m64.42,43.03c2.7.13,5.4.26,8.1.39.81.04,1.86-.01,2.57.47.79.53.74,1.8.65,2.63-.24,2.28-1.53,4.46-2.72,6.37-1.25,2.01-2.74,3.83-4.42,5.5-1.37,1.36.75,3.48,2.12,2.12,2-1.99,3.76-4.22,5.21-6.64s2.94-5.34,2.83-8.3c-.05-1.37-.44-2.76-1.46-3.73-.96-.91-2.26-1.2-3.53-1.33-3.09-.32-6.25-.32-9.36-.47-1.93-.09-1.93,2.91,0,3h0Z"/>
      </g>
      <g>
        <path class="cls-1" d="m82.92,45.59c-1.24,1.53-1.3,3.77-.73,5.67.72,2.39,2.61,3.77,5.13,3.86,3.34.13,7.31-1.84,7.3-5.63,0-1.94-1.28-3.74-2.97-4.64s-3.73-.98-5.58-.52"/>
        <path d="m81.86,44.52c-1.89,2.44-1.95,5.9-.51,8.6,1.29,2.4,3.92,3.59,6.57,3.5,2.38-.08,4.95-.98,6.55-2.82,1.85-2.13,2.18-5.19.69-7.62-2-3.26-5.96-4.12-9.49-3.29-.79.19-1.26,1.09-1.05,1.85.22.81,1.05,1.23,1.85,1.05,2.06-.49,4.32-.19,5.74,1.42.55.63.9,1.5.91,2.3,0,.49,0,.53-.15,1.03-.09.31-.21.57-.5.99-.73,1.07-2.39,1.83-3.83,2.05-1.6.24-3.26-.09-4.3-1.33-.13-.15-.48-.75-.56-.96-.19-.48-.34-1.06-.39-1.54-.13-1.04-.05-2.26.6-3.09.5-.64.62-1.5,0-2.12-.52-.52-1.62-.64-2.12,0h0Z"/>
      </g>
      <g>
        <path class="cls-1" d="m43.29,43.19c-2.1.97-2.99,3.82-2.12,5.99s3.19,3.54,5.49,3.62c2.43.08,4.91-1.25,6.05-3.44s.76-5.14-1.02-6.82-4.86-1.8-6.63-.11"/>
        <path d="m42.53,41.9c-2.6,1.27-3.76,4.63-2.93,7.33.91,2.99,3.87,4.9,6.9,5.07s6.12-1.5,7.51-4.17,1.06-6.16-1.02-8.41c-2.32-2.52-6.48-2.62-8.98-.34-.6.55-.55,1.57,0,2.12.6.6,1.52.55,2.12,0,1.12-1.03,3.18-1.02,4.33-.05.77.64,1.11,1.32,1.32,2.32.07.33.1.73.07,1.24-.02.4-.11.84-.32,1.37.06-.17-.04.08-.04.09-.06.13-.13.25-.2.37s-.3.47-.3.47c-.31.4-.77.82-1.07,1.02-.38.26-.86.51-1.15.62-.47.17-1.11.33-1.43.34-1.89.08-3.71-.63-4.63-2.33-.12-.22-.16-.29-.24-.6-.03-.1-.05-.2-.07-.3-.09-.32-.02.1-.04-.21s-.02-.61,0-.92c0,.07-.05.25,0-.06.03-.15.06-.3.1-.45.03-.1.06-.19.09-.29.07-.17.07-.19.01-.07.03-.07.06-.14.1-.2.06-.11.12-.22.18-.33.02-.04.26-.39.11-.19.38-.5.52-.59,1.08-.87.73-.36.93-1.39.54-2.05-.43-.74-1.32-.9-2.05-.54h0Z"/>
      </g>
      <g>
        <path class="cls-1" d="m46.97,45.02c-.18.35-.24.75-.19,1.13.05.36.29.75.64.73.36-.02.54-.47.57-.84.04-.57-.1-1.15-.39-1.65"/>
        <path d="m45.68,44.27c-.15.29-.28.61-.34.93-.04.22-.07.44-.08.66,0,.17.02.33.04.5.05.35.14.66.32.97.19.32.49.65.83.82.3.15.56.23.9.24.1,0,.19-.02.29-.03.11-.02.2-.02.3-.05.5-.16.87-.48,1.15-.91.11-.16.17-.35.24-.53.03-.08.06-.17.07-.26.05-.31.09-.61.07-.93-.05-.72-.23-1.41-.59-2.04-.18-.33-.54-.59-.9-.69s-.84-.05-1.16.15-.6.51-.69.9-.05.8.15,1.16c.06.1.11.2.15.31l-.15-.36c.11.25.18.51.21.78l-.05-.4c.03.22.04.44,0,.65l.05-.4c-.02.12-.05.24-.09.35l.15-.36c-.03.07-.07.13-.11.19l.23-.3s-.07.07-.11.11l.3-.23s-.06.04-.1.06l.36-.15s-.07.02-.11.03l.4-.05s-.08,0-.12,0l.4.05s-.08-.02-.12-.03l.36.15s-.07-.04-.1-.06l.3.23s-.09-.09-.13-.14l.23.3c-.05-.06-.08-.13-.12-.2l.15.36c-.04-.09-.07-.19-.08-.29l.05.4c-.02-.17-.02-.34,0-.52l-.05.4c.03-.17.07-.34.14-.5l-.15.36s.04-.08.05-.12c.18-.36.26-.75.15-1.16-.1-.35-.36-.73-.69-.9-.35-.18-.77-.28-1.16-.15-.36.12-.72.34-.9.69h0Z"/>
      </g>
      <g>
        <path class="cls-1" d="m86.17,47.23c-.14.35-.21.74-.2,1.12,0,.17.03.35.11.5.09.16.24.27.41.34.6.24,1.37-.17,1.51-.81s-.39-1.35-1.03-1.39"/>
        <path d="m84.72,46.83c-.15.38-.21.78-.24,1.19-.01.13-.02.27,0,.4.02.25.03.51.12.74.13.35.27.62.54.89.16.16.36.32.57.41.4.19.83.33,1.28.28s.85-.13,1.24-.37.67-.52.92-.89c.12-.18.19-.39.27-.58.08-.21.1-.47.11-.68.03-.45-.12-.87-.3-1.27-.1-.22-.25-.4-.4-.58-.07-.09-.14-.16-.23-.23-.13-.1-.27-.23-.43-.31s-.33-.15-.49-.21c-.22-.09-.48-.11-.71-.12-.21,0-.4.04-.58.13-.19.06-.35.16-.48.31-.26.26-.46.69-.44,1.06s.14.79.44,1.06l.3.23c.23.14.49.2.76.2.02,0,.04,0,.06,0l-.4-.05c.1.01.19.04.28.08l-.36-.15c.08.04.15.08.23.13l-.3-.23c.09.07.16.14.23.23l-.23-.3c.07.09.12.18.17.28l-.15-.36c.04.1.07.2.09.31l-.05-.4c.01.09.01.18,0,.26l.05-.4c-.01.1-.04.19-.08.28l.15-.36c-.04.08-.08.15-.13.22l.23-.3c-.06.08-.14.15-.22.22l.3-.23c-.09.07-.19.13-.29.17l.36-.15c-.1.04-.19.07-.3.08l.4-.05c-.09.01-.18.01-.28,0l.4.05c-.08-.01-.16-.03-.24-.06l.36.15c-.08-.04-.16-.08-.23-.13l.3.23s-.08-.07-.12-.12l.23.3s-.06-.1-.09-.15l.15.36c-.03-.08-.05-.16-.06-.25l.05.4c-.03-.21-.02-.42.01-.63l-.05.4c.03-.23.09-.45.18-.67.06-.2.07-.4.03-.6,0-.2-.07-.39-.18-.56-.18-.31-.54-.61-.9-.69-.38-.09-.81-.07-1.16.15l-.3.23c-.19.19-.31.41-.39.66h0Z"/>
      </g>
      <g>
        <path class="cls-1" d="m61.45,2.37c-8.55-.48-18.31-1.59-26.55,1.35-7.44,2.65-12.81,8.12-16.25,15.19-4.07,8.37-8.1,16.65-10.9,25.58"/>
        <path d="m61.45.87c-10.21-.59-21.12-1.87-30.58,2.97-3.97,2.04-7.35,5.04-10.03,8.59-3.09,4.1-5.1,8.97-7.27,13.59-2.75,5.88-5.31,11.87-7.27,18.07-.58,1.85,2.31,2.63,2.89.8,1.67-5.28,3.77-10.4,6.07-15.43,2.08-4.55,4.06-9.34,6.79-13.55,2.27-3.51,5.27-6.54,8.87-8.68,4.15-2.46,8.85-3.54,13.63-3.85,5.63-.37,11.27.17,16.89.49,1.93.11,1.92-2.89,0-3h0Z"/>
      </g>
      <g>
        <path class="cls-1" d="m11.87,50.61c3.11-2.69,5.25-6.5,5.96-10.59"/>
        <path d="m12.93,51.67c3.3-2.89,5.58-6.94,6.34-11.25.14-.8-.22-1.62-1.05-1.85-.73-.2-1.7.25-1.85,1.05-.7,3.92-2.59,7.31-5.57,9.93-.61.53-.55,1.58,0,2.12.61.61,1.51.54,2.12,0h0Z"/>
      </g>
      <g>
        <path class="cls-1" d="m18.24,52.09l3.44-3.84c.99-1.11,1.99-2.23,2.8-3.48,1.02-1.6,1.72-3.41,2.04-5.28"/>
        <path d="m19.3,53.15c1.83-2.04,3.76-4.03,5.44-6.2s2.75-4.46,3.21-7.07c.14-.8-.21-1.62-1.05-1.85-.72-.2-1.7.25-1.85,1.05-.4,2.27-1.32,4.35-2.77,6.16-1.6,2.01-3.4,3.87-5.12,5.79-.54.6-.6,1.53,0,2.12.55.55,1.58.61,2.12,0h0Z"/>
      </g>
      <g>
        <path class="cls-1" d="m26.25,50.35c4.94-4.67,8.95-10.36,11.69-16.62"/>
        <path d="m27.31,51.41c5.04-4.79,9.12-10.56,11.93-16.92.33-.74.22-1.61-.54-2.05-.64-.37-1.72-.21-2.05.54-2.71,6.15-6.58,11.69-11.46,16.31-1.4,1.33.72,3.45,2.12,2.12h0Z"/>
      </g>
      <g>
        <path class="cls-1" d="m38.09,41.34c7.38-3.06,13.87-8.3,18.46-14.91"/>
        <path d="m38.49,42.78c7.82-3.27,14.49-8.65,19.36-15.6,1.11-1.58-1.49-3.09-2.59-1.51-4.37,6.24-10.53,11.27-17.57,14.22-.75.31-1.28.99-1.05,1.85.19.7,1.09,1.36,1.85,1.05h0Z"/>
      </g>
      <g>
        <path class="cls-1" d="m55.14,38.41c3.98-.88,7.65-3.18,10.22-6.39"/>
        <path d="m55.54,39.86c4.24-.96,8.15-3.39,10.88-6.78.51-.63.62-1.51,0-2.12-.53-.53-1.61-.63-2.12,0-2.5,3.1-5.74,5.14-9.56,6.01-.79.18-1.26,1.09-1.05,1.85.22.81,1.05,1.23,1.85,1.05h0Z"/>
      </g>
      <g>
        <path class="cls-1" d="m66.85,38.92c3.82-3.02,7.02-6.84,9.36-11.15"/>
        <path d="m67.91,39.98c3.92-3.12,7.19-7.05,9.59-11.46.39-.71.18-1.63-.54-2.05s-1.66-.18-2.05.54c-2.29,4.21-5.37,7.86-9.12,10.85-.63.5-.53,1.59,0,2.12.63.63,1.49.51,2.12,0h0Z"/>
      </g>
      <g>
        <path class="cls-1" d="m76.96,37.84c2.6-2.52,4.47-5.82,5.31-9.37"/>
        <path d="m78.02,38.9c2.79-2.73,4.78-6.24,5.69-10.04.18-.76-.24-1.66-1.05-1.85s-1.65.23-1.85,1.05-.46,1.69-.78,2.5c-.05.12-.09.24-.14.36-.1.24.07-.17-.03.07-.08.19-.17.37-.26.56-.2.42-.41.83-.64,1.23-.43.76-.91,1.49-1.44,2.18-.16.2.11-.14-.05.06-.06.08-.13.16-.19.24-.15.18-.3.35-.45.52-.31.34-.62.67-.95,1-.56.55-.59,1.58,0,2.12s1.52.59,2.12,0h0Z"/>
      </g>
      <g>
        <path class="cls-1" d="m86.45,32.23c-.29,1.98.59,3.93,1.44,5.74.15.33.44.71.77.6"/>
        <path d="m85.01,31.83c-.12.9-.12,1.71.03,2.62.11.7.33,1.39.59,2.05.29.74.61,1.46.95,2.17.46.97,1.4,1.6,2.49,1.34.76-.18,1.29-1.09,1.05-1.85-.26-.8-1.03-1.24-1.85-1.05.28-.06.55-.03.79.09.19.16.23.18.12.07.27.28.1.12.04,0-.12-.23-.22-.47-.33-.71-.06-.14-.13-.28-.19-.43-.03-.07-.06-.14-.09-.21l.06.14c-.12-.26-.22-.54-.32-.82-.18-.51-.33-1.03-.42-1.56,0-.06-.02-.11-.03-.17.03.21.03.23.01.06,0-.13-.02-.26-.02-.4s0-.27,0-.4c0-.08.06-.59,0-.17.06-.42.07-.77-.15-1.16-.18-.31-.54-.61-.9-.69-.7-.16-1.73.22-1.85,1.05h0Z"/>
      </g>
      <g>
        <path class="cls-1" d="m92.74,32.26c.76,3.59,2.63,6.94,5.28,9.44"/>
        <path d="m91.3,32.65c.82,3.83,2.82,7.4,5.66,10.1.57.54,1.56.61,2.12,0s.61-1.54,0-2.12-1.23-1.24-1.77-1.93c.12.15-.06-.08-.09-.13-.06-.08-.12-.17-.18-.25-.12-.17-.24-.34-.35-.51-.26-.39-.5-.78-.72-1.19-.87-1.55-1.38-2.94-1.78-4.77-.17-.77-1.1-1.29-1.85-1.05-.81.26-1.22,1.02-1.05,1.85h0Z"/>
      </g>
      <g>
        <path class="cls-1" d="m99.52,34.07c1.34,5.13,4.96,9.59,9.66,11.91"/>
        <path d="m98.07,34.47c1.46,5.47,5.28,10.27,10.35,12.81.72.36,1.62.19,2.05-.54.39-.67.19-1.69-.54-2.05-4.43-2.22-7.7-6.25-8.97-11.01-.5-1.86-3.39-1.07-2.89.8h0Z"/>
      </g>
      <g>
        <path class="cls-1" d="m110.87,40.57c1.34,2.68,2.84,5.52,5.46,6.9"/>
        <path d="m109.57,41.33c1.43,2.85,3.08,5.87,6,7.44.69.37,1.66.2,2.05-.54s.2-1.66-.54-2.05c-.32-.17-.63-.36-.92-.58-.18-.13-.12-.03.02.02-.07-.02-.14-.12-.2-.16-.14-.12-.28-.25-.42-.38-.25-.24-.48-.49-.71-.76-.11-.13-.23-.26-.33-.41.23.33.02.02-.02-.03-.05-.07-.1-.14-.15-.21-.85-1.21-1.53-2.53-2.19-3.85-.35-.7-1.4-.96-2.05-.54-.72.46-.92,1.3-.54,2.05h0Z"/>
      </g>
      <g>
        <path class="cls-1" d="m116.71,55.68l6.46-.7"/>
        <path d="m116.71,57.18l6.46-.7c.41-.04.76-.14,1.06-.44.26-.26.46-.69.44-1.06-.03-.74-.66-1.59-1.5-1.5l-6.46.7c-.41.04-.76.14-1.06.44-.26.26-.46.69-.44,1.06.03.74.66,1.59,1.5,1.5h0Z"/>
      </g>
      <g>
        <path class="cls-1" d="m120.27,56.09c-.11,1.34-.3,2.67-.58,3.98"/>
        <path d="m118.77,56.09c-.05.57-.11,1.13-.18,1.69l.05-.4c-.1.77-.24,1.53-.4,2.29-.08.4-.06.8.15,1.16.18.31.54.61.9.69.38.09.81.07,1.16-.15.32-.2.61-.51.69-.9.3-1.44.51-2.91.63-4.38.03-.36-.19-.81-.44-1.06s-.69-.46-1.06-.44-.79.14-1.06.44-.41.65-.44,1.06h0Z"/>
      </g>
      <g>
        <path class="cls-1" d="m9.93,55.1c1.67.84,3.48,1.39,5.34,1.6"/>
        <path d="m9.18,56.4c1.93.97,3.95,1.55,6.09,1.81.36.04.82-.2,1.06-.44.26-.26.46-.69.44-1.06s-.14-.79-.44-1.06c-.31-.29-.64-.39-1.06-.44-.1-.01-.19-.02-.29-.04l.4.05c-.86-.12-1.71-.3-2.54-.56-.4-.12-.8-.26-1.18-.42-.06-.02-.12-.05-.18-.07q-.12-.05,0,0c.12.05.12.05,0,0-.06-.03-.12-.05-.18-.08-.21-.09-.41-.19-.61-.29-.7-.35-1.66-.21-2.05.54-.36.68-.21,1.68.54,2.05h0Z"/>
      </g>
      <g>
        <path class="cls-1" d="m12.75,56.98c.13,1.42.42,2.83.87,4.19"/>
        <path d="m11.25,56.98c.14,1.56.43,3.1.93,4.59.12.37.35.7.69.9.32.19.8.27,1.16.15.74-.24,1.31-1.05,1.05-1.85-.37-1.11-.63-2.24-.78-3.4l.05.4c-.03-.26-.06-.53-.09-.79-.04-.41-.14-.76-.44-1.06-.26-.26-.69-.46-1.06-.44s-.79.14-1.06.44c-.25.28-.48.67-.44,1.06h0Z"/>
      </g>
    </g>
  </g>
</svg>