<?xml version="1.0" encoding="UTF-8"?>
<svg id="_레이어_2" data-name="레이어 2" xmlns="http://www.w3.org/2000/svg" viewBox="0 0 115.08 142.41">
  <defs>
    <style>
      .cls-1 {
        fill: #040000;
      }

      .cls-2 {
        fill: #fff;
      }
    </style>
  </defs>
  <g id="_레이어_1-2" data-name="레이어 1">
    <g>
      <g>
        <path class="cls-2" d="m95.95,52.53c3.54-2.43,8.57-2.44,12.12-.02,2.61,1.78,4.34,4.68,5.09,7.75.75,3.07.57,6.31-.06,9.41-.69,3.38-2.02,6.8-4.67,9s-6.86,2.79-9.5.57"/>
        <path class="cls-1" d="m96.7,53.83c3.07-2.02,7.14-2.2,10.29-.23,3.42,2.14,4.98,6.3,5.14,10.17s-.67,8.62-3.02,11.96c-1.89,2.69-6.14,4.8-9.13,2.45-1.5-1.18-3.64.93-2.12,2.12,2.91,2.29,6.78,2.32,9.99.56,3.42-1.87,5.35-5.61,6.33-9.25,1.99-7.42,1.08-17.6-6.84-21.24-3.9-1.79-8.56-1.52-12.16.85-1.61,1.06-.11,3.66,1.51,2.59h0Z"/>
      </g>
      <g>
        <path class="cls-2" d="m23.84,44.28c-1.44-3.13-5.27-4.68-8.68-4.2s-6.39,2.62-8.68,5.2c-2.96,3.34-5,7.64-4.99,12.1.01,4.46,2.32,9.01,6.28,11.09,2.51,1.32,5.92,1.44,7.94-.55"/>
        <path class="cls-1" d="m25.14,43.52c-1.73-3.49-5.83-5.35-9.63-4.99-4.41.42-8.17,3.24-10.86,6.61S-.01,52.88,0,57.37c.01,3.96,1.65,8.08,4.65,10.72,3.32,2.93,8.59,4.11,12.12.87,1.43-1.31-.7-3.42-2.12-2.12-2.31,2.12-5.97.87-8.01-.99-2.25-2.06-3.54-5.08-3.64-8.12-.2-6.45,4.68-14.03,11.02-15.88,3.2-.94,6.97.05,8.53,3.18.86,1.73,3.45.21,2.59-1.51h0Z"/>
      </g>
      <g>
        <path class="cls-2" d="m41.12,21.38c-.08-3.01-.14-6.08.78-8.95s3.03-5.53,5.95-6.27c.43-.11.89-.18,1.32-.06,1.44.41,1.55,2.38,1.37,3.86.63-2.27,2.35-4.11,4.34-5.36,1.99-1.25,4.25-2,6.49-2.73.86-.28,1.77-.57,2.67-.42,1.33.22,2.34,1.39,2.78,2.67s.4,2.66.36,4c1.55-2.16,3.67-4.58,6.3-4.18,1.65.25,2.95,1.63,3.58,3.17s.72,3.25.79,4.92c1.18-1.33,2.68-2.37,4.33-3.02.53-.21,1.12-.38,1.66-.2.62.21,1.01.81,1.31,1.4,1.07,2.06,1.69,4.34,1.82,6.65,1.72-.94,3.84-1.89,5.55-.93,1.82,1.02,2.01,3.57,1.61,5.62-.55,2.81-1.78,5.49-3.57,7.73"/>
        <path class="cls-1" d="m42.62,21.38c-.09-3.59-.25-7.5,1.71-10.67.76-1.23,1.86-2.35,3.23-2.89.52-.2,1.12-.5,1.42.06s.13,1.49.06,2.08c-.19,1.73,2.47,1.96,2.95.4,1.03-3.38,4.37-5.14,7.48-6.26,1.31-.47,3.74-1.81,5.03-.84,1.42,1.06,1.22,3.33,1.18,4.87s1.98,1.88,2.8.76c1.08-1.49,2.96-4.05,5.12-3.37,2.56.81,2.66,4.36,2.76,6.52.06,1.23,1.64,2.06,2.56,1.06.76-.82,1.58-1.52,2.55-2.08.35-.2.74-.41,1.12-.56.6-.23.77-.32,1.12.22,1.14,1.76,1.63,4.13,1.77,6.18.08,1.14,1.21,1.86,2.26,1.3s2.92-1.67,4.15-.86c.91.6.97,1.94.92,2.92-.13,2.84-1.57,5.8-3.29,8.01-1.17,1.51.94,3.64,2.12,2.12,2.5-3.22,4.73-7.69,4.06-11.89-.29-1.82-1.33-3.51-3.14-4.14-2.19-.76-4.42.23-6.33,1.26l2.26,1.3c-.12-1.72-.42-3.43-1-5.06-.49-1.37-1.09-3.07-2.32-3.96-2.66-1.92-6.59,1.21-8.37,3.13l2.56,1.06c-.17-3.65-.89-8.17-4.96-9.41-3.69-1.12-6.58,2.09-8.51,4.75l2.8.76c.07-2.4-.06-4.99-1.85-6.79-2-2.01-4.49-1.37-6.9-.56-4.57,1.53-9.31,3.83-10.82,8.79l2.95.4c.2-1.88-.08-4.26-2.02-5.13-2.18-.97-4.89.62-6.45,2.09-3.95,3.73-4.07,9.4-3.95,14.45.05,1.93,3.05,1.93,3,0h0Z"/>
      </g>
      <g>
        <path class="cls-2" d="m94.19,40.9c4.86,10.95,5.38,23.28,5.56,35.26.17,11.72.06,23.65-3.38,34.86-5.15,16.82-17.98,28.79-35.92,29.78-16.29.9-34.08-4.07-42.01-19.62-6.04-11.85-6.65-26.33-4.93-39.28,3.4-25.6,14.99-65.76,47.88-62.91,14.69,1.27,26.65,8.04,32.8,21.91Z"/>
        <path d="m92.9,41.66c5.65,12.9,5.47,27.74,5.4,41.55-.07,13-1.21,26.74-8.13,38.09-5.35,8.78-13.86,15.13-23.97,17.25-5.27,1.11-10.83,1.07-16.16.49s-10.42-1.88-15.14-4.15-9.04-5.53-12.22-9.76c-3.74-4.97-5.9-11.03-7.16-17.07-2.33-11.2-1.34-22.76.73-33.91,1.62-8.72,3.92-17.42,7.43-25.58,3.4-7.9,7.99-15.59,14.69-21.14,6.83-5.65,15.36-7.77,24.1-6.85,10.23,1.09,20.16,5.5,26.35,13.96,1.62,2.21,2.96,4.6,4.08,7.1.79,1.76,3.38.23,2.59-1.51-4.67-10.4-13.44-17.82-24.38-20.93-9.54-2.71-19.95-2.71-28.84,2.02-8.01,4.27-13.9,11.67-18.15,19.53-4.5,8.34-7.46,17.49-9.55,26.7-2.41,10.62-4,21.66-3.17,32.56.96,12.66,5.16,25.66,15.62,33.58,8.95,6.77,20.69,9.08,31.71,8.75s21.53-4.6,29.05-12.88c8.71-9.6,12.06-22.36,13.08-35.01.6-7.44.5-14.93.31-22.38s-.66-14.7-2.32-21.86c-.81-3.47-1.93-6.84-3.36-10.1-.77-1.76-3.36-.24-2.59,1.51Z"/>
      </g>
      <g>
        <path d="m45.89,36.19c.08-2.08-2.69-2.23-3.81-.99-.56.62-.75,1.83-.78,2.63,0,.31.01.63.17.9.47.83,1.73.61,2.54.11.96-.59,1.84-1.52,1.88-2.64Z"/>
        <path d="m47.39,36.19c.04-1.48-.92-2.75-2.34-3.14-1.23-.34-2.61-.05-3.61.73-.66.51-1.07,1.21-1.31,2.01-.21.68-.32,1.44-.31,2.15,0,.55.11,1.14.42,1.61.33.52.79.85,1.36,1.06.7.27,1.58.19,2.28-.07,1.85-.67,3.43-2.32,3.54-4.36.04-.78-.72-1.53-1.5-1.5-.85.04-1.46.66-1.5,1.5,0,.07,0,.14-.02.2l.05-.4c-.03.22-.09.44-.18.65l.15-.36c-.11.25-.25.48-.42.7l.23-.3c-.22.27-.47.52-.75.73l.3-.23c-.29.22-.6.42-.94.57l.36-.15c-.24.1-.49.17-.75.21l.4-.05c-.17.02-.34.02-.51,0l.4.05c-.12-.02-.24-.05-.36-.09l.36.15c-.08-.04-.15-.08-.22-.13l.3.23c-.07-.05-.13-.11-.19-.18l.23.3c-.07-.09-.11-.18-.16-.28l.15.36c-.03-.1-.06-.19-.08-.3l.05.4c-.05-.39-.01-.8.04-1.19l-.05.4c.06-.44.16-.87.33-1.28l-.15.36c.08-.19.18-.37.31-.53l-.23.3c.1-.12.21-.23.33-.33l-.3.23c.17-.13.35-.23.54-.32l-.36.15c.24-.1.49-.17.75-.2l-.4.05c.24-.03.48-.03.72,0l-.4-.05c.19.03.37.07.54.14l-.36-.15c.14.06.27.13.4.23l-.3-.23c.11.09.21.18.29.29l-.23-.3c.08.1.14.21.19.33l-.15-.36c.05.13.09.26.11.4l-.05-.4c.02.12.02.24.02.36-.02.78.7,1.54,1.5,1.5s1.48-.66,1.5-1.5Z"/>
      </g>
      <g>
        <path d="m83.63,41.1c.07-.89-.09-1.94-.67-2.65s-1.1-.59-1.91-.41c-1.07.24-1.63.55-1.85,1.71-.18.92,0,1.95.41,2.78.43.88,1.42,1.57,2.37,1.32,1.11-.29,1.57-1.62,1.65-2.76Z"/>
        <path d="m85.13,41.1c.12-1.75-.56-3.94-2.38-4.57-.73-.25-1.53-.07-2.26.1-.67.16-1.34.44-1.84.94-1.21,1.19-1.24,3.32-.72,4.83.33.96.84,1.75,1.66,2.36.77.56,1.73.77,2.66.58,1.95-.39,2.73-2.48,2.88-4.23.06-.78-.74-1.53-1.5-1.5-.87.04-1.43.66-1.5,1.5,0,.06-.01.13-.02.19,0,.19.06-.35.02-.17-.02.12-.04.23-.07.35-.02.1-.05.21-.08.31-.02.06-.04.13-.06.19-.08.23.03-.02.05-.1-.03.11-.12.24-.18.34-.03.04-.05.08-.08.13-.07.12-.13.06.1-.13-.07.06-.14.14-.2.21-.18.19.26-.15.1-.08-.06.03-.14.07-.19.11-.14.1.32-.08.15-.07-.05,0-.15.07-.19.05,0,0,.41-.02.15-.02-.05,0-.11,0-.16,0-.26,0,.16.02.16.02-.04.01-.15-.04-.2-.05-.06-.02-.24-.08-.01,0,.25.09-.03-.02-.08-.06-.05-.03-.12-.11-.18-.12.03,0,.27.24.1.07-.08-.08-.16-.16-.24-.24-.17-.17.07.07.08.1,0-.05-.09-.13-.12-.18-.04-.06-.07-.12-.1-.19l-.04-.09c-.05-.12-.05-.12,0,0l.04.09c-.02-.06-.05-.12-.07-.18-.02-.06-.04-.13-.06-.19-.04-.13-.07-.26-.1-.39l-.02-.1c-.02-.13-.02-.13,0,0v.1s0-.1,0-.15c-.02-.18-.02-.36-.01-.54,0-.07,0-.13.01-.2,0-.12.08-.19-.02.11.04-.12.05-.25.08-.38.01-.05.03-.1.04-.14.04-.14.14-.2-.06.13.02-.03.16-.26.16-.27,0,.03-.27.29-.12.17.03-.02.06-.06.08-.08.03-.03.06-.05.09-.08-.26.29-.27.18-.14.12.02-.01.23-.1.24-.13,0,.01-.38.14-.18.08.07-.02.13-.04.2-.06.21-.06.43-.11.64-.16.06-.01.28-.09.34-.07.02,0-.43.03-.19.03.06,0,.13,0,.2,0,.21-.01-.2,0-.21-.03.03,0,.06.01.09.02.11.03.04,0-.21-.09.03.02.08.05.12.07.23.11-.24-.24-.06-.05.04.04.08.09.12.13.22.22-.16-.25-.02-.02.07.12.12.3.21.39-.17-.18-.1-.25-.04-.06.02.07.05.14.06.22s.04.15.05.22c.01.05.08.38.02.12-.05-.23,0-.04,0,.03,0,.09.01.18.01.27,0,.16,0,.32-.01.49-.05.78.73,1.53,1.5,1.5.86-.04,1.44-.66,1.5-1.5Z"/>
      </g>
      <g>
        <path class="cls-2" d="m58.27,39.79c-9.68,2.81-16.24,15.12-14.7,24.83,1.31,8.25,11.25,8.35,16.23,3.38,3.88-3.87,4.72-9.96,4.86-15.19"/>
        <path d="m57.87,38.34c-9.73,2.93-16.16,13.74-16.02,23.61.06,4.53,1.79,8.81,6.36,10.36,3.97,1.34,8.56.12,11.75-2.45,5-4.03,6.03-11.03,6.21-17.06.06-1.93-2.94-1.93-3,0-.13,4.64-.69,9.96-3.91,13.58-2.19,2.47-5.73,3.93-9.04,3.34-8.75-1.57-5.05-14.47-2.12-19.51,2.38-4.08,5.98-7.61,10.58-8.99,1.84-.56,1.06-3.45-.8-2.89h0Z"/>
      </g>
      <path d="m69.45,88.33c-4.01-2.5-8.88-3.55-13.57-3.6s-9.54.92-13.3,3.76c-7.8,5.9-8.7,16.89-7.27,25.84.76,4.74,2.67,9.58,6.54,12.63,3.53,2.78,8.12,3.86,12.55,3.88s9.04-.86,12.83-3.08c4.06-2.37,7.09-6.24,8.92-10.53,4.1-9.62,2.62-22.81-6.69-28.91-1.62-1.06-3.12,1.54-1.51,2.59,7.16,4.69,8.67,14.76,6.42,22.46-1.14,3.91-3.28,7.55-6.39,10.21-2.95,2.51-6.82,3.72-10.63,4.11s-7.96.09-11.44-1.69c-3.84-1.96-6.03-5.59-7.11-9.67s-1.27-8.51-.84-12.68c.41-3.9,1.74-7.95,4.4-10.91,3.13-3.48,7.67-4.84,12.24-5s9.42.72,13.36,3.17c1.64,1.02,3.15-1.57,1.51-2.59Z"/>
    </g>
  </g>
</svg>