<?xml version="1.0" encoding="UTF-8"?>
<svg id="_레이어_2" data-name="레이어 2" xmlns="http://www.w3.org/2000/svg" viewBox="0 0 126.2 120.63">
  <defs>
    <style>
      .cls-1 {
        fill: #040000;
      }

      .cls-2 {
        fill: #fff;
      }
    </style>
  </defs>
  <g id="_레이어_1-2" data-name="레이어 1">
    <g>
      <g>
        <path class="cls-2" d="m13.22,62.59c-4.79-3.34-7.9-9.12-9.52-15.15-1.62-6.04-1.92-12.41-2.21-18.7,1.29,1.97,3.07,3.54,5.09,4.48,1.76-6.52,3.67-12.99,5.73-19.4,2.14,2.18,4.27,4.36,6.41,6.53,3.03-3.8,6.06-7.6,9.09-11.4,2.12,3.22,4.24,6.44,6.36,9.66,3.02-3.98,6.04-7.96,9.06-11.94.83-1.09,2.04-2.3,3.22-1.75.7.33,1.07,1.16,1.38,1.92,1.07,2.61,2.15,5.22,3.22,7.82,5.56-4.92,11.48-9.33,17.68-13.17,1.74,4.35,2.76,9.06,2.99,13.82,2.94-2.4,5.87-4.79,8.81-7.19.51,4.64,1.01,9.28,1.52,13.92.08.69.2,1.48.73,1.85.69.48,1.57-.02,2.24-.52,3.69-2.72,7.37-5.43,11.06-8.15,1.12,3.45,1.62,7.15,1.46,10.81,3.77-1.89,7.83-3.02,11.95-3.34-.27,6.15-1.63,12.25-3.99,17.82,1.74-.25,3.48-.49,5.21-.74-1.35,6.35-4.3,12.27-8.42,16.9"/>
        <path class="cls-1" d="m13.98,61.29c-4.4-3.14-7.05-8.22-8.56-13.3-1.85-6.24-2.13-12.8-2.42-19.26l-2.8.76c1.44,2.13,3.3,3.88,5.62,5.02.86.42,1.94.09,2.2-.9,1.76-6.51,3.67-12.97,5.73-19.4l-2.51.66c2.14,2.18,4.27,4.36,6.41,6.53.52.53,1.62.63,2.12,0,3.03-3.8,6.06-7.6,9.09-11.4l-2.36-.3c2.12,3.22,4.24,6.44,6.36,9.66.67,1.01,1.9.9,2.59,0,2.82-3.71,5.63-7.43,8.46-11.14.29-.38,1.29-2,1.89-1.94.49.05,1.02,2,1.15,2.34.88,2.15,1.77,4.3,2.65,6.44.44,1.06,1.59,1.47,2.51.66,5.43-4.79,11.23-9.11,17.37-12.93l-2.2-.9c1.69,4.3,2.69,8.8,2.93,13.42.07,1.37,1.55,1.88,2.56,1.06,2.94-2.4,5.87-4.79,8.81-7.19l-2.56-1.06c.34,3.12.68,6.24,1.02,9.36.17,1.52.32,3.04.5,4.56.14,1.18.38,2.46,1.47,3.14,2.36,1.48,5.19-1.58,6.92-2.85,2.63-1.94,5.27-3.88,7.9-5.82l-2.2-.9c1.07,3.39,1.54,6.86,1.41,10.42-.04,1.21,1.29,1.77,2.26,1.3,3.51-1.73,7.3-2.81,11.2-3.13l-1.5-1.5c-.29,6-1.62,11.88-3.94,17.42-.5,1.19.88,1.98,1.85,1.85,1.74-.25,3.48-.49,5.21-.74l-1.85-1.85c-1.31,5.99-3.97,11.62-8.03,16.24-1.27,1.45.84,3.58,2.12,2.12,4.39-5,7.38-11.07,8.8-17.57.26-1.21-.71-2.01-1.85-1.85-1.74.25-3.48.49-5.21.74l1.85,1.85c2.42-5.79,3.75-11.95,4.05-18.22.04-.76-.72-1.56-1.5-1.5-4.46.37-8.7,1.56-12.71,3.54l2.26,1.3c.14-3.8-.37-7.59-1.52-11.21-.26-.84-1.39-1.5-2.2-.9-2.11,1.55-4.21,3.11-6.32,4.66-.92.68-1.84,1.36-2.76,2.04-.53.39-1.05.78-1.58,1.16-.06.05-1.26.81-.97.91-.35-.11-.41-3.12-.46-3.53l-.37-3.36c-.28-2.56-.56-5.12-.84-7.68-.15-1.34-1.51-1.92-2.56-1.06-2.94,2.4-5.87,4.79-8.81,7.19l2.56,1.06c-.26-4.88-1.25-9.67-3.04-14.22-.34-.86-1.31-1.45-2.2-.9-6.36,3.95-12.37,8.45-17.98,13.4l2.51.66c-1.14-2.78-2.24-5.58-3.44-8.33-.95-2.2-3.08-3.46-5.27-1.95-1.02.71-1.73,1.74-2.47,2.72l-2.72,3.58c-1.91,2.52-3.83,5.04-5.74,7.56h2.59c-2.12-3.22-4.24-6.44-6.36-9.66-.48-.72-1.72-1.1-2.36-.3-3.03,3.8-6.06,7.6-9.09,11.4h2.12c-2.14-2.18-4.27-4.36-6.41-6.53-.82-.83-2.17-.39-2.51.66-2.06,6.42-3.97,12.89-5.73,19.4l2.2-.9c-1.87-.91-3.38-2.22-4.55-3.94-.78-1.15-2.87-.83-2.8.76.56,12.31,1.44,27.28,12.47,35.15,1.57,1.12,3.07-1.48,1.51-2.59h0Z"/>
      </g>
      <g>
        <path class="cls-2" d="m24.09,57.99c-6.11,16.48-.34,36.22,12.69,48.01,13.03,11.79,32.26,15.69,49.33,11.5,5.75-1.41,11.4-3.75,15.75-7.76,7.52-6.95,10.04-18.16,8.38-28.27s-6.95-19.26-13.07-27.47c-3.51-4.7-7.42-9.27-12.48-12.23-8.34-4.88-18.59-4.79-28.25-4.25-5.25.29-10.59.7-15.48,2.65s-9.32,5.7-10.82,10.74"/>
        <path d="m22.65,57.59c-5.75,15.74-1.14,34.05,9.93,46.32,11.63,12.89,30.07,18.4,47.05,16.29,8.75-1.09,18.1-3.89,24.36-10.44,5.83-6.1,8.4-14.72,8.23-23.04-.19-9.5-3.99-18.54-8.96-26.5-2.52-4.04-5.33-7.95-8.43-11.57s-6.52-6.75-10.67-8.89c-8.44-4.35-18.26-4.27-27.51-3.76s-19.15,1.6-25.14,9.2c-1.26,1.6-2.2,3.36-2.81,5.3s2.32,2.64,2.89.8c2.65-8.46,12.25-11.22,20.11-11.95,8.67-.81,18.08-1.4,26.5,1.21,8.62,2.67,14.41,9.52,19.45,16.65s9.59,15.48,11.1,24.45c1.29,7.63.08,15.94-4.15,22.5-4.62,7.17-12.71,10.64-20.79,12.33-15.68,3.27-33.21-.37-45.4-11.03-11.51-10.06-17.63-26.48-14.47-41.57.39-1.87.93-3.7,1.58-5.5s-2.23-2.6-2.89-.8h0Z"/>
      </g>
      <g>
        <path d="m46.12,67.82c.05-.91-.71-2.41-1.64-2.71-.3-.1-.62-.06-.94-.02-1.24.15-1.38,1.94-1.11,2.94.25.92,1.11,1.71,2.06,1.62.88-.08,1.58-.94,1.62-1.83Z"/>
        <path d="m47.62,67.82c.02-.7-.2-1.36-.48-1.99-.24-.54-.61-1.08-1.06-1.47-.66-.56-1.42-.88-2.3-.81-.78.07-1.52.26-2.06.88-.87,1.01-1,2.35-.81,3.62.22,1.39,1.33,2.72,2.74,3.01,1.05.22,2.06-.08,2.85-.8.7-.63,1.05-1.54,1.11-2.46.05-.78-.73-1.53-1.5-1.5-.86.04-1.44.66-1.5,1.5,0,.04,0,.08-.01.13l.05-.4c-.03.19-.08.37-.15.55l.15-.36c-.07.16-.15.3-.26.44l.23-.3c-.1.13-.22.25-.35.36l.3-.23c-.12.09-.24.16-.37.22l.36-.15c-.14.06-.27.1-.42.12l.4-.05c-.15.02-.29.02-.44,0l.4.05c-.15-.03-.28-.07-.42-.12l.36.15c-.16-.07-.3-.16-.44-.26l.3.23c-.15-.12-.29-.26-.41-.42l.23.3c-.12-.16-.22-.33-.3-.51l.15.36c-.1-.23-.15-.47-.19-.72l.05.4c-.04-.34-.05-.69,0-1.03l-.05.4c.03-.24.09-.46.18-.68l-.15.36c.06-.13.13-.25.21-.37l-.23.3c.07-.08.14-.16.23-.22l-.3.23c.07-.06.15-.1.24-.14l-.36.15c.11-.04.22-.07.33-.09l-.4.05c.24-.03.47-.05.71-.03l-.4-.05c.11.02.22.04.32.08l-.36-.15c.13.06.25.13.36.21l-.3-.23c.17.13.31.28.44.45l-.23-.3c.2.26.36.54.49.84l-.15-.36c.11.27.19.54.23.83l-.05-.4c.01.12.02.23.02.35-.03.79.71,1.54,1.5,1.5.84-.04,1.47-.66,1.5-1.5Z"/>
      </g>
      <path d="m89.81,58.24c-.04-.36-.08-.55-.21-.86-.08-.19-.16-.37-.27-.55-.25-.4-.54-.77-.86-1.11s-.7-.66-1.09-.94c-.45-.32-.97-.5-1.52-.55-.23-.02-.48.01-.71.08-.48.15-.84.45-1.13.86-.15.21-.25.48-.31.73-.13.54-.06,1,.02,1.53.07.48.16.96.34,1.41.13.33.26.68.47.97.29.41.56.69.98.98.83.59,2.03.59,2.89.05.42-.27.81-.64,1.04-1.09s.4-1,.37-1.52c-.03-.4-.15-.77-.44-1.06-.26-.26-.69-.46-1.06-.44s-.79.14-1.06.44-.47.67-.44,1.06c0,.1,0,.21,0,.31l.05-.4c-.02.12-.05.23-.1.33l.15-.36c-.05.12-.12.23-.2.33l.23-.3c-.08.1-.17.19-.28.27l.3-.23c-.09.07-.19.12-.29.17l.36-.15c-.09.04-.18.06-.28.08l.4-.05c-.1.01-.2.02-.29,0l.4.05c-.1-.01-.2-.04-.3-.08l.36.15c-.13-.06-.25-.13-.36-.21l.3.23c-.12-.09-.22-.2-.31-.32l.23.3c-.14-.19-.26-.4-.35-.61l.15.36c-.2-.49-.3-1.02-.38-1.55l.05.4c-.02-.17-.05-.35-.04-.52l-.05.4c.02-.12.04-.23.09-.34l-.15.36c.03-.07.06-.13.1-.18l-.23.3s.06-.07.1-.1l-.3.23s.07-.05.11-.07l-.36.15s.08-.03.13-.03l-.4.05c.07,0,.13,0,.2,0l-.4-.05c.11.02.21.05.31.09l-.36-.15c.22.09.41.22.6.36l-.3-.23c.37.29.7.63.98,1l-.23-.3c.19.24.36.5.48.78l-.15-.36c.03.08.06.17.08.25l-.05-.4s0,.02,0,.03c.04.41.14.76.44,1.06.26.26.69.46,1.06.44s.79-.14,1.06-.44c.25-.28.48-.67.44-1.06Z"/>
      <g>
        <path class="cls-2" d="m65.67,68.39c-.88,4.67,1.49,9.6,5.27,12.48,4.9,3.74,12.36,4.65,18.14,2.6,3.16-1.12,8.05-4.96,6.41-8.9-1.47-3.56-7.07-2.39-10.02-3.03-5.22-1.13-8.03-6.77-10.12-11.17"/>
        <path d="m64.23,67.99c-.97,5.74,1.83,11.34,6.55,14.6s10.66,4.07,16.06,3.03c4.43-.85,10.25-4.11,10.48-9.21.11-2.36-1.28-4.4-3.43-5.29s-4.43-.75-6.65-.88c-5.71-.33-8.43-6.1-10.59-10.64-.83-1.74-3.42-.22-2.59,1.51,1.84,3.88,3.93,8.02,7.64,10.43,1.68,1.1,3.56,1.57,5.54,1.69,1.82.11,3.9-.09,5.61.67s1.76,2.64.93,4.08c-1.02,1.75-2.9,3.12-4.74,3.9-4.28,1.8-9.63,1.47-13.85-.3-4.95-2.08-9.01-7.2-8.06-12.8.32-1.89-2.57-2.7-2.89-.8h0Z"/>
      </g>
      <g>
        <path class="cls-2" d="m25.4,74.04c-2.38-4.11-7.39-6.64-12.05-5.76s-8.48,5.38-8.24,10.12c.09,1.91.78,3.75,1.61,5.47,2.25,4.63,5.85,8.79,10.63,10.7,2.71,1.08,5.95,1.35,8.42-.19"/>
        <path class="cls-1" d="m26.69,73.28c-4.38-7.28-15.01-9.22-20.58-2.17-2.85,3.61-3.05,7.97-1.31,12.12s4.32,7.71,7.82,10.34c3.88,2.92,9.42,4.71,13.91,2.09,1.67-.97.16-3.57-1.51-2.59-3.13,1.83-6.98.52-9.79-1.32s-5.07-4.63-6.68-7.62-2.77-6.6-.95-9.88c1.52-2.74,4.4-4.63,7.56-4.66,3.66-.03,7.09,2.09,8.95,5.19.99,1.65,3.59.15,2.59-1.51h0Z"/>
      </g>
      <g>
        <path class="cls-2" d="m104.97,59.68c.45-.96,1.51-1.47,2.52-1.79,5.54-1.73,12.1.67,15.22,5.56,3.12,4.89,2.52,11.85-1.39,16.14-1.93,2.12-5.21,3.6-7.65,2.1"/>
        <path class="cls-1" d="m106.26,60.44c.76-1.34,3.1-1.55,4.5-1.6,1.66-.06,3.29.22,4.84.79,3.02,1.11,5.62,3.47,6.79,6.5s1.07,6.63-.31,9.61c-1.18,2.54-4.49,6.43-7.67,4.66-1.69-.94-3.2,1.65-1.51,2.59,3.25,1.81,7.12.23,9.47-2.33s3.68-6.08,3.81-9.58c.27-7.16-4.72-13.4-11.71-14.88-3.36-.71-8.86-.68-10.81,2.74-.95,1.68,1.64,3.2,2.59,1.51h0Z"/>
      </g>
      <g>
        <path class="cls-2" d="m51.16,95.05c6.33,6.28,15.33,9.79,24.25,9.44s17.61-4.55,23.43-11.31"/>
        <path class="cls-1" d="m50.1,96.11c10.68,10.46,27.19,12.83,40.34,5.7,3.57-1.93,6.79-4.52,9.46-7.58,1.26-1.45-.85-3.58-2.12-2.12-5.53,6.34-13.54,10.42-21.98,10.85s-17.36-2.89-23.58-8.98c-1.38-1.35-3.5.77-2.12,2.12h0Z"/>
      </g>
    </g>
  </g>
</svg>