<?xml version="1.0" encoding="UTF-8"?>
<svg id="_레이어_2" data-name="레이어 2" xmlns="http://www.w3.org/2000/svg" viewBox="0 0 118.65 86.53">
  <defs>
    <style>
      .cls-1 {
        fill: #fff;
      }
    </style>
  </defs>
  <g id="_레이어_1-2" data-name="레이어 1">
    <g>
      <g>
        <path class="cls-1" d="m99.87,39.92c1.73-2.28,4.19-3.97,6.89-4.88,2.28-.76,6.03-1.51,8.07.18,3.96,3.28,2.23,10.28-.6,13.62-2.99,3.53-7.53,5.38-12.06,6.33"/>
        <path d="m100.93,40.98c1.81-2.32,4.22-3.95,7.06-4.74,2.12-.6,5.02-1.15,6.57.83,1.43,1.83,1.26,4.48.67,6.59-.68,2.43-2.04,4.44-4,6.03-2.7,2.19-6.11,3.32-9.46,4.04-1.89.41-1.09,3.3.8,2.89,6.7-1.44,13.39-4.94,15.48-11.92.84-2.82.95-6.16-.63-8.75-1.91-3.12-5.28-3.6-8.63-2.99-3.89.71-7.54,2.75-9.98,5.89-.5.64-.62,1.49,0,2.12.51.52,1.62.64,2.12,0h0Z"/>
      </g>
      <g>
        <path class="cls-1" d="m20.29,49.94c-3.55-4.78-10.89-6.23-15.98-3.14-.74.45-1.45.99-1.94,1.71-.76,1.11-.93,2.52-.86,3.86.27,4.7,3.42,8.96,7.54,11.23s9.06,2.75,13.72,2.04"/>
        <path d="m21.59,49.19c-4.31-5.65-13.17-7.51-19-3.02-3.38,2.6-2.98,7.33-1.47,10.88s4.29,6.38,7.65,8.1c4.46,2.28,9.51,2.65,14.39,1.93.81-.12,1.24-1.13,1.05-1.85-.23-.86-1.05-1.16-1.85-1.05-6.43.94-13.78-.67-17.5-6.45-1.38-2.15-2.94-6.12-1.21-8.48,1.57-2.14,5.06-2.72,7.51-2.57,2.97.18,6,1.61,7.83,4,.5.65,1.29.97,2.05.54.64-.36,1.03-1.41.54-2.05h0Z"/>
      </g>
      <g>
        <path class="cls-1" d="m19.37,52.44c1.8,6.23,4.23,12.34,7.89,17.69,3.66,5.35,8.63,9.93,14.61,12.43,8.89,3.72,19.01,2.56,28.5.89,7.95-1.4,16.21-3.28,22.37-8.51,4.76-4.04,7.87-9.86,9.03-15.99,1.16-6.13.45-12.54-1.59-18.44"/>
        <path d="m17.92,52.83c2.48,8.48,6.1,16.83,12.27,23.31,6.09,6.4,14.03,9.85,22.82,10.33,4.54.25,9.08-.21,13.56-.88s8.67-1.4,12.9-2.54c8.11-2.2,15.48-6.33,19.93-13.68,5.32-8.81,5.48-19.67,2.22-29.24-.62-1.82-3.52-1.04-2.89.8,2.69,7.91,3.06,16.8-.6,24.47-1.66,3.49-4.04,6.63-7.08,9.02s-6.69,4.01-10.39,5.16-7.67,1.92-11.56,2.59c-4.22.72-8.47,1.3-12.75,1.36-8.23.12-16.01-2.09-22.18-7.7-6.91-6.28-10.77-14.98-13.34-23.79-.54-1.85-3.44-1.06-2.89.8h0Z"/>
      </g>
      <g>
        <path class="cls-1" d="m98.72,44.66c4.1-3.42,7.24-8.19,7.93-13.49s-1.35-11.05-5.71-14.13c-1.55-1.1-3.32-1.83-4.96-2.79-4.83-2.83-8.39-7.57-13.43-10.01-2.77-1.34-5.85-1.92-8.91-2.27-10-1.17-20.25-.14-29.82,2.99"/>
        <path d="m99.78,45.72c4.55-3.86,7.93-9.24,8.44-15.27.47-5.59-1.91-11.43-6.53-14.7-1.31-.93-2.79-1.59-4.2-2.36s-2.77-1.71-4.04-2.74c-2.38-1.93-4.59-4.08-7.09-5.86C80.82.84,73.78.17,67.15.02c-8.03-.18-16.09,1.02-23.73,3.49-1.83.59-1.05,3.49.8,2.89,6.22-2.01,12.68-3.17,19.22-3.37,3.25-.1,6.51.03,9.74.38,3.06.34,6.21.89,8.97,2.3,5.03,2.57,8.55,7.28,13.45,10.05,2.55,1.44,5.17,2.53,6.98,4.95,1.5,2.01,2.42,4.51,2.64,7,.55,6.27-2.91,11.96-7.56,15.89-1.48,1.25.66,3.36,2.12,2.12h0Z"/>
      </g>
      <g>
        <path class="cls-1" d="m39.43,8.03c-7.98,3.6-16.51,6.25-23.64,11.33-7.13,5.09-12.79,13.47-11.54,22.14"/>
        <path d="m38.68,6.73C26.02,12.41,10.55,16.66,4.48,30.56c-1.51,3.45-2.22,7.18-1.72,10.94.11.81.61,1.49,1.5,1.5.73,0,1.61-.7,1.5-1.5-1.08-8.15,3.89-15.64,10.17-20.39,7.22-5.46,16.1-8.13,24.26-11.79,1.76-.79.23-3.38-1.51-2.59h0Z"/>
      </g>
      <g>
        <path class="cls-1" d="m12.78,31.37c-2.44,5.67-.84,12.82,3.78,16.91"/>
        <path d="m11.34,30.97c-2.6,6.2-.81,13.88,4.16,18.37,1.43,1.29,3.56-.82,2.12-2.12-4.27-3.85-5.61-10.16-3.39-15.45.31-.75-.34-1.65-1.05-1.85-.87-.24-1.53.3-1.85,1.05h0Z"/>
      </g>
      <g>
        <path class="cls-1" d="m17.08,37.1c.27,5.69,3,11.23,7.36,14.9"/>
        <path d="m15.58,37.1c.32,6.11,3.13,11.98,7.8,15.97.62.53,1.52.6,2.12,0,.54-.54.62-1.59,0-2.12-4.06-3.47-6.63-8.49-6.92-13.84-.1-1.92-3.1-1.93-3,0h0Z"/>
      </g>
      <g>
        <path class="cls-1" d="m22.99,36.31c.72,5.13,3.26,9.98,7.07,13.48"/>
        <path d="m21.54,36.71c.78,5.38,3.48,10.45,7.46,14.15,1.41,1.31,3.54-.8,2.12-2.12-3.65-3.39-5.98-7.9-6.69-12.82-.12-.8-1.13-1.24-1.85-1.05-.86.24-1.16,1.04-1.05,1.85h0Z"/>
      </g>
      <g>
        <path class="cls-1" d="m33.15,25.7c-1.87,3.16-2.41,6.96-2.3,10.63.06,1.86.28,3.74.95,5.48s1.84,3.33,3.45,4.26"/>
        <path d="m31.85,24.94c-2.07,3.61-2.69,7.84-2.48,11.95s1.46,8.26,5.12,10.48c1.66,1,3.17-1.59,1.51-2.59-2.94-1.78-3.59-5.44-3.67-8.62-.08-3.36.4-6.75,2.1-9.7.96-1.68-1.63-3.19-2.59-1.51h0Z"/>
      </g>
      <g>
        <path class="cls-1" d="m37.6,36.69c2.46,3.59,6.56,5.99,10.88,6.39,0-.19.01-.39.02-.58"/>
        <path d="m36.31,37.44c2.82,4.07,7.26,6.65,12.18,7.13.83.08,1.48-.75,1.5-1.5,0-.19.01-.39.02-.58.03-.81-.71-1.5-1.5-1.5-.83,0-1.47.69-1.5,1.5,0,.19-.01.39-.02.58l1.5-1.5c-.48-.05-.7-.08-1.25-.2-.52-.11-1.03-.25-1.53-.41-.46-.15-.88-.31-1.2-.46-.48-.22-.95-.46-1.41-.73-1.66-.97-3.14-2.33-4.2-3.85-.46-.66-1.31-.97-2.05-.54-.66.39-1,1.38-.54,2.05h0Z"/>
      </g>
      <g>
        <path class="cls-1" d="m43.24,21.24c-.1,3.96.21,8.02,1.75,11.67s4.47,6.88,8.27,8"/>
        <path d="m41.74,21.24c-.1,4.59.33,9.33,2.44,13.49,1.8,3.54,4.85,6.45,8.68,7.64,1.85.58,2.64-2.32.8-2.89-7.6-2.37-9.07-11.39-8.92-18.23.04-1.93-2.96-1.93-3,0h0Z"/>
      </g>
      <g>
        <path class="cls-1" d="m52.22,34.41c2.88,2.8,6.54,4.78,10.46,5.67"/>
        <path d="m51.16,35.48c3.08,2.97,6.94,5.09,11.12,6.05.79.18,1.62-.24,1.85-1.05.21-.76-.25-1.66-1.05-1.85-3.71-.86-7.07-2.66-9.79-5.28-.58-.56-1.54-.58-2.12,0s-.59,1.56,0,2.12h0Z"/>
      </g>
      <g>
        <path class="cls-1" d="m64.6,34.74c1.4,1.75,3.16,3.23,5.13,4.3"/>
        <path d="m63.54,35.8c1.48,1.85,3.36,3.4,5.43,4.54.69.38,1.67.19,2.05-.54s.2-1.65-.54-2.05c-.48-.26-.95-.55-1.4-.85-.24-.16-.47-.33-.7-.5-.16-.12.05.05.1.08-.06-.04-.11-.09-.17-.13-.11-.09-.22-.18-.33-.27-.85-.72-1.62-1.51-2.32-2.38-.23-.28-.72-.44-1.06-.44-.37,0-.81.16-1.06.44s-.46.66-.44,1.06c.02.42.18.73.44,1.06h0Z"/>
      </g>
      <g>
        <path class="cls-1" d="m73.65,42.36c1.3-2.55,1.64-5.57.94-8.35"/>
        <path d="m74.95,43.12c1.48-2.94,1.88-6.3,1.09-9.5-.19-.76-1.09-1.29-1.85-1.05s-1.25,1.03-1.05,1.85c.08.32.14.65.2.98.03.18.03.19,0,.03.01.09.02.19.03.28.01.14.03.28.04.43.05.69.03,1.38-.04,2.07,0,.07-.02.14-.02.21.02-.16.02-.15,0,.03-.03.16-.06.33-.09.49-.07.33-.15.65-.24.97s-.2.64-.32.95c-.03.07-.05.13-.08.2.06-.14.05-.13-.02.04-.08.17-.16.35-.25.52-.35.7-.21,1.66.54,2.05.68.36,1.68.21,2.05-.54h0Z"/>
      </g>
      <g>
        <path class="cls-1" d="m79.47,41.43c1.81-1.98,1.67-5.01,1.41-7.68"/>
        <path d="m80.53,42.49c2.16-2.41,2.14-5.7,1.85-8.74-.07-.78-.64-1.54-1.5-1.5-.75.03-1.58.66-1.5,1.5.12,1.3.22,2.62.09,3.92,0,.05,0,.2-.03.23.04-.05.04-.27,0-.05-.03.15-.05.3-.09.45-.06.3-.15.59-.25.88,0,.02-.06.21-.08.21.02,0,.13-.27.02-.05-.08.15-.15.3-.24.45-.08.13-.17.25-.25.38-.11.18.16-.19.03-.03-.06.07-.12.15-.19.22-.52.58-.62,1.55,0,2.12.57.52,1.56.62,2.12,0h0Z"/>
      </g>
      <g>
        <path class="cls-1" d="m85.59,41.18c2.77-1.52,3.71-4.99,5.67-7.46.4,2.82-.02,5.76-1.2,8.35"/>
        <path d="m86.34,42.48c1.55-.87,2.66-2.27,3.58-3.76.42-.69.81-1.39,1.21-2.09.2-.35.41-.69.63-1.03.11-.17.22-.33.33-.5.06-.08.11-.16.17-.24.05-.06.27-.35.05-.07l-2.51-.66c-.04-.28.03.29.03.35.01.15.02.3.03.45.02.35.03.7.03,1.05,0,.3-.01.6-.04.9-.01.2-.03.4-.05.6,0,.06-.07.48-.02.2-.1.64-.23,1.28-.41,1.91-.1.34-.2.67-.32,1-.05.14-.11.28-.16.42-.07.17-.08.19-.02.06-.04.09-.08.18-.12.27-.32.71-.23,1.65.54,2.05.66.35,1.71.23,2.05-.54,1.36-3.02,1.8-6.23,1.36-9.51-.15-1.07-1.85-1.5-2.51-.66-1.04,1.33-1.82,2.79-2.68,4.23-.19.32-.39.64-.6.96-.11.16-.22.32-.34.48-.17.23.1-.12-.01.02-.06.07-.12.15-.18.22-.25.29-.52.57-.81.82-.06.05-.12.1-.18.15.25-.22.04-.04-.02,0-.18.12-.36.24-.55.34-.68.39-.97,1.38-.54,2.05s1.32.95,2.05.54h0Z"/>
      </g>
      <g>
        <path class="cls-1" d="m94.87,43.09c1.16-2.62,1.6-5.55,1.27-8.4"/>
        <path d="m96.16,43.84c1.26-2.88,1.82-6.02,1.48-9.16-.09-.78-.63-1.54-1.5-1.5-.74.03-1.59.66-1.5,1.5.08.7.11,1.4.1,2.11,0,.35-.02.7-.05,1.05-.01.15-.03.3-.04.45-.01.1-.02.2-.04.3.02-.12.02-.13,0-.03-.12.67-.24,1.33-.43,1.99-.1.34-.2.67-.32,1.01-.05.14-.1.28-.16.42-.04.09-.07.19-.11.28.05-.13.05-.11-.03.06-.31.72-.24,1.64.54,2.05.65.34,1.72.23,2.05-.54h0Z"/>
      </g>
      <g>
        <path class="cls-1" d="m62.63,45.3c1.07-.24,2.18-.48,3.24-.22s2.05,1.17,2.01,2.26c-.03.77-.55,1.43-1.08,1.99-.65.68-1.37,1.29-2.14,1.83"/>
        <path d="m63.03,46.75c.26-.06.52-.12.78-.17.11-.02.22-.04.34-.06.07-.01.15-.02.22-.03-.19.03-.23.03-.12.02.24-.01.48-.04.73-.03.07,0,.28-.02.34.02-.21-.03-.24-.04-.07,0,.07.01.15.03.22.05.08.02.17.05.25.07.29.08-.3-.16-.03-.02.09.05.18.09.27.15.04.02.07.05.11.07.13.09.1.07-.09-.08.03.06.15.13.19.17.05.05.11.15.17.19-.14-.19-.17-.23-.08-.1.03.05.06.1.09.14l.04.07c.07.14.05.1-.05-.13,0,.06.04.19.07.24-.03-.26-.04-.31-.02-.15,0,.04,0,.09,0,.13,0,.38.09-.26,0,.02-.02.08-.07.19-.09.27.09-.21.1-.24.03-.1l-.05.08c-.06.11-.14.22-.21.33-.16.24.2-.23,0,0-.06.07-.13.15-.19.22-.31.34-.65.66-1,.97-.18.16-.38.36-.58.49.32-.19.02-.02-.04.03-.12.09-.23.17-.35.25-.64.45-1,1.33-.54,2.05.41.64,1.37,1.02,2.05.54,1.88-1.32,4.76-3.59,3.78-6.25-.46-1.26-1.55-2.19-2.84-2.55-1.36-.38-2.78-.1-4.12.2-.77.17-1.29,1.1-1.05,1.85.26.8,1.02,1.23,1.85,1.05h0Z"/>
      </g>
      <g>
        <path class="cls-1" d="m45.6,47.92c-.59.1-.89.85-.67,1.41s.8.89,1.38,1.01c.45.09.94.06,1.33-.2s.6-.78.41-1.2c-.17-.39-.61-.58-1.01-.72-.23-.08-.47-.16-.71-.14s-.49.17-.55.41"/>
        <path d="m45.2,46.47c-1.14.23-1.96,1.5-1.83,2.63.05.43.12.72.32,1.11.06.12.15.23.24.34.09.12.18.25.3.35.42.39.91.66,1.46.83.6.18,1.23.19,1.84.06.28-.06.56-.17.8-.32.36-.21.61-.48.85-.81.4-.56.51-1.29.36-1.96s-.63-1.18-1.18-1.52c-.26-.16-.56-.27-.85-.38-.32-.12-.63-.19-.97-.22-1-.09-1.93.55-2.22,1.5-.11.36-.04.83.15,1.16s.54.61.9.69c.81.19,1.6-.25,1.85-1.05,0-.03.02-.05.03-.08l-.15.36s.03-.05.04-.07l-.23.3s.07-.08.12-.12l-.3.23s.1-.06.15-.08l-.36.15c.06-.02.11-.04.17-.05l-.4.05c.09-.01.18,0,.27,0l-.4-.05c.27.04.53.14.78.25l-.36-.15c.15.07.29.14.42.24l-.3-.23c.07.05.13.11.18.18l-.23-.3c.04.06.08.12.11.18l-.15-.36c.03.07.05.13.06.2l-.05-.4c.01.08,0,.17,0,.25l.05-.4c-.01.09-.04.17-.07.25l.15-.36c-.04.09-.09.18-.15.26l.23-.3c-.06.07-.11.13-.18.19l.3-.23c-.09.07-.19.12-.29.17l.36-.15c-.13.05-.25.08-.39.11l.4-.05c-.19.02-.37.02-.56,0l.4.05c-.22-.03-.43-.09-.64-.17l.36.15c-.16-.07-.3-.15-.44-.26l.3.23c-.11-.09-.2-.18-.28-.29l.23.3c-.06-.09-.11-.17-.16-.27l.15.36c-.04-.09-.06-.17-.08-.27l.05.4c-.01-.1-.01-.21,0-.31l-.05.4c.02-.1.04-.2.08-.3l-.15.36c.04-.09.09-.18.15-.26l-.23.3c.05-.06.1-.11.16-.16l-.3.23c.05-.04.1-.07.16-.09l-.36.15c.06-.02.12-.04.18-.06.35-.07.72-.39.9-.69.19-.32.27-.8.15-1.16s-.34-.71-.69-.9c-.37-.2-.74-.23-1.16-.15h0Z"/>
      </g>
      <g>
        <path class="cls-1" d="m81.96,45.51c-.6-.02-1,.74-.78,1.3s.86.86,1.46.86c.4,0,.81-.1,1.12-.36s.48-.68.39-1.07c-.04-.15-.11-.3-.24-.4-.19-.15-.44-.16-.68-.17-.55-.02-1.1-.04-1.64-.06"/>
        <path d="m81.96,44.01c-.6,0-1.23.25-1.64.7-.43.47-.65,1.02-.7,1.66-.02.24.02.5.08.74.06.25.17.5.32.71.2.29.37.47.64.68.28.22.53.34.87.48.39.15.83.22,1.24.19.57-.03,1.18-.17,1.65-.5.54-.38.98-.91,1.15-1.57.2-.79.03-1.6-.52-2.21-.27-.3-.67-.53-1.06-.62-.31-.07-.64-.09-.96-.1-.49-.02-.98-.04-1.47-.05-.38-.01-.8.18-1.06.44s-.46.69-.44,1.06c.04.84.66,1.47,1.5,1.5.33.01.66.02,1,.04.31.01.63,0,.93.04l-.4-.05c.08.01.15.03.23.06l-.36-.15c.06.03.11.05.16.09l-.3-.23s.07.06.1.1l-.23-.3c.04.05.07.1.09.16l-.15-.36c.03.07.05.14.06.22l-.05-.4c0,.09,0,.17,0,.26l.05-.4c-.01.09-.04.17-.07.26l.15-.36c-.04.1-.09.19-.15.27l.23-.3c-.07.08-.14.16-.22.22l.3-.23c-.1.08-.21.14-.33.19l.36-.15c-.15.06-.3.1-.46.12l.4-.05c-.17.02-.33.02-.5,0l.4.05c-.17-.02-.33-.07-.49-.13l.36.15c-.13-.06-.25-.12-.36-.21l.3.23c-.09-.07-.16-.14-.23-.23l.23.3c-.06-.08-.11-.16-.15-.25l.15.36c-.03-.08-.06-.16-.07-.25l.05.4c0-.08,0-.17,0-.25l-.05.4c.01-.1.04-.19.07-.28l-.15.36c.04-.09.08-.17.14-.25l-.23.3c.05-.06.11-.12.17-.17l-.3.23s.09-.06.15-.09l-.36.15c.06-.03.13-.04.2-.05l-.4.05s.07,0,.11,0c.38,0,.79-.17,1.06-.44s.46-.69.44-1.06c-.04-.82-.66-1.49-1.5-1.5h0Z"/>
      </g>
      <g>
        <path class="cls-1" d="m49.92,62.13c12.12-.38,24.2-2.04,35.97-4.95"/>
        <path d="m49.92,63.63c12.26-.4,24.46-2.08,36.37-5,1.87-.46,1.08-3.35-.8-2.89-11.66,2.86-23.57,4.5-35.58,4.9-1.93.06-1.93,3.06,0,3h0Z"/>
      </g>
      <g>
        <path class="cls-1" d="m105.89,42.89c1.73-.48,3.38-1.26,4.84-2.3"/>
        <path d="m106.29,44.34c1.85-.52,3.63-1.34,5.2-2.45.33-.23.58-.5.69-.9.1-.36.05-.84-.15-1.16-.41-.64-1.37-1.02-2.05-.54-.91.64-1.89,1.18-2.91,1.62l.36-.15c-.63.27-1.28.49-1.94.68-.76.21-1.3,1.07-1.05,1.85s1.04,1.27,1.85,1.05h0Z"/>
      </g>
      <g>
        <path class="cls-1" d="m108.86,43.03c.23,1.54.28,3.12.12,4.67"/>
        <path d="m107.42,43.43c.01.09.03.18.04.27l-.05-.4c.2,1.46.22,2.94.08,4.41-.03.36.19.81.44,1.06.26.26.69.46,1.06.44s.79-.14,1.06-.44.4-.64.44-1.06c.16-1.7.07-3.39-.18-5.07-.05-.35-.4-.73-.69-.9-.32-.19-.8-.27-1.16-.15s-.71.34-.9.69c-.2.38-.21.73-.15,1.16h0Z"/>
      </g>
      <g>
        <path class="cls-1" d="m8.27,51.9c2.09.8,4.29,1.28,6.52,1.42"/>
        <path d="m7.87,53.35c2.22.84,4.56,1.32,6.92,1.48.78.05,1.53-.73,1.5-1.5-.04-.86-.66-1.44-1.5-1.5-.28-.02-.57-.04-.85-.07-.12-.01-.24-.03-.36-.04-.08,0-.16-.02-.24-.03.2.03.21.03.04,0-.52-.08-1.04-.17-1.56-.29-1.07-.24-2.12-.55-3.15-.94-.74-.28-1.68.31-1.85,1.05-.19.85.26,1.55,1.05,1.85h0Z"/>
      </g>
      <g>
        <path class="cls-1" d="m10.84,54.05c.24,1.83.88,3.6,1.88,5.16"/>
        <path d="m9.34,54.05c.28,2.11.94,4.11,2.08,5.91.42.66,1.35.99,2.05.54.66-.43.99-1.34.54-2.05-.24-.38-.47-.78-.67-1.18-.09-.18-.15-.41-.27-.58.09.22.11.26.05.11-.02-.06-.05-.11-.07-.17-.04-.1-.08-.2-.11-.3-.31-.84-.52-1.71-.64-2.59l.05.4v-.09c-.07-.41-.14-.75-.45-1.06-.26-.26-.69-.46-1.06-.44s-.79.14-1.06.44c-.25.27-.49.68-.44,1.06h0Z"/>
      </g>
    </g>
  </g>
</svg>