<?xml version="1.0" encoding="UTF-8"?>
<svg id="_레이어_2" data-name="레이어 2" xmlns="http://www.w3.org/2000/svg" viewBox="0 0 116.71 108.36">
  <defs>
    <style>
      .cls-1 {
        fill: #fff;
      }
    </style>
  </defs>
  <g id="_레이어_1-2" data-name="레이어 1">
    <g>
      <g>
        <g>
          <path class="cls-1" d="m15.7,36.65c-2.64-1.92-6.13-2.62-9.31-1.88-1.09.26-2.18.7-2.99,1.48-5.04,4.87,1.09,14.26,5.19,17.58,2.11,1.71,4.69,2.8,7.41,1.96"/>
          <path d="m16.46,35.36c-4.96-3.49-14.78-3.64-16.26,3.72-1.08,5.33,2.48,11.04,6.07,14.67,2.67,2.7,6.29,4.57,10.13,3.49,1.86-.52,1.07-3.42-.8-2.89-3.23.91-6.01-1.31-8.03-3.6-1.81-2.05-3.37-4.52-4.15-7.16-.68-2.29-.72-5.19,1.53-6.66,2.96-1.94,7.32-.87,9.99,1.01,1.58,1.11,3.08-1.49,1.51-2.59h0Z"/>
        </g>
        <g>
          <path class="cls-1" d="m44.36,13.14c-.91-1.97-.59-4.67,1.24-5.85s4.89.32,4.56,2.47c.39-2.53,1.07-7.27,4.11-8.15,3.42-.99,5.37,4.35,6.37,6.75-1.42-1.69,1.15-4.33,3.28-3.74s3.32,2.81,4.13,4.86c-.52-1.32.41-2.53,1.33-3.37,3.31-3.04,4.25,3.77,6.04,5.54,2.09,2.06,4.75,3.41,7.14,5.12,8.72,6.24,13.31,17.18,13.57,27.89.26,10.72-3.38,21.22-8.49,30.64-7.54,13.9-18.67,26.29-34.53,30.22-18.92,4.69-40.74-2.72-44.39-23.51-2.91-16.56,3.66-35.03,12.22-49.01,5.08-8.29,12.19-16.01,21.57-18.58"/>
          <path d="m45.65,12.39c-.48-1.14-.49-3.23.82-3.87.91-.44,2.27.17,2.18,1.25-.15,1.66,2.69,2.07,2.95.4.29-1.89.71-7.01,3.38-7.17,1.14-.07,1.96,1.23,2.47,2.08.7,1.17,1.22,2.43,1.74,3.69l2.74-1.16c-.67-.92.98-1.72,1.75-1.49,1.53.46,2.38,2.43,2.92,3.76.7,1.74,3.44,1.11,2.89-.8-.28-.97.66-1.69,1.36-2.21.14-.1-.03-.09.14-.02-.19-.07.18.22.25.3.82,1,1.24,2.38,1.8,3.53,1.81,3.7,6.08,5.35,9.22,7.71,7.09,5.34,11.17,14.12,12.13,22.81,1.12,10.11-1.67,20.28-6.01,29.34-3.8,7.92-8.7,15.48-15.02,21.64s-13.64,10.4-22.07,12.21c-7.1,1.53-14.66,1.33-21.59-.91-6.54-2.11-12.44-6.24-16.01-12.19-4.44-7.39-4.79-16.65-3.68-25,1.3-9.74,4.83-19.17,9.48-27.79,4.23-7.84,9.58-15.65,17.48-20.17,1.88-1.07,3.85-1.89,5.93-2.48,1.86-.52,1.07-3.42-.8-2.89-9.4,2.65-16.49,9.97-21.64,17.97-5.66,8.79-10.03,18.71-12.32,28.92-2.1,9.39-2.73,20.04,1.03,29.1,3,7.22,8.81,12.83,15.94,15.97s15.44,4.06,23.32,3c9.07-1.23,17.39-5.19,24.33-11.13s12.7-14.02,17-22.33c5.03-9.71,8.56-20.68,7.76-31.73-.68-9.47-4.56-19.06-11.82-25.39-1.94-1.69-4.12-3.01-6.25-4.43-1.7-1.14-3.06-2.14-3.93-3.97-1.11-2.34-2.83-6.58-6.2-4.67-1.94,1.1-3.38,3.36-2.74,5.6l2.89-.8c-1.11-2.76-3.11-6.34-6.62-6.01-2.71.26-5.39,3.48-3.53,6.05.91,1.25,3.44.55,2.74-1.16C60.82,4.9,59.02-.18,54.91,0c-4.57.21-5.65,5.8-6.2,9.36l2.95.4c.28-3.14-3.43-5.12-6.13-4.09-3.31,1.26-3.66,5.39-2.46,8.23.32.75,1.41.9,2.05.54.78-.44.85-1.31.54-2.05h0Z"/>
        </g>
        <g>
          <path class="cls-1" d="m41.57,51.12c-.9-.09-1.64.97-1.38,1.83s1.28,1.36,2.17,1.2,1.61-.87,1.99-1.69c.17-.37.28-.8.15-1.19-.18-.51-.82-.81-1.33-.62s-.79.84-.58,1.35"/>
          <path d="m41.57,49.62c-1.61-.12-2.92,1.43-2.94,2.95s1.24,2.8,2.68,3.04c.84.14,1.61.02,2.38-.36.63-.31,1.13-.82,1.54-1.38.45-.6.75-1.35.8-2.1.06-.94-.44-1.86-1.26-2.32-.96-.54-2.15-.43-2.96.33-.68.63-1.02,1.75-.68,2.63.14.37.33.69.69.9.32.19.8.27,1.16.15s.71-.34.9-.69.29-.78.15-1.16c-.03-.07-.05-.14-.06-.21l.05.4c-.01-.09-.01-.18,0-.28l-.05.4c.01-.09.04-.18.07-.27l-.15.36c.04-.09.08-.17.14-.24l-.23.3c.06-.07.12-.14.19-.2l-.3.23c.06-.05.12-.08.19-.12l-.36.15c.09-.04.17-.06.27-.07l-.4.05c.09,0,.18,0,.28,0l-.4-.05c.09.02.18.04.27.08l-.36-.15c.09.04.16.09.24.14l-.3-.23c.07.06.14.12.19.2l-.23-.3c.04.06.08.12.11.19l-.15-.36c.03.09.05.17.07.26l-.05-.4c.01.12.01.24,0,.36l.05-.4c-.03.19-.09.38-.16.56l.15-.36c-.11.26-.25.49-.42.72l.23-.3c-.16.2-.33.38-.53.54l.3-.23c-.18.14-.38.26-.59.35l.36-.15c-.19.08-.39.13-.59.16l.4-.05c-.17.02-.35.01-.52,0l.4.05c-.17-.03-.34-.07-.5-.14l.36.15c-.16-.07-.31-.15-.45-.26l.3.23c-.12-.09-.23-.2-.32-.32l.23.3c-.08-.11-.15-.22-.2-.34l.15.36c-.05-.12-.08-.24-.1-.38l.05.4c-.01-.11,0-.22,0-.33l-.05.4c.02-.15.06-.29.12-.42l-.15.36c.05-.12.12-.23.2-.33l-.23.3c.08-.1.17-.19.27-.27l-.3.23c.1-.08.2-.14.32-.19l-.36.15c.08-.03.17-.05.25-.07l-.4.05c.09-.01.18-.01.27,0,.37.03.81-.19,1.06-.44s.46-.69.44-1.06c-.04-.86-.66-1.43-1.5-1.5h0Z"/>
        </g>
        <g>
          <path class="cls-1" d="m64.79,52.07c-.68.55-.88,1.6-.49,2.39s1.32,1.25,2.19,1.13c.5-.07.97-.3,1.31-.66.61-.63.78-1.68.32-2.43s-1.55-1.07-2.3-.61"/>
          <path d="m63.73,51.01c-.99.83-1.36,2.34-.99,3.56s1.51,2.27,2.81,2.47c.32.05.62.09.95.05.53-.06.93-.17,1.41-.4.6-.28,1.12-.79,1.46-1.36s.53-1.25.52-1.91c-.01-.8-.29-1.5-.78-2.12-.93-1.17-2.76-1.47-4.03-.72-.33.19-.59.53-.69.9s-.05.84.15,1.16c.44.68,1.33.97,2.05.54.06-.03.12-.07.18-.09l-.36.15c.12-.05.25-.09.38-.11l-.4.05c.15-.02.3-.02.45,0l-.4-.05c.17.02.33.07.49.13l-.36-.15c.14.06.27.14.39.23l-.3-.23c.12.09.23.2.32.32l-.23-.3c.08.12.15.24.21.37l-.15-.36c.06.15.1.31.12.47l-.05-.4c.02.18.02.36,0,.55l.05-.4c-.03.18-.08.36-.15.53l.15-.36c-.07.17-.16.33-.27.48l.23-.3c-.11.14-.24.26-.38.38l.3-.23c-.17.13-.35.23-.54.31l.36-.15c-.18.07-.36.12-.54.14l.4-.05c-.18.02-.36.02-.55,0l.4.05c-.2-.03-.39-.08-.58-.16l.36.15c-.19-.08-.36-.18-.52-.31l.3.23c-.13-.1-.24-.22-.35-.35l.23.3c-.1-.13-.18-.27-.25-.42l.15.36c-.07-.16-.11-.33-.14-.51l.05.4c-.02-.18-.02-.35,0-.52l-.05.4c.03-.19.08-.38.15-.56l-.15.36c.06-.14.14-.28.23-.41l-.23.3c.09-.11.18-.21.29-.3.28-.23.44-.71.44-1.06s-.16-.81-.44-1.06-.66-.46-1.06-.44-.74.17-1.06.44h0Z"/>
        </g>
        <g>
          <path class="cls-1" d="m37.28,40.73c.03-1,.2-2,.51-2.96.11-.34.24-.68.47-.94.37-.43,1-.6,1.54-.44s.96.67,1.03,1.23c.41-1.17,1.13-2.23,2.05-3.05.4-.35.87-.67,1.4-.7.79-.04,1.5.6,1.79,1.34s.26,1.56.22,2.36c.33-.28.54-.66.83-.98s.73-.56,1.14-.44c.47.14.68.67.8,1.14.24.97.32,1.97.26,2.96"/>
          <path d="m38.78,40.73c.03-.88.16-1.95.5-2.71.08-.17.04-.07.16-.25-.04.06-.23.09-.05.06.25-.05-.11-.02-.07-.04.05-.02.05.1.07.22.12.64.83,1.1,1.45,1.1.7,0,1.22-.48,1.45-1.1.35-.93,1.08-2.17,2.02-2.63,0,0,0,0,0-.01-.04-.05.02-.06.16,0-.08,0-.17-.06-.05.03.1.07.17.12.27.34.24.53.15,1.25.12,1.83-.06,1.35,1.65,1.91,2.56,1.06.31-.29.61-.67.83-.98s.25.08-.32-.06c-.12-.04-.23-.1-.33-.18-.03-.08-.03-.07,0,.03,0,.38.2.81.25,1.2.06.53.06,1.07.03,1.6-.04.81.72,1.5,1.5,1.5.85,0,1.46-.69,1.5-1.5.05-.9-.02-1.79-.17-2.68-.14-.82-.38-1.68-.99-2.28-.75-.73-1.84-.84-2.76-.37-.74.37-1.11,1.08-1.66,1.59l2.56,1.06c.05-1.22.02-2.51-.66-3.57-.63-.99-1.74-1.7-2.94-1.61-2.38.18-4.05,2.82-4.8,4.84h2.89c-.4-2.12-2.97-3.05-4.68-1.79-1.51,1.11-1.75,3.58-1.82,5.31-.03.81.71,1.5,1.5,1.5.84,0,1.47-.69,1.5-1.5h0Z"/>
        </g>
        <g>
          <path class="cls-1" d="m61.29,42.35c-.22-1.27.1-2.62.85-3.67.41-.57,1.03-1.08,1.73-1.05s1.33.87.95,1.46c.29-1.81,1.03-3.55,2.14-5.02.33-.44.85-.89,1.36-.68.26.11.42.37.56.62.73,1.35,1.21,2.83,1.42,4.35.59-.39,1.19-.79,1.87-.99s1.45-.2,2.05.19c.69.45,1,1.31,1.16,2.12.21,1.03.28,2.09.19,3.13"/>
          <path d="m62.74,41.95c-.1-.72.09-1.51.45-2.13.02-.03.64-.76.65-.7,0,.02-.15.05-.2-.02-.2-.24-.31-.35-.1-.76l2.74,1.16c.27-1.58.83-3.24,1.86-4.49.03-.04.2-.17.2-.21,0,.22-1.13-.73-.69.1.2.37.38.76.53,1.16.33.88.55,1.79.69,2.72s1.47,1.39,2.2.9c.54-.36,1.89-1.43,2.49-.69.33.41.41,1.12.48,1.62.1.73.1,1.48.05,2.22-.05.81.73,1.5,1.5,1.5.86,0,1.45-.69,1.5-1.5.13-1.98,0-4.66-1.56-6.12-1.8-1.69-4.2-.79-5.97.38l2.2.9c-.21-1.4-.63-2.74-1.23-4.02s-1.71-2.57-3.34-1.91c-1.2.48-1.96,1.81-2.53,2.91-.61,1.18-1.05,2.44-1.27,3.75-.13.74.13,1.47.87,1.77.65.26,1.54.07,1.87-.61.58-1.18.26-2.5-.84-3.25-.95-.65-2.18-.57-3.13.04-2.01,1.28-2.62,3.9-2.3,6.11.12.8,1.13,1.24,1.85,1.05.86-.24,1.16-1.04,1.05-1.85h0Z"/>
        </g>
        <g>
          <path class="cls-1" d="m93.47,47.31c2.78-3.51,7.35-5.09,11.78-5.69,2.58-.35,5.45-.34,7.46,1.31,1.93,1.58,2.54,4.29,2.5,6.78-.09,5.6-3.05,11.08-7.69,14.23-4.64,3.15-10.82,3.87-16.06,1.89-.6-.23-1.27-.6-1.34-1.23"/>
          <path d="m94.53,48.37c2.37-2.9,5.81-4.32,9.41-5.02,3.41-.67,7.97-.98,9.32,3.03,1.15,3.42.19,7.53-1.48,10.61-1.76,3.25-4.56,5.89-8.01,7.26-1.99.79-4.11,1.19-6.25,1.18-1.07,0-2.13-.1-3.17-.32-.4-.09-2.66-.45-2.79-.91-.52-1.86-3.41-1.07-2.89.8.63,2.27,3.65,2.82,5.67,3.15,2.39.39,4.78.36,7.16-.11,4.73-.93,8.86-3.69,11.66-7.59s4.08-8.64,3.38-13.21c-.35-2.23-1.36-4.36-3.21-5.72-1.97-1.44-4.52-1.71-6.89-1.53-5.14.4-10.65,2.14-14.02,6.26-1.21,1.48.9,3.62,2.12,2.12h0Z"/>
        </g>
        <g>
          <path class="cls-1" d="m52.97,54.75c-1.11.11-2.17.72-2.82,1.64-.2.28-.37.6-.33.94.02.22.12.42.25.6.5.71,1.36,1.09,2.22,1.19s1.73-.03,2.58-.16"/>
          <path d="m52.97,53.25c-.9.1-1.77.34-2.54.85-.81.54-1.52,1.26-1.9,2.16-.91,2.15,1.32,4,3.25,4.3,1.19.19,2.31.04,3.5-.14.35-.05.73-.4.9-.69.19-.32.27-.8.15-1.16s-.34-.71-.69-.9c-.38-.2-.73-.22-1.16-.15-.22.03-.44.07-.67.1l.4-.05c-.66.09-1.33.14-1.99.05l.4.05c-.33-.05-.65-.14-.96-.26l.36.15c-.13-.06-.25-.12-.38-.19-.05-.03-.11-.07-.16-.1-.24-.14.26.24.06.05-.09-.09-.18-.17-.27-.27-.07-.09-.07-.08.02.03.09.11.09.12.02.02-.04-.07-.08-.14-.12-.22l.15.36c-.04-.1-.07-.21-.09-.32l.05.4c0-.09,0-.16.01-.25l-.05.4c.02-.08.04-.16.07-.24l-.15.36c.05-.11.1-.21.16-.31.03-.05.06-.1.1-.14.09-.12.06-.08-.09.12.15-.14.28-.31.43-.45.04-.03.08-.07.12-.1.12-.1.08-.07-.12.09.09-.05.17-.12.26-.17.18-.11.36-.2.55-.29l-.36.15c.31-.13.64-.22.98-.27l-.4.05c.05,0,.1-.01.16-.02.41-.05.76-.14,1.06-.44.26-.26.46-.69.44-1.06s-.14-.79-.44-1.06c-.27-.25-.67-.48-1.06-.44h0Z"/>
        </g>
      </g>
      <g>
        <path class="cls-1" d="m50.77,65.65c-2.96-.83-6-1.66-9.06-1.39s-6.2,1.91-7.37,4.75c-1.28,3.08.14,6.81,2.7,8.94s6.01,2.9,9.34,2.99c3.38.09,6.78-.45,9.95-1.63,2.01-.75,3.98-1.8,5.32-3.48s1.92-4.08,1.01-6.02c-.78-1.64-2.48-2.69-4.25-3.12s-3.61-.33-5.43-.22"/>
        <path d="m51.17,64.2c-5.2-1.45-11.21-2.72-15.78,1.01-4.11,3.36-3.67,9.2-.31,12.92,3.7,4.1,10.06,4.73,15.22,4.12s12.03-2.51,13.91-8.02c.92-2.7.16-5.62-2.09-7.4-2.61-2.06-5.97-2.05-9.13-1.87-1.92.11-1.93,3.11,0,3,2.1-.12,4.44-.34,6.38.65,1.82.92,2.64,2.67,2,4.64-1.32,4.07-7.09,5.46-10.79,5.97-4,.55-8.77.38-12.16-2.09-2.85-2.08-4.34-6.45-1.57-9.22,3.6-3.59,9.26-2.01,13.52-.82,1.86.52,2.66-2.37.8-2.89h0Z"/>
      </g>
    </g>
  </g>
</svg>