<?xml version="1.0" encoding="UTF-8"?>
<svg id="_레이어_2" data-name="레이어 2" xmlns="http://www.w3.org/2000/svg" viewBox="0 0 106.95 98.56">
  <defs>
    <style>
      .cls-1 {
        fill: none;
        stroke: #000;
        stroke-linecap: round;
        stroke-linejoin: round;
        stroke-width: 2.5px;
      }
    </style>
  </defs>
  <g id="_레이어_1-2" data-name="레이어 1">
    <g>
      <path class="cls-1" d="m44.88,27.13c-10.07,5.79-18.21,20.91-11.11,31.93,1.96,2.69,4.57,4.84,7.58,6.25,2.3,1.27,4.78,2.17,7.36,2.66,3.12.58,6.33.46,9.4-.35,8.56-2.36,16.94-10.07,15.87-19.62-.6-5.42-3.56-10.24-7.31-14.06-5.2-5.3-15.51-10.8-22.76-6.11-3.18,2.06-5.17,5.51-6.42,9-2.28,6.43-3.02,13.76,1.76,19.35,2.23,2.57,5.12,4.48,8.37,5.52,8.33,2.67,23.07-.94,26.47-10.24"/>
      <path class="cls-1" d="m46.72,32.87c1.14,2.07,2.28,4.19,3.33,6.28,1.43,2.43,2.51,5.04,3.21,7.76,0,.17.13,2.85-.44,2.5-1.14-.67.31-3.06.71-3.65,1.81-2.7,4.87-4.78,7.55-6.57"/>
      <path class="cls-1" d="m64.73,27.24c6.52-6.43,14.58-11.38,21.83-17.07,2.03-1.57,4.07-3.13,5.95-4.88.66-.63,1.75-1.45,1.91-2.44.2-1.32-2.57-2.28-3.19-.98-.92,1.91,2.07,4.68,3.24,5.69,3.03,2.75,6.27,5.2,8.91,8.33.86,1.02,2.11,2.28,2.28,3.64.48,3.48-4.36,6.69-6.6,8.52-6.89,5.69-14.14,10.82-21.51,15.83"/>
      <path class="cls-1" d="m28.33,56.32c-6.52,5.91-13.11,11.71-19.42,17.86-1.74,1.7-3.52,3.33-5.22,5.05-.93.75-1.71,1.69-2.28,2.74-.51,1.32.31,2.97,1,4.06,2.12,3.27,4.56,6.32,7.27,9.11.9.94,1.99,2.38,3.41,2.15,4.3-.67,8.33-5.62,11.32-8.38,6.42-5.88,9.75-8.44,16.5-13.92"/>
      <path class="cls-1" d="m25.7,73.44c1.98-2.02,3.59-3.48,5.8-5.27"/>
      <path class="cls-1" d="m17.38,80.44c1.4-1.34,2.83-2.67,4.32-3.93"/>
      <path class="cls-1" d="m10.77,87.17c1.32-1.38,2.71-2.65,4.12-3.94"/>
    </g>
  </g>
</svg>