<?xml version="1.0" encoding="UTF-8"?>
<svg id="_레이어_2" data-name="레이어 2" xmlns="http://www.w3.org/2000/svg" viewBox="0 0 85.17 63.52">
  <g id="_레이어_1-2" data-name="레이어 1">
    <g>
      <path d="m68.25,43.68c5.2-1.51,10.78-3.84,14.23-8.21,3.87-4.9,3.15-10.84.42-16.1C77.29,8.54,65.8,1.76,53.91.28c-13.83-1.72-27.29,4.65-37.76,13.23-5.53,4.53-10.67,9.97-13.6,16.58s-3.64,14.34-.56,21.03c2.64,5.73,8.06,10.19,14.16,11.76,6.31,1.62,13.23.06,18.38-3.89,1.31-1,2.48-2.13,3.52-3.41,1.21-1.49-.9-3.62-2.12-2.12-3.76,4.63-9.55,7.3-15.52,7.04-5.7-.25-11.15-3.49-14.31-8.21-3.62-5.41-3.84-12.17-1.88-18.23,2.05-6.37,6.46-11.68,11.35-16.11C24.73,9.66,36.77,2.93,49.43,2.99c10.62.05,21.44,4.87,27.99,13.34,3.28,4.25,6.64,10.49,3.74,15.76-2.68,4.87-8.66,7.23-13.71,8.7-1.85.54-1.06,3.43.8,2.89h0Z"/>
      <path d="m49.91,3.84c-2.06,3.98-3.05,8.46-2.79,12.94.05.81.66,1.5,1.5,1.5.78,0,1.55-.69,1.5-1.5-.23-3.95.56-7.9,2.38-11.42.37-.72.19-1.63-.54-2.05-.67-.39-1.68-.18-2.05.54h0Z"/>
      <path d="m30.34,4.98c-3.87,7.05-5.23,15.14-4,23.08.13.81,1.13,1.24,1.85,1.05.86-.23,1.17-1.05,1.05-1.85-1.1-7.1.24-14.48,3.69-20.77.93-1.69-1.66-3.21-2.59-1.51h0Z"/>
      <path d="m11.57,18.45c-1.7,5.39-2.48,11.14-1.8,16.78.1.8.62,1.5,1.5,1.5.74,0,1.6-.69,1.5-1.5-.65-5.4.06-10.81,1.69-15.98.58-1.85-2.31-2.63-2.89-.8h0Z"/>
    </g>
  </g>
</svg>