<?xml version="1.0" encoding="UTF-8"?>
<svg id="_레이어_2" data-name="레이어 2" xmlns="http://www.w3.org/2000/svg" viewBox="0 0 70.64 98">
  <g id="_레이어_1-2" data-name="레이어 1">
    <path d="m26.93,8.49c-4.19,17.97-10.36,35.48-18.46,52.07-1.92,3.94-3.95,7.83-5.6,11.9-.83,2.05-1.56,4.16-2.09,6.31-.5,2.03-1,4.23-.68,6.32.63,4.13,4.93,5.6,8.32,6.95,4,1.61,8.13,2.89,12.34,3.84,8.4,1.9,17.1,2.55,25.68,1.85,4.36-.35,8.7-1.03,12.95-2.05,3.32-.8,7.69-1.54,10.01-4.31,2.88-3.44.07-7.79-1.25-11.28-1.58-4.15-2.93-8.38-4.04-12.68-2.26-8.69-3.55-17.6-3.84-26.57-.15-4.44-.05-8.88.29-13.3.17-2.17.39-4.35.67-6.51.17-1.29.75-2.86.15-4.07-1.75-3.53-3.69-6.98-5.53-10.47l-.57-1.08c-.69-1.31-2.85-.71-2.8.76.18,4.88.39,9.83-.32,14.67-.17,1.18-.41,2.35-.7,3.51-.1.4-.31.88-.36,1.28-.23.26-.22.44.03.55-.32-.03-.63-.07-.94-.12-2.55-.34-5.09-.75-7.62-1.19-1.27-.22-2.54-.45-3.8-.69-.63-.12-1.27-.24-1.9-.37-.57-.11-1.38-.13-1.9-.38s-.41.01-.44-.71c-.02-.49,0-.98,0-1.47.01-1.31.03-2.62.07-3.93.14-5.23.5-10.46,1.04-15.67.13-1.24-1.77-2.05-2.56-1.06-1.91,2.41-3.83,4.82-5.74,7.23-1.19,1.5.92,3.63,2.12,2.12,1.91-2.41,3.83-4.82,5.74-7.23l-2.56-1.06c-.49,4.72-.83,9.45-.99,14.19-.08,2.35-.19,4.72-.12,7.06.06,2.08,1.14,3.11,3.12,3.51,4.57.94,9.17,1.73,13.79,2.39,2,.29,4.24.89,5.21-1.41.82-1.94,1.18-4.15,1.48-6.23.7-4.98.55-10.01.37-15.02l-2.8.76c2.07,3.91,4.14,7.83,6.2,11.74l-.15-1.16c-2.27,14.56-1.97,29.43.92,43.89,1.44,7.23,3.54,14.33,6.26,21.18.58,1.46,1.42,2.96,1.71,4.52.31,1.64-.54,2.68-1.91,3.44-2.73,1.53-6.22,2.1-9.25,2.74-14.05,2.98-28.87,2.11-42.49-2.39-1.67-.55-3.31-1.15-4.94-1.81-1.46-.59-3.02-1.16-4.32-2.06-3.04-2.1-1.3-6.71-.42-9.58,2.12-6.92,5.87-13.24,8.9-19.78,7.18-15.5,12.77-31.72,16.66-48.36.44-1.88-2.45-2.68-2.89-.8Z"/>
  </g>
</svg>