<?xml version="1.0" encoding="UTF-8"?>
<svg id="_레이어_2" data-name="레이어 2" xmlns="http://www.w3.org/2000/svg" viewBox="0 0 76.91 68.82">
  <g id="_레이어_1-2" data-name="레이어 1">
    <path d="m31.58,20.45c1.33-6.19,2.66-12.38,3.99-18.57l-2.74.36c2.25,4.45,4.5,8.91,6.75,13.36,1.13,2.23,2.25,4.45,3.38,6.68.87,1.72,1.66,3.68,3.7,4.23s4.58-.01,6.68-.15c2.46-.16,4.91-.32,7.37-.49,4.91-.32,9.82-.65,14.74-.97l-1.06-2.56c-7.53,7.38-16.29,13.37-25.89,17.75-.71.32-.95,1.43-.54,2.05,4.94,7.42,9.13,15.33,12.44,23.61l2.2-1.69c-8.15-4.76-15.98-10.05-23.41-15.87-.68-.53-1.44-.58-2.12,0-8.75,7.54-18.79,13.54-29.58,17.66l1.69,2.2c5.71-9.39,11.66-18.62,17.85-27.7.69-1.02-.25-2.17-1.3-2.26-4.27-.35-8.36-2.18-12.12-4.12s-7.59-4.31-11.36-6.51l-.76,2.8c8.73-.53,17.71.63,26.12-2.34,1.81-.64,1.03-3.54-.8-2.89-8.15,2.88-16.86,1.72-25.33,2.23-1.44.09-2.1,2.01-.76,2.8,7.72,4.5,15.83,10.29,25,11.04l-1.3-2.26c-6.19,9.08-12.14,18.31-17.85,27.7-.64,1.05.44,2.68,1.69,2.2,11.3-4.31,21.74-10.53,30.9-18.43h-2.12c7.63,5.98,15.64,11.45,24.01,16.34,1.04.61,2.71-.43,2.2-1.69-3.41-8.53-7.65-16.68-12.74-24.32l-.54,2.05c9.81-4.48,18.79-10.67,26.49-18.22.89-.87.26-2.65-1.06-2.56-4.58.3-9.17.61-13.75.91s-8.94.81-13.4.87c-1.05.02-1.42-.38-1.9-1.25-.54-.98-1.01-2-1.52-3-1.05-2.08-2.1-4.16-3.15-6.24-2.1-4.16-4.2-8.31-6.3-12.47-.57-1.13-2.48-.88-2.74.36l-3.99,18.57c-.4,1.88,2.49,2.69,2.89.8h0Z"/>
  </g>
</svg>