<?xml version="1.0" encoding="UTF-8"?>
<svg id="_레이어_2" data-name="레이어 2" xmlns="http://www.w3.org/2000/svg" viewBox="0 0 68.07 100.44">
  <g id="_레이어_1-2" data-name="레이어 1">
    <g>
      <path d="m9.69,5.27c-2.33,19.96-4.67,39.92-7,59.87-.59,5.03-1.18,10.06-1.76,15.09-.28,2.42-.6,4.83-.84,7.25-.19,1.88-.1,3.89,1.1,5.45s3.09,2.15,4.91,2.61c2.4.6,4.83,1.12,7.27,1.57,4.69.86,9.43,1.48,14.18,1.92s9.59.73,14.4.94c2.48.11,4.97.19,7.46.28,2.06.07,4.51.5,6.49-.21,1.76-.64,2.7-2.26,3.03-4.03.44-2.31.56-4.71.81-7.05.53-4.95,1.06-9.91,1.6-14.86,2.15-19.98,4.29-39.97,6.44-59.95.22-2.09.73-4.42-.29-6.38-.87-1.69-2.62-2.57-4.32-3.23-4.3-1.65-8.86-2.7-13.41-3.39C40.54-.24,31.22-.15,21.96.28c-2.31.11-4.61.24-6.92.37-1.92.11-1.93,3.11,0,3,8.76-.49,17.55-.97,26.32-.4,4.36.28,8.69.84,12.95,1.81,2.15.49,4.29,1.08,6.38,1.79,1.51.51,3.85,1.06,4.3,2.84.24.94.02,2.04-.08,2.98-.12,1.16-.25,2.31-.37,3.47-.26,2.39-.51,4.79-.77,7.18-.51,4.71-1.01,9.41-1.52,14.12-1.01,9.41-2.02,18.83-3.03,28.24-1.01,9.41-2.01,18.83-3.03,28.24-.09.79-.14,1.67-.46,2.41-.37.85-1.09,1.02-1.95,1.04-2.25.06-4.54-.13-6.79-.21-4.57-.16-9.14-.35-13.7-.67-9.05-.63-18.21-1.64-26.99-4-1.83-.49-3.2-1.2-3.29-3.28s.39-4.38.63-6.51c.55-4.7,1.1-9.4,1.65-14.1L11.87,12.19l.81-6.93c.22-1.91-2.78-1.9-3,0h0Z"/>
      <path d="m19.48,14.34c-1.66,20.38-4.4,40.66-8.22,60.75-.14.74.2,1.69,1.05,1.85,12.64,2.24,25.43,3.61,38.26,4.07.66.02,1.27-.48,1.45-1.1,4.12-14.35,4.65-29.49,5.78-44.29.29-3.79.58-7.58.87-11.37.14-1.81.28-3.62.42-5.44.12-1.57.31-3.23-.77-4.52-.8-.96-2.01-1.4-3.21-1.61-1.88-.33-3.81-.48-5.7-.71-3.83-.46-7.67-.93-11.5-1.39-2.12-.26-4.24-.51-6.36-.77-1.99-.24-4.07-.69-6.07-.62-1.63.05-3.23.56-4.26,1.88s-1.22,2.92-.41,4.36c.95,1.68,3.54.17,2.59-1.51-.66-1.16,1.33-1.69,2.08-1.72,1.6-.08,3.27.28,4.85.47,3.34.4,6.69.81,10.03,1.21s6.53.79,9.79,1.18c1.49.18,3.03.27,4.5.57s1.62.78,1.53,2.19c-.43,6.76-1.03,13.51-1.55,20.26s-.93,12.91-1.58,19.34c-.74,7.32-1.87,14.6-3.9,21.68l1.45-1.1c-12.57-.45-25.08-1.77-37.47-3.96l1.05,1.85c3.87-20.35,6.65-40.9,8.33-61.54.16-1.92-2.84-1.91-3,0h0Z"/>
      <path d="m28.25,82.02c-2.21.43-4.34,1.6-5.2,3.78s.02,4.55,2.12,5.47c1.03.45,2.14.59,3.25.73.88.11,1.76.19,2.65.13,2.17-.15,4.6-1.13,5.32-3.39.43-1.34-.07-2.77-1.03-3.75s-2.3-1.39-3.59-1.72c-.78-.2-1.63.26-1.85,1.05s.26,1.65,1.05,1.85,1.46.34,2.09.78c.15.11.03.03,0,0,.08.07.15.14.22.21,0,0,.15.19.08.08-.09-.12.08.14.09.16.09.14.03.02,0-.02.04.09.06.19.09.28-.07-.26-.06.31,0,.1-.04.18-.03.13-.16.32-.05.07-.08.1-.21.24-.06.06-.31.26-.12.12-.15.11-.3.2-.46.29-.08.04-.16.08-.24.12.06-.03.25-.08-.02,0-.13.04-.26.09-.4.12-.16.04-.32.07-.48.1-.24.05.22-.02-.02,0-.1.01-.19.02-.29.03-.71.05-1.42.02-2.13-.05-.17-.02-.34-.04-.51-.06s0,0,.04,0c-.1-.01-.19-.03-.29-.04-.37-.06-.75-.12-1.12-.2-.17-.04-.34-.1-.51-.14,0,0-.24-.08-.1-.03.15.06-.13-.06-.16-.08-.07-.04-.39-.27-.24-.14-.05-.05-.1-.1-.16-.15-.14-.14.11.25-.05-.07-.03-.06-.07-.12-.1-.18-.1-.2.06.21,0-.01-.02-.09-.08-.5-.06-.2,0-.14,0-.27,0-.41,0-.28,0-.09,0-.01.02-.09.04-.18.06-.27.02-.08.21-.52.09-.3.04-.08.08-.17.13-.25.02-.03.21-.31.13-.2s.08-.08.08-.08c.09-.09.18-.19.28-.28.21-.19.09-.09.32-.24.35-.23.7-.39.93-.47.43-.15.87-.26,1.31-.35.8-.15,1.25-1.11,1.05-1.85-.23-.83-1.05-1.2-1.85-1.05h0Z"/>
    </g>
  </g>
</svg>