<?xml version="1.0" encoding="UTF-8"?>
<svg id="_레이어_2" data-name="레이어 2" xmlns="http://www.w3.org/2000/svg" viewBox="0 0 61 51.85">
  <defs>
    <style>
      .cls-1 {
        fill: #fac02c;
      }

      .cls-2 {
        fill: #7e3e8b;
      }

      .cls-3 {
        fill: #d7063b;
      }

      .cls-4 {
        fill: #70b544;
      }

      .cls-5 {
        fill: #74b5e4;
      }
    </style>
  </defs>
  <rect class="cls-4" x="29.89" y="6.43" width="15.15" height="2.35" transform="translate(19.73 41.47) rotate(-73.83)"/>
  <path class="cls-1" d="m26.15,15.03c-2.17,0-3.93-1.76-3.93-3.93s1.76-3.93,3.93-3.93,3.93,1.76,3.93,3.93-1.76,3.93-3.93,3.93Zm0-5.51c-.87,0-1.58.71-1.58,1.58s.71,1.58,1.58,1.58,1.58-.71,1.58-1.58-.71-1.58-1.58-1.58Z"/>
  <path class="cls-5" d="m16.58,22.77c-2.17,0-3.93-1.76-3.93-3.93s1.76-3.93,3.93-3.93,3.93,1.76,3.93,3.93-1.76,3.93-3.93,3.93Zm0-5.51c-.87,0-1.58.71-1.58,1.58s.71,1.58,1.58,1.58,1.58-.71,1.58-1.58-.71-1.58-1.58-1.58Z"/>
  <path class="cls-2" d="m45.54,18.81c-2.17,0-3.93-1.76-3.93-3.93s1.76-3.93,3.93-3.93,3.93,1.76,3.93,3.93-1.76,3.93-3.93,3.93Zm0-5.51c-.87,0-1.58.71-1.58,1.58s.71,1.58,1.58,1.58,1.58-.71,1.58-1.58-.71-1.58-1.58-1.58Z"/>
  <path class="cls-1" d="m49.75,48.69c-3.28,0-5.95-2.67-5.95-5.95s2.67-5.95,5.95-5.95,5.95,2.67,5.95,5.95-2.67,5.95-5.95,5.95Zm0-9.55c-1.99,0-3.6,1.62-3.6,3.6s1.62,3.6,3.6,3.6,3.6-1.62,3.6-3.6-1.62-3.6-3.6-3.6Z"/>
  <path class="cls-3" d="m35.6,33.29h-9.83v-15.64h9.83v15.64Zm-7.48-2.35h5.13v-10.94h-5.13v10.94Z"/>
  <path class="cls-5" d="m48.91,35.61h-9.56v-15.28h9.56v15.28Zm-7.21-2.35h4.86v-10.58h-4.86v10.58Z"/>
  <path class="cls-2" d="m14.9,34.6l-1.32-9.04,9.04-1.32,1.32,9.04-9.04,1.32Zm1.35-7.05l.64,4.38,4.38-.64-.64-4.38-4.38.64Z"/>
  <rect class="cls-3" x="4.3" y="18.96" width="2.35" height="10.76" transform="translate(-19.35 21.85) rotate(-71.61)"/>
  <polygon class="cls-4" points="10.47 47.45 8.51 40.32 13.63 35.57 15.23 37.3 11.15 41.07 12.74 46.83 10.47 47.45"/>
  <polygon class="cls-3" points="26.11 48.28 19.53 41.68 26.12 35.08 27.78 36.74 22.85 41.68 27.77 46.62 26.11 48.28"/>
  <rect class="cls-5" x="36.29" y="35.5" width="2.35" height="16.39" transform="translate(-11.8 13.93) rotate(-18.25)"/>
  <polygon class="cls-3" points="58.46 32.42 56.19 31.81 58.13 24.61 51.77 22.75 52.43 20.5 61 22.99 58.46 32.42"/>
</svg>