<?xml version="1.0" encoding="UTF-8"?>
<svg id="_레이어_2" data-name="레이어 2" xmlns="http://www.w3.org/2000/svg" viewBox="0 0 60.76 42.8">
  <defs>
    <style>
      .cls-1 {
        fill: #231815;
      }
    </style>
  </defs>
  <g>
    <polygon class="cls-1" points="4.25 35.73 4.25 32.99 6.48 32.99 6.48 32 1.84 32 1.84 27.97 .85 27.97 .85 32.99 3.26 32.99 3.26 35.73 0 35.73 0 36.72 7.2 36.72 7.2 35.73 4.25 35.73"/>
    <g>
      <polygon class="cls-1" points="14.48 30.25 10.13 30.25 10.13 28.74 14.48 28.74 14.48 27.74 9.14 27.74 9.14 31.24 14.48 31.24 14.48 30.25"/>
      <rect class="cls-1" x="7.73" y="31.97" width="7.87" height=".99"/>
      <polygon class="cls-1" points="10.25 36.52 14.4 36.52 14.4 33.79 9.14 33.79 9.14 34.78 13.41 34.78 13.41 35.52 9.26 35.52 9.26 38.41 14.48 38.41 14.48 37.42 10.25 37.42 10.25 36.52"/>
    </g>
    <g>
      <polygon class="cls-1" points="32.57 27.81 32.57 30.16 31.63 30.16 31.63 27.81 30.64 27.81 30.64 37.47 31.63 37.47 31.63 31.15 32.57 31.15 32.57 37.47 33.56 37.47 33.56 27.81 32.57 27.81"/>
      <path class="cls-1" d="m27.78,28.42c-1.23,0-2.24,1-2.24,2.24s1,2.24,2.24,2.24,2.24-1,2.24-2.24-1-2.24-2.24-2.24Zm0,3.48c-.69,0-1.24-.56-1.24-1.24s.56-1.24,1.24-1.24,1.24.56,1.24,1.24-.56,1.24-1.24,1.24Z"/>
    </g>
    <g>
      <polygon class="cls-1" points="51.15 30.84 51.15 29.84 49.72 29.84 49.72 27.81 48.73 27.81 48.73 37.47 49.72 37.47 49.72 32.82 51.15 32.82 51.15 31.83 49.72 31.83 49.72 30.84 51.15 30.84"/>
      <path class="cls-1" d="m45.39,28.42c-1.23,0-2.24,1-2.24,2.24s1,2.24,2.24,2.24,2.24-1,2.24-2.24-1-2.24-2.24-2.24Zm0,3.48c-.69,0-1.24-.56-1.24-1.24s.56-1.24,1.24-1.24,1.24.56,1.24,1.24-.56,1.24-1.24,1.24Z"/>
    </g>
    <g>
      <rect class="cls-1" x="40.81" y="27.81" width=".99" height="5.89"/>
      <path class="cls-1" d="m39.36,30.65c0-1.23-1-2.24-2.24-2.24s-2.24,1-2.24,2.24,1,2.24,2.24,2.24,2.24-1,2.24-2.24Zm-3.48,0c0-.69.56-1.24,1.24-1.24s1.24.56,1.24,1.24-.56,1.24-1.24,1.24-1.24-.56-1.24-1.24Z"/>
      <polygon class="cls-1" points="37.62 34.07 36.62 34.07 36.62 37.43 41.76 37.43 41.76 36.44 37.62 36.44 37.62 34.07"/>
    </g>
    <g>
      <polygon class="cls-1" points="60.76 30.16 59.33 30.16 59.33 27.81 58.34 27.81 58.34 33.94 59.33 33.94 59.33 31.15 60.76 31.15 60.76 30.16"/>
      <path class="cls-1" d="m56.81,31.97c0-1.03-.79-1.85-1.79-1.97h2.43v-.99h-5.31v.99h2.43c-1,.12-1.79.94-1.79,1.97,0,1.11.9,2.01,2.01,2.01s2.01-.9,2.01-2.01Zm-3.03,0c0-.56.46-1.02,1.02-1.02s1.02.46,1.02,1.02-.46,1.02-1.02,1.02-1.02-.46-1.02-1.02Z"/>
      <rect class="cls-1" x="53.46" y="27.57" width="2.63" height=".99"/>
      <polygon class="cls-1" points="53.77 36 58.34 36 58.34 37.91 59.33 37.91 59.33 35.01 53.77 35.01 53.77 36"/>
    </g>
    <g>
      <polygon class="cls-1" points="24.9 30.16 23.47 30.16 23.47 27.81 22.48 27.81 22.48 33.69 23.47 33.69 23.47 31.15 24.9 31.15 24.9 30.16"/>
      <path class="cls-1" d="m21.23,33.92c-1.23,0-2.24,1-2.24,2.24s1,2.24,2.24,2.24,2.24-1,2.24-2.24-1-2.24-2.24-2.24Zm0,3.48c-.69,0-1.24-.56-1.24-1.24s.56-1.24,1.24-1.24,1.24.56,1.24,1.24-.56,1.24-1.24,1.24Z"/>
      <polygon class="cls-1" points="20.93 32.87 21.63 32.16 19.69 30.25 19.69 29.06 21.6 29.06 21.6 28.07 16.91 28.07 16.91 29.06 18.7 29.06 18.7 30.4 16.91 32.16 17.61 32.87 19.27 31.23 20.93 32.87"/>
    </g>
  </g>
  <path class="cls-1" d="m52.21,42.73c.07-.05.14-.11.18-.18v.22s.31,0,.31,0v-1.86h-.31v.72c-.05-.06-.11-.12-.18-.17-.07-.05-.16-.07-.27-.07-.08,0-.16.02-.23.05-.08.03-.14.08-.2.13-.06.06-.1.13-.14.22s-.05.19-.05.3h0c0,.12.02.22.05.3.04.09.08.16.14.22.06.06.12.1.2.13s.15.05.23.05c.11,0,.2-.02.27-.07m-.35-.22s-.09-.05-.12-.09c-.04-.04-.06-.08-.08-.14-.02-.05-.03-.11-.03-.18h0c0-.07.01-.13.03-.18.02-.05.05-.1.08-.14.04-.04.08-.07.12-.09.05-.02.1-.03.15-.03s.1.01.15.03c.05.02.09.05.12.09.04.04.06.08.08.14.02.05.03.11.03.18h0c0,.07-.01.13-.03.18-.02.05-.05.1-.08.14-.04.04-.08.07-.12.09-.05.02-.1.03-.15.03s-.1-.01-.15-.03m-1.08.23c.09-.05.17-.11.23-.18l-.18-.16c-.05.05-.11.09-.17.12-.06.03-.12.04-.2.04-.1,0-.19-.03-.26-.09-.07-.06-.11-.14-.13-.25h.99s0-.03,0-.04c0-.01,0-.03,0-.04,0-.1-.01-.19-.04-.28-.03-.09-.07-.16-.12-.23-.05-.07-.12-.12-.2-.16-.08-.04-.17-.06-.28-.06-.1,0-.18.02-.26.05-.08.04-.15.09-.21.15-.06.06-.1.14-.14.22s-.05.18-.05.27h0c0,.11.02.2.05.29.04.09.08.16.15.22.06.06.13.11.22.14.08.03.17.05.27.05.12,0,.23-.02.32-.07m-.7-.73c.01-.11.05-.19.11-.26s.14-.1.24-.1c.05,0,.1,0,.14.03.04.02.07.04.1.07.03.03.05.07.07.11.02.04.03.09.03.14h-.69Zm-.94.77h.31v-1.86h-.31v1.86Zm-.73-.02c.08-.03.14-.08.2-.13.06-.06.1-.13.14-.22.03-.09.05-.19.05-.3h0c0-.12-.02-.22-.05-.3-.04-.09-.08-.16-.14-.22-.06-.06-.13-.1-.2-.13-.07-.03-.15-.05-.23-.05-.11,0-.2.02-.27.07-.07.05-.13.11-.18.18v-.74s-.31,0-.31,0v1.86h.31v-.21c.05.06.11.12.18.17.07.05.16.07.27.07.08,0,.16-.02.23-.05m-.45-.25s-.09-.05-.12-.09c-.04-.04-.06-.08-.09-.14s-.03-.11-.03-.18h0c0-.07.01-.13.03-.18.02-.05.05-.1.09-.14.04-.04.08-.07.12-.09.05-.02.1-.03.15-.03s.1.01.15.03c.05.02.09.05.12.09.03.04.06.08.08.14.02.05.03.11.03.18h0c0,.07-.01.13-.03.18-.02.05-.05.1-.08.13s-.08.06-.12.09c-.05.02-.1.03-.15.03s-.1-.01-.15-.03m-.91.27v-.8c0-.18-.05-.32-.14-.42-.1-.1-.25-.15-.45-.15-.11,0-.2.01-.28.03-.08.02-.15.05-.23.08l.08.25c.06-.03.12-.05.18-.06.06-.02.13-.02.2-.02.11,0,.19.02.25.07.06.05.09.12.09.21v.03c-.05-.02-.11-.03-.16-.04-.06-.01-.13-.02-.21-.02s-.15,0-.22.03-.12.04-.17.08c-.05.04-.09.08-.11.14-.03.06-.04.12-.04.19h0c0,.07.01.13.04.18.03.05.06.1.1.13.04.03.09.06.15.08.06.02.12.03.18.03.1,0,.19-.02.26-.06.07-.04.13-.08.18-.14v.17h.31Zm-.3-.49s0,.08-.03.12c-.02.03-.04.06-.08.09-.03.02-.07.04-.11.06-.04.01-.09.02-.14.02-.07,0-.13-.02-.18-.05-.05-.03-.08-.08-.08-.15h0c0-.07.03-.12.08-.16.05-.04.13-.06.23-.06.06,0,.12,0,.17.02.05.01.1.02.14.04v.08Zm-1.44.48c.06-.02.11-.04.16-.08.04-.03.08-.08.11-.13.03-.05.04-.11.04-.19h0c0-.07-.01-.12-.04-.16s-.06-.08-.1-.11c-.04-.03-.08-.05-.13-.07-.05-.02-.1-.04-.15-.05-.04-.01-.08-.02-.11-.04-.04-.01-.07-.03-.1-.04s-.05-.03-.07-.05c-.02-.02-.03-.04-.03-.06h0s.02-.08.05-.1c.03-.03.08-.04.14-.04.06,0,.12.01.18.03.07.02.13.05.2.09l.12-.22c-.07-.05-.15-.09-.24-.11-.09-.03-.17-.04-.26-.04-.07,0-.13,0-.19.03-.06.02-.11.05-.15.08-.04.04-.08.08-.1.13-.02.05-.04.11-.04.17h0c0,.07.01.12.04.17s.06.08.1.11c.04.03.08.05.13.07.05.02.1.03.15.05.04.01.08.02.11.04.04.01.07.02.1.04.03.01.05.03.07.05s.02.04.02.07h0s-.02.08-.05.11c-.04.03-.09.04-.15.04-.07,0-.14-.01-.22-.04-.08-.03-.15-.07-.22-.12l-.14.21c.08.07.18.12.28.15.1.03.2.05.29.05.07,0,.13,0,.2-.03m-1.38-1.55h.33v-.29h-.33v.29Zm.01,1.55h.31v-1.34h-.31v1.34Zm-1.97,0h.66c.14,0,.27-.02.38-.07.12-.05.22-.11.3-.19.08-.08.15-.17.19-.28.05-.11.07-.23.07-.35h0c0-.13-.02-.25-.07-.35-.05-.11-.11-.2-.19-.28-.08-.08-.18-.14-.3-.19-.12-.04-.24-.07-.38-.07h-.66v1.78Zm.31-.28v-1.22h.35c.09,0,.18.02.25.05.08.03.14.07.19.13.05.05.09.12.12.19.03.07.04.16.04.24h0c0,.09-.01.17-.04.25-.03.07-.07.14-.12.19-.05.05-.12.1-.19.13s-.16.04-.25.04h-.35Zm-1.71.24c.09-.05.17-.11.23-.18l-.18-.16c-.05.05-.11.09-.17.12-.06.03-.12.04-.2.04-.1,0-.19-.03-.26-.09-.07-.06-.11-.14-.13-.25h.99s0-.03,0-.04,0-.03,0-.04c0-.1-.01-.19-.04-.28-.03-.09-.07-.16-.12-.23-.05-.07-.12-.12-.2-.16-.08-.04-.17-.06-.28-.06-.1,0-.18.02-.26.05-.08.04-.15.09-.21.15-.06.06-.1.14-.14.22-.03.08-.05.18-.05.27h0c0,.11.02.2.05.29.04.09.08.16.15.22.06.06.13.11.22.14.08.03.17.05.27.05.12,0,.23-.02.32-.07m-.7-.73c.01-.11.05-.19.11-.26.06-.07.14-.1.24-.1.05,0,.1,0,.14.03.04.02.07.04.1.07.03.03.05.07.07.11.02.04.03.09.03.14h-.69Zm-1.81.77h.31v-.76c0-.1.03-.19.08-.24.06-.06.13-.09.22-.09s.16.03.21.09.07.14.07.24v.76h.31v-.85c0-.16-.04-.28-.12-.38-.08-.09-.2-.14-.35-.14-.05,0-.1,0-.14.02-.04.01-.08.03-.11.05-.03.02-.07.05-.09.08s-.05.06-.07.09v-.72h-.31v1.86Zm-.44,0s.09-.03.12-.05v-.25c-.06.03-.12.05-.19.05-.05,0-.09-.01-.12-.04-.03-.03-.04-.07-.04-.13v-.66h.36v-.26h-.36v-.37h-.31v.37h-.17v.26h.17v.71c0,.07,0,.14.03.19s.05.09.08.12c.04.03.08.05.12.07.05.01.1.02.16.02s.11,0,.15-.02m-2.42,0h.31v-.51c0-.09.01-.17.03-.23.02-.07.05-.12.09-.17.04-.04.09-.08.14-.1.06-.02.12-.03.19-.03h.02v-.33c-.12,0-.22.02-.3.08-.08.06-.14.14-.18.24v-.3h-.31v1.34Zm-.75-.03c.09-.04.16-.09.23-.15.06-.06.11-.14.15-.22.04-.08.05-.17.05-.27h0c0-.1-.02-.19-.05-.28-.04-.08-.09-.16-.15-.22-.06-.06-.14-.11-.23-.15-.09-.04-.18-.05-.29-.05s-.2.02-.29.06c-.09.04-.16.09-.23.15-.06.06-.11.14-.15.22s-.05.18-.05.27h0c0,.1.02.19.05.27.04.08.09.16.15.22.06.06.14.11.23.15.09.04.18.05.28.05s.2-.02.29-.06m-.45-.25s-.09-.05-.13-.09c-.04-.04-.06-.09-.08-.14-.02-.05-.03-.11-.03-.17h0c0-.06,0-.12.03-.17.02-.05.05-.1.08-.14.04-.04.08-.07.13-.09.05-.02.1-.03.17-.03s.12.01.17.03c.05.02.09.05.13.09.04.04.06.08.08.14.02.05.03.11.03.17h0c0,.06,0,.12-.03.17-.02.05-.05.1-.08.14-.04.04-.08.07-.13.09s-.11.03-.17.03c-.06,0-.11-.01-.16-.03m-1.37.27h.31v-1.08h.35v-.25h-.36v-.07c0-.14.06-.2.18-.2.03,0,.06,0,.09,0,.03,0,.06.01.09.02v-.26s-.07-.02-.11-.03c-.04,0-.09-.01-.14-.01-.13,0-.23.04-.3.11-.07.07-.11.18-.11.33v.1h-.17v.26h.17v1.08Zm-1.54,0h.31v-1.86h-.31v1.86Zm-.76-.03c.09-.04.16-.09.23-.15s.11-.14.15-.22c.04-.08.05-.17.05-.27h0c0-.1-.02-.19-.05-.28-.04-.08-.09-.16-.15-.22s-.14-.11-.23-.15c-.09-.04-.18-.05-.29-.05s-.2.02-.29.06c-.09.04-.16.09-.23.15-.06.06-.11.14-.15.22s-.05.18-.05.27h0c0,.1.02.19.05.27.04.08.09.16.15.22.06.06.14.11.23.15.09.04.18.05.28.05s.2-.02.29-.06m-.45-.25s-.09-.05-.13-.09c-.04-.04-.06-.09-.08-.14s-.03-.11-.03-.17h0c0-.06,0-.12.03-.17.02-.05.05-.1.08-.14.04-.04.08-.07.13-.09.05-.02.1-.03.17-.03s.12.01.17.03c.05.02.09.05.13.09.04.04.06.08.08.14.02.05.03.11.03.17h0c0,.06,0,.12-.03.17-.02.05-.05.1-.08.14-.04.04-.08.07-.13.09s-.11.03-.17.03c-.06,0-.11-.01-.16-.03m-1.23.25c.09-.04.16-.09.23-.15s.11-.14.15-.22c.04-.08.05-.17.05-.27h0c0-.1-.02-.19-.05-.28-.04-.08-.09-.16-.15-.22-.06-.06-.14-.11-.23-.15-.09-.04-.18-.05-.29-.05s-.2.02-.29.06c-.09.04-.16.09-.23.15-.06.06-.11.14-.15.22-.04.08-.05.18-.05.27h0c0,.1.02.19.05.27.04.08.09.16.15.22.06.06.14.11.23.15.09.04.18.05.28.05s.2-.02.29-.06m-.45-.25s-.09-.05-.13-.09c-.04-.04-.06-.09-.08-.14-.02-.05-.03-.11-.03-.17h0c0-.06,0-.12.03-.17.02-.05.05-.1.08-.14.04-.04.08-.07.13-.09.05-.02.1-.03.17-.03s.12.01.17.03c.05.02.09.05.13.09s.06.08.08.14c.02.05.03.11.03.17h0c0,.06,0,.12-.03.17-.02.05-.05.1-.08.14-.04.04-.08.07-.13.09-.05.02-.11.03-.17.03-.06,0-.11-.01-.16-.03m-2.06.27h.31v-.76c0-.1.03-.19.08-.24.06-.06.13-.09.22-.09s.16.03.21.09c.05.06.07.14.07.24v.76h.31v-.85c0-.16-.04-.28-.12-.38-.08-.09-.2-.14-.35-.14-.05,0-.1,0-.14.02-.04.01-.08.03-.11.05-.03.02-.07.05-.09.08-.03.03-.05.06-.07.09v-.72h-.31v1.86Zm-.51-.04c.08-.05.16-.11.23-.18l-.19-.18s-.1.09-.16.12-.12.05-.19.05c-.06,0-.11-.01-.16-.03s-.09-.05-.13-.09c-.04-.04-.06-.08-.08-.14-.02-.05-.03-.11-.03-.17h0c0-.06,0-.12.03-.17.02-.05.05-.1.08-.14.03-.04.07-.07.12-.09.05-.02.1-.03.16-.03.08,0,.14.02.2.05.05.03.1.07.15.12l.19-.21c-.06-.07-.14-.13-.22-.17-.08-.04-.19-.06-.32-.06-.1,0-.19.02-.28.06s-.16.09-.22.15c-.06.06-.11.14-.15.22-.04.09-.05.18-.05.27h0c0,.1.02.19.05.27.03.08.08.16.15.22.06.06.14.11.22.15.08.04.18.05.28.05.13,0,.24-.02.32-.07m-1.66.03c.08-.02.14-.06.2-.1.06-.05.1-.1.13-.17.03-.07.05-.14.05-.22h0c0-.08-.01-.14-.04-.2-.02-.05-.06-.1-.11-.14-.05-.04-.11-.08-.18-.11-.07-.03-.16-.06-.25-.08-.08-.02-.16-.04-.21-.06-.06-.02-.1-.04-.13-.06-.03-.02-.05-.04-.07-.07-.01-.03-.02-.06-.02-.09h0c0-.06.03-.11.08-.16.05-.04.12-.06.21-.06.08,0,.16.02.24.05.08.03.16.08.24.14l.17-.24c-.09-.07-.19-.13-.29-.17-.1-.04-.22-.06-.35-.06-.09,0-.17.01-.24.04-.07.03-.14.06-.19.11-.05.05-.09.1-.12.16s-.05.13-.05.21h0c0,.09.01.16.04.21.03.06.06.11.11.15.05.04.11.07.19.1.07.03.16.05.25.08.08.02.15.04.2.06.05.02.09.04.12.06.03.02.05.05.06.07.01.02.02.05.02.09h0c0,.07-.03.13-.09.17-.06.04-.13.06-.23.06-.11,0-.21-.02-.3-.06-.09-.04-.18-.1-.26-.17l-.19.22c.11.1.22.17.35.22.13.05.26.07.39.07.09,0,.18-.01.26-.04m-2.39.01h.31v-1.86h-.31v1.86Zm-.88-.04c.07-.05.12-.1.16-.17v.21h.31v-1.34h-.31v.76c0,.1-.03.19-.08.24-.06.06-.13.09-.22.09s-.16-.03-.21-.08c-.05-.06-.07-.14-.07-.24v-.76h-.31v.85c0,.16.04.28.12.38.08.09.2.14.35.14.1,0,.19-.02.25-.07m-1.32,0c.09-.05.17-.11.23-.18l-.18-.16c-.05.05-.11.09-.17.12-.06.03-.12.04-.2.04-.1,0-.19-.03-.26-.09-.07-.06-.11-.14-.13-.25h.99s0-.03,0-.04c0-.01,0-.03,0-.04,0-.1-.01-.19-.04-.28s-.07-.16-.12-.23c-.05-.07-.12-.12-.2-.16-.08-.04-.17-.06-.28-.06-.1,0-.18.02-.26.05-.08.04-.15.09-.21.15-.06.06-.1.14-.14.22-.03.08-.05.18-.05.27h0c0,.11.02.2.05.29.04.09.08.16.15.22.06.06.13.11.22.14.08.03.17.05.27.05.12,0,.23-.02.32-.07m-.7-.73c.01-.11.05-.19.11-.26.06-.07.14-.1.24-.1.05,0,.1,0,.14.03.04.02.07.04.1.07.03.03.05.07.07.11.02.04.03.09.03.14h-.69Zm-2.18.77h.66c.14,0,.27-.02.38-.07.12-.05.22-.11.3-.19.08-.08.15-.17.19-.28.05-.11.07-.23.07-.35h0c0-.13-.02-.25-.07-.35-.05-.11-.11-.2-.19-.28-.08-.08-.18-.14-.3-.19-.12-.04-.24-.07-.38-.07h-.66v1.78Zm.31-.28v-1.22h.35c.09,0,.18.02.25.05.08.03.14.07.19.13.05.05.09.12.12.19.03.07.04.16.04.24h0c0,.09-.01.17-.04.25-.03.07-.07.14-.12.19-.05.05-.12.1-.19.13-.08.03-.16.04-.25.04h-.35Zm-1.09.26c.09-.04.16-.09.23-.15s.11-.14.15-.22c.04-.08.05-.17.05-.27h0c0-.1-.02-.19-.05-.28-.04-.08-.09-.16-.15-.22-.06-.06-.14-.11-.23-.15-.09-.04-.18-.05-.29-.05s-.2.02-.29.06c-.09.04-.16.09-.23.15-.06.06-.11.14-.15.22s-.05.18-.05.27h0c0,.1.02.19.05.27s.09.16.15.22c.06.06.14.11.23.15.09.04.18.05.28.05s.2-.02.29-.06m-.45-.25s-.09-.05-.13-.09c-.04-.04-.06-.09-.08-.14-.02-.05-.03-.11-.03-.17h0c0-.06,0-.12.03-.17.02-.05.05-.1.08-.14.04-.04.08-.07.13-.09.05-.02.1-.03.17-.03s.12.01.17.03c.05.02.09.05.13.09.04.04.06.08.08.14.02.05.03.11.03.17h0c0,.06,0,.12-.03.17-.02.05-.05.1-.08.14-.04.04-.08.07-.13.09-.05.02-.11.03-.17.03-.06,0-.11-.01-.16-.03m-2.45.27h.31v-1.27l.98,1.27h.26v-1.78h-.31v1.23l-.95-1.23h-.29v1.78Z"/>
  <g>
    <rect class="cls-1" x="29.06" y="2.97" width="7.01" height="1.09" transform="translate(20.12 33.81) rotate(-73.83)"/>
    <path class="cls-1" d="m27.33,6.95c-1,0-1.82-.82-1.82-1.82s.82-1.82,1.82-1.82,1.82.82,1.82,1.82-.82,1.82-1.82,1.82Zm0-2.55c-.4,0-.73.33-.73.73s.33.73.73.73.73-.33.73-.73-.33-.73-.73-.73Z"/>
    <path class="cls-1" d="m22.9,10.53c-1,0-1.82-.82-1.82-1.82s.82-1.82,1.82-1.82,1.82.82,1.82,1.82-.82,1.82-1.82,1.82Zm0-2.55c-.4,0-.73.33-.73.73s.33.73.73.73.73-.33.73-.73-.33-.73-.73-.73Z"/>
    <path class="cls-1" d="m36.3,8.7c-1,0-1.82-.82-1.82-1.82s.82-1.82,1.82-1.82,1.82.82,1.82,1.82-.82,1.82-1.82,1.82Zm0-2.55c-.4,0-.73.33-.73.73s.33.73.73.73.73-.33.73-.73-.33-.73-.73-.73Z"/>
    <path class="cls-1" d="m38.25,22.52c-1.52,0-2.75-1.23-2.75-2.75s1.23-2.75,2.75-2.75,2.75,1.23,2.75,2.75-1.23,2.75-2.75,2.75Zm0-4.42c-.92,0-1.67.75-1.67,1.67s.75,1.67,1.67,1.67,1.67-.75,1.67-1.67-.75-1.67-1.67-1.67Z"/>
    <path class="cls-1" d="m31.7,15.4h-4.55v-7.23h4.55v7.23Zm-3.46-1.09h2.37v-5.06h-2.37v5.06Z"/>
    <path class="cls-1" d="m37.86,16.47h-4.42v-7.07h4.42v7.07Zm-3.34-1.09h2.25v-4.89h-2.25v4.89Z"/>
    <path class="cls-1" d="m22.13,16l-.61-4.18,4.18-.61.61,4.18-4.18.61Zm.62-3.26l.3,2.03,2.03-.3-.3-2.03-2.03.3Z"/>
    <rect class="cls-1" x="17.22" y="8.77" width="1.09" height="4.97" transform="translate(1.48 24.56) rotate(-71.61)"/>
    <polygon class="cls-1" points="20.08 21.95 19.17 18.65 21.54 16.45 22.28 17.25 20.39 19 21.12 21.66 20.08 21.95"/>
    <polygon class="cls-1" points="27.31 22.33 24.27 19.28 27.32 16.23 28.08 16.99 25.8 19.28 28.08 21.56 27.31 22.33"/>
    <rect class="cls-1" x="32.02" y="16.42" width="1.09" height="7.58" transform="translate(-4.69 11.21) rotate(-18.25)"/>
    <polygon class="cls-1" points="42.27 15 41.22 14.72 42.12 11.38 39.18 10.52 39.48 9.48 43.45 10.64 42.27 15"/>
  </g>
</svg>