<?xml version="1.0" encoding="UTF-8"?>
<svg id="svg-slogan" data-name="레이어 2" xmlns="http://www.w3.org/2000/svg" viewBox="0 0 837.08 249.22" fill="#333">
  <g id="_레이어_1-2" data-name="레이어 1">
    <g>
      <g>
        <path d="m178.61,154.22c1.04-1.73,1.61-3.7,1.72-5.64l13.21.61,2.2-4.38h-15.88c-1.12-3.48-4.2-6.24-9.66-6.41-10.18-.32-30.48,14.39-30.48,14.39l1.86.08,10.73-5.2c1.38-.67,2.56.58,1.86,1.92-71.78,136.77,24.32,62.58,24.32,62.58l.25-1.6s-34.07,14.51-29.06,4.97c5.02-9.54,28.94-61.32,28.94-61.32Z"/>
        <path d="m249.39,180.1s-30,13.09-26.47,3.41c3.53-9.68,11.53-30.03,11.53-30.03,2.76-6.33-.65-15.75-10.88-16.07-10.23-.32-28.24,14.61-28.24,14.61l4.06.32c8.93-9.9,7.95-3.08,7.95-3.08-27.05,46.98-10.3,50.83,9.49,45.23-5.47,5.2-15.36,11.91-26.69,7.12l-14.12,34.97s17.99-1.61,24.65,5.04l19.04-48.01c14.55-4.68,29.68-13.51,29.68-13.51Z"/>
        <path d="m118.9,195.56c1.15,1.44,1.99,3.27,2.53,5.5.54,2.23.45,4.83-.28,7.81-.73,2.98-2.23,6.31-4.51,10-2.28,3.68-5.68,7.69-10.2,12.02-3.13,2.99-6.02,5.42-8.67,7.27-2.66,1.85-5.09,3.25-7.29,4.18-2.21.94-4.19,1.47-5.94,1.61-1.76.14-3.35.03-4.77-.34-1.42-.37-2.66-.96-3.7-1.78-1.05-.82-1.94-1.7-2.69-2.65s-1.42-2.04-2.02-3.29c-.6-1.25-.97-2.67-1.11-4.27-.14-1.6-.03-3.34.34-5.23.36-1.89,1.12-3.98,2.26-6.25,1.14-2.27,2.72-4.71,4.72-7.32,2-2.61,4.6-5.44,7.78-8.49,4.52-4.33,8.6-7.48,12.23-9.47,3.64-1.98,6.85-3.17,9.64-3.56,2.79-.39,5.15-.14,7.09.75,1.94.89,3.48,2.06,4.62,3.49Zm-17.54,18.52c-1.51-4.72-5.83-13.31-9.88-10.18-3.79,2.93-2.44,12.21-.9,17,1.53,4.79,5.95,12.71,9.65,10.33,4.24-2.73,2.65-12.42,1.14-17.15Z"/>
        <path d="m92.7,195.29s-26.86,12.53-28.25,37.62c-1.39,25.08-17.68,16.67-19.72,4.99-2.04-11.69,2.82-30.75,47.97-42.6Z"/>
        <path d="m81.87,149.77s24.09.86,32.64,17.87,18.76,4.07,16.43-2.29c-2.34-6.37-11.33-20.53-49.07-15.58Z"/>
        <path d="m41.15,152.5c-.93,5.73-29.14,5.66-38.99,17.9-4.92,6.12-.64,9.82,4.87,11.98,6.59,2.59,16.38,1.62,23.04-.81,4.13-1.51,8.41-3.35,9.19-4.77,0,0-16.9,5.01-10.11-2.89,6.8-7.9,26.7-25.58,95.39-31.55l-.51-2.2c-26-1.92-104.55,6.4-104.55,6.4l2.13,4.89s20.47-4.69,19.54,1.04Z"/>
        <path d="m72.44,187.63s-2.92-4.35,8.23-16.33c27.82-29.9-13.13-24.77-49.58,5.32,0,0,30.84-14.21,25.03-5.04s-28.57,48.16-1.44,37.52c27.12-10.64,23.92-32.13,74.55-29.78,0,0-41.92-10.9-56.79,8.31Z"/>
        <path d="m116.45,188.8s1.26.58-1.95-3.59,5.26-4.93,5.26-4.93c0,0,5.05,1.63,5.58,2.61,0,0-5.36-1.76-3.16.94,2.21,2.7,7.05,10.34-1.88,8.44-8.93-1.9-8.6-4.68-24.32-.85,0,0,12.19-5.56,20.47-2.61Z"/>
      </g>
      <g>
        <path d="m659.58,209.01s-17.01,13.66-26.53,13.21-12.57-9.27-9.9-15.13c0,0,32.41-57.09,24.04-61.81-10.78-6.08-57.69,12.06-57.69,12.06l.02-1.51s119.6-69.15,58.83,55.58c0,0-1.01,6.34,7.46-2.76l3.78.36Z"/>
        <path d="m722.23,174.65s-27.96,12.2-24.67,3.18c3.29-9.03,10.74-27.99,10.74-27.99,2.57-5.9-.61-14.68-10.14-14.98-9.53-.3-26.32,13.62-26.32,13.62l3.78.3c8.32-9.23,7.41-2.87,7.41-2.87-25.21,43.79-9.6,47.38,8.85,42.15-5.1,4.84-14.32,11.1-24.88,6.64l-13.16,32.6s16.77-1.51,22.97,4.7l17.75-44.75c13.56-4.37,27.66-12.59,27.66-12.59Z"/>
        <path d="m745.46,195.06c58.3-104.59-35.23-44.62-35.23-44.62l-.02,1.51s46.06-15.65,42.63-6.68c-1.67,4.38-13.22,21.57-24.6,38.05-.36-.19-.71-.39-1.08-.58,0,0,.36.27.95.77-11.92,17.24-23.63,33.63-23.63,33.63-2.66,5.86.38,14.68,9.9,15.13s26.53-13.21,26.53-13.21l-3.78-.36c-8.46,9.1-7.46,2.76-7.46,2.76,4.36-6.9,8.24-13.29,11.68-19.21,1.13,3.52,1.65,7.38,1.05,11.45-2.58,17.47,12.07,13.09,13.69,7.01,1.2-4.51,1.9-14.25-10.64-25.67Z"/>
        <path d="m823.02,174.04s-27.96,12.2-24.67,3.18c3.29-9.03,10.74-27.99,10.74-27.99,2.57-5.9-.61-14.68-10.14-14.98-9.53-.3-26.32,13.62-26.32,13.62l3.78.3c8.32-9.23,7.41-2.87,7.41-2.87-25.21,43.79-9.6,47.38,8.85,42.15-5.1,4.84-14.32,11.1-24.88,6.64l-13.16,32.6s16.77-1.51,22.97,4.7l17.75-44.75c13.56-4.37,27.66-12.59,27.66-12.59Z"/>
        <path d="m516.11,226.29s-31.35-2.14-42.3-26.41c-10.95-24.27-23.46-2.89-21.4,2.6,3.04,8.09,14.53,29.33,63.7,23.82Z"/>
        <path d="m545.12,147.08s29.15,1.04,39.49,21.63c10.34,20.58,22.7,4.93,19.87-2.78-2.83-7.7-13.71-24.83-59.37-18.85Z"/>
        <path d="m507.88,168.46c-10.09-4.49,28.3-27.11,101.12-33.45l-.54-2.33c-12.19-.9-149.49,6.79-149.49,6.79l2.26,5.19s21.7-4.97,20.72,1.11-30.89,6-41.33,18.97c-5.22,6.49-.68,10.41,5.16,12.7,6.98,2.75,17.37,1.72,24.42-.86,2.93-1.07,5.92-2.3,7.83-3.44,1.31,1.84,3.72,3.24,6.41,4.3,6.98,2.75,38.45,11.69,60.69-28.37,0,0-26.22,24.29-37.24,19.39Zm-28.61-3.73c-2.41,3-2.74,5.44-1.82,7.44-4.64,1.11-13.72,2.66-8.24-3.71,5.04-5.85,16.87-16.77,48.42-24.98.82-.21,1.73-.06,2.36.51.49.44.72,1.02.6,1.77-.98,6.07-30.89,6-41.33,18.97Z"/>
        <path d="m610.15,217.31c3.67-14.52,8.31-55.87-16.21-31.57-37.13,36.79-45.8,29.39-41.46,23.25,7.78-11.01,38.82-58.26,8.53-50.45-30.29,7.81-30.97,37.7-83.36,22.2,0,0,41.69,24.95,60.8,2.55,0,0,2.23,6.6-11.64,20.11-26.33,25.65,1.8,48.32,59.19,2.58,0,0,3.25-4.37-1.77,17.78-2.51,11.08,3.14,14.04,9.42,14.24,7.38.23,14.52-3.49,19.95-9.99,3.63-4.34,7.4-9.39,7.64-11.86,0,0-14.76,15.68-11.09,1.15Z"/>
      </g>
      <g>
        <path d="m422.41,31.16l-14.36,37.25c-3.56.51-5.93-.04-4.88-2.92,3.06-8.38,9.97-25.98,9.97-25.98,2.39-5.48-.56-13.62-9.41-13.9-8.85-.28-24.43,12.64-24.43,12.64l3.51.28c7.72-8.56,6.88-2.67,6.88-2.67-23.4,40.64-8.91,43.97,8.21,39.12-4.73,4.49-13.29,10.3-23.09,6.16l-1.46,3.62c-.85-.63-1.84-1.28-2.98-1.94-20.84-12.12-42.91-23.46-32.78-24.54,10.13-1.08,52.08-7.06,28.44-20.81-23.64-13.75-37.58,1.14-65.37-37.48,0,0,16.42,37.19,39.22,36.92,0,0-1.47,4.25-16.81,3.47-37.28-1.91,4.43,42.08,21.15,41.88,0,0-1.5,4.68-16.81,3.47-38.21-3.03-10.57,24.1,32.82,33.37,0,0-28.43-14.4-18.3-15.48,4.89-.52,17.18-2.18,25.94-5.31l-5.28,13.07s15.56-1.4,21.32,4.36l16.47-41.53c2.11-.68,4.22-1.45,6.29-2.28l-15.02,38.96s18.88-.91,24.64,4.84l41.28-100.81s-20.22,22.54-35.17,16.22Z"/>
        <path d="m535.45,31.16l-14.36,37.25c-3.56.51-5.93-.04-4.88-2.92,3.06-8.38,9.97-25.98,9.97-25.98,2.39-5.48-.56-13.62-9.41-13.9-8.85-.28-24.43,12.64-24.43,12.64l3.51.28c7.72-8.56,6.88-2.67,6.88-2.67-27.37,47.54-2.9,44.02,17,36.08l-15.02,38.96s18.88-.91,24.64,4.84l41.28-100.81s-20.22,22.54-35.17,16.22Z"/>
        <path d="m487.85,81.15l-12.22,30.25s15.56-1.4,21.32,4.36l17.9-45.13s-12.06,16.84-27.01,10.52Z"/>
        <path d="m475.62,48.01c.9-1.5,1.4-3.2,1.48-4.89l11.6.53,1.9-3.79h-13.9c-.97-3.01-3.63-5.4-8.36-5.55-8.8-.28-26.36,12.45-26.36,12.45l1.61.07,9.28-4.5c1.19-.58,2.22.5,1.61,1.66-62.09,118.3,21.03,54.13,21.03,54.13l.21-1.38s-29.47,12.55-25.13,4.3c4.34-8.25,25.03-53.04,25.03-53.04Z"/>
        <path d="m655.65,62.54s-25.95,11.32-22.89,2.95c3.06-8.38,9.97-25.98,9.97-25.98,2.39-5.48-.56-13.62-9.41-13.9-8.85-.28-24.43,12.64-24.43,12.64l3.51.28c7.72-8.56,6.88-2.67,6.88-2.67-23.4,40.64-8.91,43.97,8.21,39.12-4.73,4.49-13.29,10.3-23.09,6.16l-12.22,30.25s15.56-1.4,21.32,4.36l16.47-41.53c12.59-4.05,25.67-11.69,25.67-11.69Z"/>
        <path d="m592.17,48.01c.9-1.5,1.4-3.2,1.48-4.89l11.6.53,1.9-3.79h-13.9c-.97-3.01-3.63-5.4-8.36-5.55-8.8-.28-26.36,12.45-26.36,12.45l1.61.07,9.28-4.5c1.19-.58,2.22.5,1.61,1.66-62.09,118.3,21.03,54.13,21.03,54.13l.21-1.38s-29.47,12.55-25.13,4.3c4.34-8.25,25.03-53.04,25.03-53.04Z"/>
        <path d="m298.67,49.38c-.33,3.56-1.16,7.17-2.47,10.84-1.32,3.67-3.32,6.89-6.03,9.65-2.7,2.76-6.18,4.83-10.42,6.19-4.24,1.36-9.45,1.49-15.63.37-4.28-.78-7.97-1.94-11.08-3.49-3.11-1.55-5.74-3.36-7.87-5.42-2.14-2.06-3.83-4.31-5.07-6.74-1.25-2.43-2.2-4.93-2.85-7.52-.65-2.58-1.01-5.18-1.08-7.79-.07-2.61,0-5.08.23-7.4.22-2.33.6-4.74,1.14-7.24.54-2.5,1.37-4.88,2.47-7.14,1.1-2.26,2.48-4.35,4.14-6.25,1.65-1.9,3.7-3.47,6.14-4.7,2.44-1.23,5.29-2.05,8.55-2.44,3.26-.39,7.06-.2,11.41.59,6.18,1.12,11.2,3.1,15.05,5.94,3.85,2.84,6.82,6.07,8.93,9.71,2.1,3.64,3.45,7.46,4.05,11.48.59,4.02.72,7.81.39,11.36Zm-25.27-2.14c2.55-8.33,6.17-25.81,1.19-27.78-4.65-1.84-10.72,12.12-13.31,20.58-2.59,8.45-5.64,25.21-1.46,27.62,4.8,2.77,11.02-12.09,13.58-20.42Z"/>
        <g>
          <path d="m331.18,114.06c-16.48-8.8-35.61-11.66-53.82-7.49-.63.14-1.26.3-1.9.46,0,0-4.02,1.63,6.65-10.96,5.34-6.3,1.4-10.36-3.87-12.85-6.21-2.93-13.36-3.17-19.86-.96-4.32,1.47-8.97,3.35-9.88,4.87,0,0,17.07-4.7,9.75,3.42-7.32,8.11-28.02,34.38,4.61,26.73,32.63-7.65,61.56-2.76,76.31,1.06l-7.99-4.27Z"/>
          <path d="m246.97,102.16s-28.99-3.13-42.93,17.28-21.85,3.04-19.14-5.84,18.03-24.44,62.07-11.44Z"/>
        </g>
      </g>
      <g>
        <path d="m83.09,69.42h-27.26v21.74h36.72v10.61H5.89v-10.61h36.52v-21.74H15.57V25.21h13.63v33.5h53.89v10.72Z"/>
        <path d="m184.51,65.26h-86.56v-10.4h86.56v10.4Zm-76.57,5.62h65.85v24.76h-52.75v5.83h55.24v10.3h-68.25v-25.59h52.64v-5.31h-52.75v-9.99Zm.83-51.08h64.71v10.61h-51.5v8.84h52.23v10.4h-65.44v-29.86Z"/>
      </g>
      <g>
        <path d="m329.4,191.37h-27.26v21.74h36.72v10.61h-86.66v-10.61h36.52v-21.74h-26.84v-44.21h13.63v33.5h53.89v10.72Z"/>
        <path d="m430.82,187.21h-86.56v-10.4h86.56v10.4Zm-76.57,5.62h65.85v24.76h-52.75v5.83h55.24v10.3h-68.25v-25.59h52.64v-5.31h-52.75v-9.99Zm.83-51.08h64.71v10.61h-51.5v8.84h52.22v10.4h-65.44v-29.86Z"/>
      </g>
      <g>
        <path d="m735.66,69.42h-27.26v21.74h36.72v10.61h-86.66v-10.61h36.52v-21.74h-26.84V25.21h13.63v33.5h53.89v10.72Z"/>
        <path d="m837.08,65.26h-86.56v-10.4h86.56v10.4Zm-76.57,5.62h65.85v24.76h-52.75v5.83h55.24v10.3h-68.25v-25.59h52.64v-5.31h-52.75v-9.99Zm.83-51.08h64.71v10.61h-51.5v8.84h52.23v10.4h-65.44v-29.86Z"/>
      </g>
    </g>
  </g>
</svg>