<svg width="30" height="32" viewBox="0 0 30 32" fill="none" xmlns="http://www.w3.org/2000/svg">
<path d="M27.8031 17.6666C27.4175 16.8737 26.9247 16.1666 26.3892 15.4595C26.1321 15.1381 25.8964 14.7953 25.6179 14.4953C25.5965 14.4738 25.5965 14.4524 25.5751 14.431C25.875 14.1524 26.1321 13.7025 26.3463 13.381C26.8391 12.6096 27.1818 11.7097 27.139 10.7669C27.0533 7.95986 23.9897 5.75281 21.0975 4.72429C20.3477 3.41721 19.2765 2.30297 17.7769 1.55301C16.2772 0.803041 14.4134 0.353061 12.978 1.53158C12.3139 2.0887 11.9068 2.81723 11.6497 3.65291C11.4997 4.12432 11.4141 4.59572 11.2855 5.06713C11.0284 5.02428 10.7714 4.96 10.5143 4.91714C9.70017 4.74572 8.88608 4.53145 8.05056 4.38145C6.03674 4.03861 4.06577 4.23146 2.459 5.60282C-0.0904089 7.80986 -0.947369 12.3097 1.45208 14.9238C1.68773 15.181 3.016 16.2095 3.80867 16.638C3.20881 17.4094 2.4804 18.0523 1.90197 18.8451C-0.197548 21.6735 -0.818827 25.8733 1.88055 28.5518C4.25857 30.9088 8.75753 31.6159 11.5855 29.7517C11.6283 29.7303 11.8425 29.5803 12.0568 29.4089C12.5924 29.7731 13.1922 30.2017 13.3636 30.2874C15.0775 31.1874 17.0913 31.5516 18.9552 30.9302C20.6476 30.3731 22.0616 29.0875 22.64 27.3733C22.7257 27.1376 22.8328 26.859 22.8328 26.6233C22.8328 26.5376 22.8543 26.4947 22.8543 26.4304C23.197 26.3662 23.6255 26.3876 23.9897 26.3662C26.0464 26.2162 28.2316 25.6162 28.8743 23.3449C29.367 21.5235 28.6172 19.3379 27.8031 17.6666Z" fill="#7DBBB9"/>
</svg>
