<svg width="9" height="11" viewBox="0 0 9 11" fill="none" xmlns="http://www.w3.org/2000/svg">
<path fill-rule="evenodd" clip-rule="evenodd" d="M4.28854 5.26839C4.07362 5.01674 3.96442 4.89704 3.45613 4.75796C3.01564 4.63744 2.60054 4.80274 2.60054 5.26839C1.92465 5.26839 1.9559 5.52078 2.27797 5.70718C2.60004 5.89359 2.78412 6.02061 2.98896 6.32738C2.94077 6.55103 2.42679 6.721 2.27797 6.80521C1.68723 7.13932 1.13441 7.6485 0.630171 8.09163C0.267076 8.41061 0.167607 9.70686 0.125841 10.1961C0.109402 10.3874 0.112207 10.3992 0.0724595 10.5845C0.0256851 10.8004 0.0632489 11.0539 0.259393 10.8286C0.390766 10.6777 0.418557 10.6886 0.536976 10.5845C0.837702 10.3201 1.05094 9.86822 1.36999 9.58793C1.95954 9.06975 2.6347 8.61061 3.45613 8.37208C3.99596 8.21529 4.57166 8.1697 5.09862 7.97236C5.38893 7.86375 5.67028 7.73026 5.97809 7.67002C6.0183 7.66215 6.24271 7.58222 6.27938 7.61105C6.66025 7.91185 7.13526 8.35205 7.58629 8.5796C7.65892 8.61635 7.92805 8.85139 7.97302 8.84259C8.05126 8.82728 8.1629 8.47382 8.20064 8.40725C8.40342 8.0496 8.75168 7.70523 8.93758 7.37736C8.96924 7.32151 8.60175 7.11214 8.56755 7.08513C8.25992 6.84217 7.60534 6.51718 7.23344 6.43444C7.16414 6.41906 6.66126 6.36327 6.68445 6.25549C6.77867 5.81732 7.06093 5.46367 7.15709 5.01674C7.35201 4.11085 7.50341 3.02441 7.67964 2.20538C7.71221 2.05399 7.92343 1.87784 8.01978 1.77415C8.26891 1.50558 8.47717 1.18747 8.69527 0.8865C8.73022 0.838065 8.99647 0.509259 8.97579 0.492921C8.58233 0.18219 6.27193 0.8109 5.92446 1.11626C5.42828 1.55229 5.42241 3.35028 5.09862 4.15261C4.93676 4.55369 4.80617 4.94605 4.28854 5.26839Z" fill="#665F4F"/>
</svg>
