<svg width="11" height="11" viewBox="0 0 11 11" fill="none" xmlns="http://www.w3.org/2000/svg">
<path fill-rule="evenodd" clip-rule="evenodd" d="M3.0266 6.48308C2.89822 6.70268 2.57938 7.50701 2.37272 8.02597C2.15912 8.56251 1.92634 9.09394 1.76591 9.64876C1.75244 9.69535 1.86693 9.64953 1.90978 9.62686C1.98836 9.58537 2.05365 9.52193 2.11923 9.46204C2.2301 9.36091 2.32613 9.24422 2.43825 9.14445C2.91288 8.72234 4.18478 7.6082 4.76346 7.26752C5.1074 7.06502 5.60102 7.85113 5.68797 7.96787C6.30475 8.79618 6.96966 9.81269 7.67695 10.5732C7.7036 10.6018 7.74123 10.5174 7.74622 10.4787C7.7629 10.3508 7.74978 10.2204 7.73957 10.0918C7.71737 9.81257 7.7058 9.53071 7.64894 9.25651C7.63707 9.19917 7.13383 7.3718 7.07602 7.00834C7.04997 6.84459 6.99275 6.66244 7.06065 6.51109C7.13989 6.33464 7.32767 6.22929 7.47943 6.10934C8.1631 5.56889 8.90986 5.11295 9.63798 4.63416C9.70511 4.59 10.4891 4.23853 10.4224 3.98978C10.3562 3.74306 9.71182 3.81582 9.60997 3.8217C8.28715 3.8985 8.25272 3.87268 6.97661 4.24197C6.61635 4.34619 6.28184 4.54347 5.91208 4.60615C5.85226 4.61624 5.86632 4.49107 5.86484 4.43041C5.86282 4.34322 5.88229 4.25639 5.90181 4.17146C5.93547 4.02504 5.9877 3.88343 6.02414 3.73766C6.20593 3.01037 6.37977 2.28112 6.5564 1.55258C6.5862 1.42972 6.7154 0.990522 6.64044 0.852174C6.61338 0.8022 6.52489 0.873599 6.47913 0.90737C6.38678 0.975506 6.30997 1.06329 6.23567 1.15083C6.11121 1.29749 5.98354 1.44385 5.88407 1.60861C5.47336 2.28877 5.08253 2.98117 4.70743 3.68163C4.69081 3.71267 4.41358 4.49308 4.34325 4.52211C4.16994 4.59357 3.9707 4.4748 3.78766 4.43427C3.19883 4.30375 2.10825 3.98622 1.51616 3.87452C1.3219 3.83784 1.04741 3.66614 0.925498 3.8217C0.813858 3.9642 1.07696 4.15306 1.18273 4.2999C1.40743 4.61179 1.6649 4.89875 1.91287 5.19236C2.27954 5.62652 2.93929 6.2738 3.0266 6.48308Z" fill="#A85E2D"/>
</svg>
