<svg width="12" height="12" viewBox="0 0 12 12" fill="none" xmlns="http://www.w3.org/2000/svg">
<path d="M10.5164 5.08398C10.7166 5.08398 11.0417 5.24121 10.9461 5.7785C10.9177 5.93828 10.9349 5.99867 10.8706 6.16399C10.8364 6.25191 10.7978 6.33976 10.7508 6.42416C10.7045 6.50762 10.6542 6.58928 10.5966 6.6653C10.4365 6.87868 10.2332 7.07881 10.0058 7.26216C9.69426 7.51331 9.3431 7.73728 9.01488 7.92119C8.25131 8.41039 7.465 8.77284 6.6365 9.0122C5.81428 9.24975 4.9515 9.36174 4.0342 9.36986C3.61892 9.36619 3.17072 9.35436 2.74293 9.28248C2.43178 9.2302 2.13117 9.14636 1.85805 9.01621C1.59334 8.88999 1.36078 8.7253 1.15366 8.53602C0.851393 8.2598 0.603753 7.93119 0.386926 7.60146C0.276628 7.43439 0.255741 6.87743 0.422829 6.76712C0.589904 6.65683 0.815099 6.70293 0.925397 6.87001C1.08143 7.10547 1.25427 7.34151 1.45862 7.55012C1.64342 7.73873 1.85455 7.90473 2.105 8.02307C2.31845 8.12399 2.55406 8.18584 2.79697 8.22618C3.18677 8.29091 3.59512 8.29952 3.97342 8.30254C4.82609 8.32444 5.62985 8.24193 6.40322 8.05432C7.1884 7.86386 7.9429 7.56871 8.68112 7.14818C8.97087 6.95962 9.28257 6.73672 9.55026 6.48465C9.72267 6.32229 9.87242 6.14566 9.98661 5.96199C10.058 5.76281 10.1148 5.57499 10.1593 5.37317C10.2133 5.12876 10.4089 5.08398 10.5164 5.08398Z" fill="#2E3120"/>
<path fill-rule="evenodd" clip-rule="evenodd" d="M7.76206 2.59108C7.97537 2.68219 7.96176 3.10593 7.98131 3.30134C8.04227 3.9111 8.08805 4.64803 7.88622 5.235C7.80969 5.45753 7.56269 5.96645 7.23951 5.87629C7.0493 5.82323 6.94848 5.47351 6.89968 5.314C6.70763 4.68625 6.90147 4.09495 6.93255 3.4494C6.95759 2.92967 7.16346 2.33539 7.76206 2.59108Z" fill="#2E3120"/>
<path fill-rule="evenodd" clip-rule="evenodd" d="M3.50356 2.59108C3.29026 2.68219 3.30386 3.10593 3.28432 3.30134C3.22335 3.9111 3.17758 4.64803 3.37941 5.235C3.45593 5.45753 3.70293 5.96645 4.02612 5.87629C4.21633 5.82323 4.31714 5.47351 4.36594 5.314C4.55799 4.68625 4.36415 4.09495 4.33307 3.4494C4.30803 2.92967 4.10217 2.33539 3.50356 2.59108Z" fill="#2E3120"/>
</svg>
