<svg width="69" height="68" viewBox="0 0 69 68" fill="none" xmlns="http://www.w3.org/2000/svg">
<path d="M28.0857 38.4395C28.0857 38.4395 -0.79179 48.7909 4.65332 53.7894C10.0984 58.7878 31.6024 41.2755 31.6024 41.2755C31.6024 41.2755 17.5004 59.2203 24.4273 62.2761C31.3542 65.3319 33.2756 42.8141 33.2756 42.8141C33.2756 42.8141 26.5898 69.6284 35.4026 67.1469C44.2155 64.6654 36.537 41.2755 36.537 41.2755C36.537 41.2755 46.9239 63.2545 53.0425 60.5461C59.1612 57.8377 40.0891 38.8507 40.0891 38.8507C40.0891 38.8507 59.0123 55.5193 64.1951 48.8618C69.3779 42.2043 40.0891 35.2065 40.0891 35.2065C40.0891 35.2065 66.1165 42.2965 67.974 35.2065C69.8316 28.1165 41.2802 33.7389 41.2802 33.7389C41.2802 33.7389 70.0443 24.7842 65.2444 18.7932C60.4445 12.8021 39.1958 31.7253 39.1958 31.7253C39.1958 31.7253 63.3017 13.8869 58.9272 9.09406C54.5527 4.30122 37.4942 30.4278 37.4942 30.4278C37.4942 30.4278 54.1273 3.09592 46.8246 1.57157C39.5219 0.0472259 34.2186 30.8887 34.2186 30.8887C34.2186 30.8887 38.5789 -3.00856 29.3549 0.593155C20.1308 4.19487 32.0065 31.7253 32.0065 31.7253C32.0065 31.7253 17.8407 4.40757 11.9702 8.12273C6.09968 11.8379 30.4396 34.3911 30.4396 34.3911C30.4396 34.3911 9.22637 14.5392 3.56146 18.6797C-2.10344 22.8203 29.0854 35.0718 29.0854 35.0718C29.0854 35.0718 1.43447 28.2512 0.257529 35.7808C-0.91941 43.3104 28.0857 38.4395 28.0857 38.4395Z" fill="#EDC06F"/>
<path d="M33.387 33.845C33.387 33.845 30.0689 25.7624 34.096 24.784C38.1231 23.8056 35.124 34.5044 35.0461 34.079C34.9681 33.6536 36.9391 26.0531 41.9375 27.3789C46.936 28.7047 36.0741 34.7383 36.0741 34.7383C36.0741 34.7383 40.9591 31.243 44.5821 33.7386C48.2051 36.2343 36.4995 35.9153 36.4995 35.9153C36.4995 35.9153 43.2634 35.3977 43.7384 39.5737C44.2134 43.7497 36.2301 36.5108 36.2301 36.5108C36.2301 36.5108 42.1502 43.381 38.3571 45.2032C34.5639 47.0253 34.8972 36.9504 34.8972 36.9504C34.8972 36.9504 35.4714 44.4516 31.6074 43.934C27.7434 43.4165 33.862 36.9504 33.862 36.9504C33.862 36.9504 27.6086 42.1828 26.9706 38.6024C26.3325 35.0219 32.6425 36.0712 32.6425 36.0712C32.6425 36.0712 23.5177 33.8875 26.0205 30.2078C28.5233 26.5281 33.387 33.845 33.387 33.845Z" fill="#F58548"/>
</svg>
