<svg width="11" height="16" viewBox="0 0 11 16" fill="none" xmlns="http://www.w3.org/2000/svg">
<path fill-rule="evenodd" clip-rule="evenodd" d="M5.63247 1.24502C5.80129 2.0444 5.85741 2.99814 5.80129 4.1166C5.73821 5.37346 5.72126 8.22005 5.71228 9.47897C5.70757 10.1374 5.67553 10.7853 5.63247 11.4413C5.62425 11.5663 5.64458 11.8904 5.5802 11.986C5.36659 12.3033 3.54162 12.9958 3.09838 13.1637C1.72363 13.6845 0.256594 14.9168 1.31051 15.3237C3.15659 16.0364 5.64487 15.5968 7.57291 15.3237C8.09939 15.2491 8.63353 15.1881 9.15393 15.0711C9.30422 15.0374 9.62159 14.9845 9.68196 14.7851C9.76605 14.5073 9.69421 14.088 9.69421 13.8024C9.69421 13.2993 9.73904 12.7941 9.78015 12.2933C9.94477 10.2882 10.1731 6.71425 10.1731 4.69777C10.1731 3.68524 10.1731 1.63329 10.0609 1.24502C9.87315 0.595388 5.3714 0.00883561 5.63247 1.24502Z" fill="#42535D"/>
</svg>
