<svg width="46" height="28" viewBox="0 0 46 28" fill="none" xmlns="http://www.w3.org/2000/svg">
<path d="M45.4966 16.3264C44.3611 12.8337 41.019 9.70527 37.1199 9.94097C36.7343 9.9624 36.3487 10.0053 35.9631 10.0267C35.5774 8.24819 34.6991 6.57684 33.328 5.20548C26.4938 -1.6085 14.0467 -1.05138 9.97624 8.59104C9.95482 8.63389 9.9334 8.69817 9.91197 8.74103C9.69774 9.06244 9.50492 9.38386 9.31211 9.74813C7.89815 9.61956 6.46277 9.81241 5.15593 10.3481C-0.799826 12.8551 -0.821247 20.6762 3.91337 24.3403C6.50562 26.3545 8.96934 26.0759 12.0543 26.0545C12.8684 26.0545 13.6611 26.1402 14.4752 26.2474C18.9956 26.7831 23.4945 27.383 28.0363 27.7259C34.8276 28.2401 48.753 26.3974 45.4966 16.3264Z" fill="#5F787B"/>
</svg>
