<svg width="9" height="22" viewBox="0 0 9 22" fill="none" xmlns="http://www.w3.org/2000/svg">
<path d="M1.51487 19.7852C1.5955 20.3837 1.51487 20.7511 1.51487 21.356C1.51487 21.8266 2.77073 21.8993 3.20763 21.8993C3.88043 21.8993 4.56643 21.8201 5.22859 21.7044C5.67096 21.6272 6.11199 21.5381 6.55933 21.4938C6.8724 21.4628 7.05075 21.4886 7.20978 21.356C7.36882 21.2235 7.31719 20.8778 7.31719 20.6927V19.8463C7.31719 19.5634 7.51963 19.4005 7.69115 19.1987C7.91317 18.9374 8.19884 18.721 8.49078 18.5412C8.77143 18.3684 9 18.0866 9 17.746C9 17.5885 8.99284 17.4414 8.97215 17.2854C8.94645 17.0914 8.99823 16.8858 8.92839 16.6988C8.82234 16.4148 8.68372 16.2472 8.49628 16.0206L8.48083 16.002C8.33458 15.8251 8.12183 15.6503 8.06908 15.4154C7.99702 15.0945 7.98936 14.8571 8.06113 14.5375C8.12742 14.2423 8.38144 14.0219 8.45498 13.7147C8.51656 13.4574 8.48697 13.0414 8.40724 12.7935C8.31186 12.4968 8.11334 12.3043 7.98156 12.0317C7.88477 11.8314 7.71104 11.6236 7.71104 11.3919C7.71104 11.1469 7.69835 10.9055 7.74684 10.6656C7.77642 10.5193 7.85426 10.3947 7.85426 10.2424V9.88021C7.85426 9.27297 7.48938 8.57239 6.95119 8.25036C6.78312 8.1498 6.50461 8.02466 6.49368 7.79763C6.48394 7.59516 6.59593 7.45062 6.6548 7.26419C6.79073 6.83377 6.81068 6.29356 6.6548 5.85284C6.5845 5.65406 6.48914 5.36558 6.35047 5.2131C6.18072 5.02646 5.93229 4.85481 5.7955 4.64423C5.67118 4.45286 5.43711 4.35684 5.41955 4.10489C5.39435 3.74328 5.34794 3.39745 5.34794 3.03014C5.34794 2.52153 5.29534 2.01814 5.22262 1.51446C5.13697 0.921118 4.84856 0.538936 4.28176 0.719224C3.72512 0.896279 3.71597 1.46195 3.55771 1.93176C3.46835 2.19707 3.3147 2.53868 3.30708 2.81755C3.29996 3.07829 3.30708 3.34015 3.30708 3.60098C3.30708 3.89712 3.27924 4.16491 3.19768 4.44739C3.12486 4.69961 2.89124 4.93578 2.77002 5.1757C2.66489 5.38377 2.61423 5.62159 2.59298 5.85284C2.57652 6.032 2.59099 6.21813 2.59099 6.39809C2.59099 6.53165 2.65817 6.64633 2.6626 6.77799C2.67667 7.19569 2.54135 7.48672 2.30456 7.82518C2.09235 8.12852 1.66008 8.42976 1.66008 8.82711C1.66008 9.34477 1.80329 9.83827 1.80329 10.3566C1.80329 10.8418 1.62909 11.3006 1.28413 11.6419C1.1306 11.7939 1.03009 11.9392 0.926084 12.1222C0.779158 12.3807 0.729159 12.6412 0.729159 12.9332C0.729159 13.1976 0.794773 13.4457 0.800768 13.7068C0.806415 13.9527 0.908181 14.1781 0.908181 14.4233C0.908181 14.633 0.895658 14.8075 0.844529 15.0099C0.741126 15.4192 0.387967 15.6615 0.208004 16.0177C-0.0292359 16.4872 -0.0332753 17.0079 0.046884 17.5235C0.0873985 17.7841 0.148519 18.0138 0.281603 18.2479C0.429453 18.508 0.67968 18.5718 0.916138 18.7105C1.32422 18.9498 1.45471 19.3388 1.51487 19.7852Z" fill="#3D5138"/>
</svg>
